{
.appVersion = "3151";
.formatVersion = 3;
DisplayStrings = (
"HIHIOHIHOIHOIHOIHIHOIOIOIHIO
THOTHTOHTHOTHTOHTHOOTHOHTOT",
COCOON,
"ČÇḈĈĊƇȻĮĽḼĻḶḸḺŁƆƆŤŤŢŢṰṰȚȚȾȾṪṪṬṬṮṮĳ₵₡",
"ɪaáăắặằẳẵǎâấậầẩẫȁäǟȧạǡàảȃoOⱭɑāąåḁⱥãæǣdbḃḅꞵbɓʘḇƀcćčçḉĉċꭓƈȼ/shortstrokecomb dďḑḓ/shortstrokecomb đḋḍɗḏɖðeéěȩḝêếḙệềểễȅëėẹèẻȇēḗḕęɛʃɇẽḛǝəʒǯƹfḟgǵɣğǧĝģġɠʔʕɂḡǥhħḫȟḩĥḧḣḥꜧɦɥiı/idotless_ogonek íǐîȉïḯ/idotaccent ịìỉȋīįɩɨĩḭĳjȷ/jacute ǰĵʝɉkḱǩķḳĸƙḵꝁlĺƛƚɬľḽļḷḹⱡḻɫłmḿṁṃɯnńňṋņṅṇǹɲƞṉñŋoóɵǒôốộồổỗȍöȫȯȱọòỏơớợờởỡőȏōṓṑꞷǫǭɔøǿõṍṏȭȣœpṕṗƥþᵽqɋrŕřŗȑṙṛṝɾȓṟɍɽsśṥšṧşŝșṡṣṩßꞩtŧťţṱțⱦṫṭƭṯʈuúʉŭǔûṷȕüǘṳǚǜǖụùủưứựừửữűȗūṻųʊůũṹṵvṿʋṽʌwẃŵẅẇẉẁⱳxẍẋyýŷÿẏỵỳƴỷȳɏỹzźžẑżẓẕƶ",
"Ɑ",
"Ƀ",
"AÁĂẮẶẰẲẴǍÂẤẬẦẨẪȀÄǞȦẠǠÀẢȂⱭĀĄÅḀȺÃÆǢBḂḄꞴƁḆɃCĆČÇḈĈĊꞳƇȻDÐĎḐḒĐḊḌƊḎƉEÉĚȨḜÊẾḘỆỀỂỄȄËĖẸÈẺȆĒḖḔĘƐƎƩɆẼḚƏƷǮƸFḞƑGǴĞǦĜĢĠƓɁḠǤHĦḪHḨ̌ḨĤḦḢḤꜦꞪꞍIĲÍǏÎȈÏḮİỊÌỈȊĪĮƖƗĨḬJ/Jacute ĴꞲɈKḰǨĶḲƘḴꝀLĹȽꞭĽḼĻḶḸⱠḺⱢŁMḾṀṂƜNŃŇṊŅṄṆǸƝȠṈÑŊOȢÓǑƟÔỐỘỒỔỖȌÖȪȮȰỌÒỎƠỚỢỜỞỠŐȎŌṒṐꞶǪǬƆØǾÕṌṎȬŒPṔṖƤÞⱣQɊRŔŘŖȐṘṚṜȒṞɌⱤSŚṤꞋŠṦŞŜȘṠṢṨẞꞨTTŦTŢ̌ŢṰȚȾṪṬƬṮƮUÚɄŬǓÛṶȔÜǗṲǙǛǕỤÙỦƯỨỰỪỬỮŰ ȖŪṺŲƱŮŨṸṴVƔṾƲṼɅWẂŴẄẆẈẀⱲXẌẊYÝŶŸẎỴỲƳỶȲɎỸZŹŽẐŻẒẔƵ/G.001/K.001 ɪaáăắặằẳẵǎâấậầẩẫȁäǟȧạǡàảȃɑaāąåḁⱥãæǣbḃḅꞵɓʘḇƀcćčçḉĉċꭓcƈdðďḑḓđḋḍɗḏɖeéěȩḝêếḙệềểễȅëėẹèẻȇēḗḕęɛʃɇẽḛǝəʒǯƹfḟgǵɣğǧĝģġɠʔʕɂḡǥhħḫȟḩĥḧḣḥꜧɦɥiı/idotless_ogonek íǐîȉïḯ/idotaccent ịìỉȋĳīįɩɨĩḭjȷ/jacute ǰĵʝɉkḱǩķḳĸƙḵꝁlĺƛƚɬľḽļḷḹⱡḻɫłmḿṁṃɯnńňṋņṅṇǹɲƞṉñŋoóɵǒôốộồổỗȍöȫȯȱọòỏơớợờởỡőȏōṓṑꞷǫǭɔøǿõṍṏȭȣœpṕṗƥþᵽqɋrŕřŗȑṙṛṝɾȓṟɍɽsśṥꞌšṧşŝșṡṣṩßꞩtŧťţṱțⱦṫṭƭṯʈuúʉŭǔûṷȕüǘṳǚǜǖụùủưứựừửữűȗūṻųʊůũṹṵvṿʋṽʌwẃŵẅẇẉẁⱳxẍẋyýŷÿẏỵỳƴỷȳɏỹzźžẑżẓẕ",

glyphs = (
{
color = 4;
glyphname = A;
lastChange = "2024-01-04 21:33:04 +0000";
layers = (
{
anchors = (
{
name = bottom;
pos = (329,0);
},
{
name = ogonek;
pos = (628,0);
},
{
name = top;
pos = (329,700);
}
);
background = {
shapes = (
{
closed = 1;
nodes = (
(116,0,l),
(114,34,o),
(114,60,o),
(118,78,cs),
(128,127,o),
(144,131,o),
(329,131,cs),
(514,131,o),
(530,127,o),
(540,78,cs),
(544,60,o),
(544,34,o),
(542,0,c),
(628,0,l),
(599,216,o),
(582,419,o),
(570,700,c),
(88,700,l),
(76,419,o),
(59,216,o),
(30,0,c)
);
},
{
closed = 1;
nodes = (
(235,347,o),
(202,350,o),
(170,360,cs),
(146,368,o),
(138,379,o),
(138,401,cs),
(138,423,o),
(146,434,o),
(170,442,cs),
(201,452,o),
(237,455,o),
(329,455,cs),
(422,455,o),
(459,452,o),
(490,442,cs),
(511,435,o),
(520,422,o),
(520,401,cs),
(520,380,o),
(510,367,o),
(490,360,cs),
(455,350,o),
(422,347,o),
(329,347,cs)
);
}
);
};
layerId = m01;
shapes = (
{
closed = 1;
nodes = (
(112,0,l),
(110,43,o),
(107,97,o),
(133,115,cs),
(144,122,o),
(161,131,o),
(329,131,cs),
(497,131,o),
(514,122,o),
(525,115,cs),
(551,97,o),
(548,43,o),
(546,0,c),
(628,0,l),
(599,216,o),
(582,419,o),
(570,700,c),
(88,700,l),
(76,419,o),
(59,216,o),
(30,0,c)
);
},
{
closed = 1;
nodes = (
(233,351,o),
(168,354,o),
(145,377,cs),
(139,383,o),
(136,390,o),
(136,403,cs),
(136,416,o),
(139,423,o),
(145,429,cs),
(168,452,o),
(235,455,o),
(329,455,cs),
(423,455,o),
(490,452,o),
(513,429,cs),
(519,423,o),
(522,416,o),
(522,403,cs),
(522,390,o),
(519,383,o),
(513,377,cs),
(490,354,o),
(425,351,o),
(329,351,cs)
);
}
);
width = 658;
},
{
anchors = (
{
name = bottom;
pos = (297,0);
},
{
name = ogonek;
pos = (524,0);
},
{
name = top;
pos = (290,700);
}
);
layerId = "60D037D9-62E9-4843-B070-F1594CB0B0D1";
shapes = (
{
closed = 1;
nodes = (
(87,0,l),
(87,19,o),
(100,187,o),
(115,202,cs),
(124,211,o),
(129,214,o),
(290,214,cs),
(451,214,o),
(456,211,o),
(465,202,cs),
(480,187,o),
(493,19,o),
(493,0,c),
(524,0,l),
(488,232,o),
(470,468,o),
(455,700,c),
(125,700,l),
(110,468,o),
(92,232,o),
(56,0,c)
);
},
{
closed = 1;
nodes = (
(150,243,o),
(141,244,o),
(130,248,cs),
(111,255,o),
(111,262,o),
(129,463,cs),
(145,645,o),
(146,650,o),
(153,655,cs),
(160,660,o),
(167,661,o),
(290,661,cs),
(413,661,o),
(420,660,o),
(427,655,cs),
(434,650,o),
(435,645,o),
(451,463,cs),
(469,262,o),
(469,255,o),
(450,248,cs),
(439,244,o),
(430,243,o),
(290,243,cs)
);
}
);
width = 590;
}
);
unicode = 65;
},
{
color = 2;
glyphname = "Alpha-latin";
lastChange = "2024-01-08 01:20:20 +0000";
layers = (
{
layerId = "60D037D9-62E9-4843-B070-F1594CB0B0D1";
shapes = (
{
closed = 1;
nodes = (
(586,454,o),
(580,626,o),
(587,664,cs),
(590,681,o),
(605,683,o),
(617,678,c),
(617,713,l),
(592,719,o),
(562,717,o),
(562,650,cs),
(562,571,o),
(567,565,o),
(558,565,cs),
(551,565,o),
(540,603,o),
(517,634,cs),
(488,674,o),
(424,716,o),
(336,716,cs),
(182,716,o),
(69,637,o),
(69,350,cs),
(69,63,o),
(182,-16,o),
(336,-16,cs),
(424,-16,o),
(488,26,o),
(517,66,cs),
(540,97,o),
(551,135,o),
(558,135,cs),
(567,135,o),
(562,129,o),
(562,50,cs),
(562,-17,o),
(592,-19,o),
(617,-13,c),
(617,22,l),
(605,17,o),
(590,19,o),
(587,36,cs),
(580,74,o),
(586,246,o),
(586,350,c)
);
},
{
closed = 1;
nodes = (
(91,463,o),
(117,550,o),
(153,602,cs),
(196,663,o),
(260,677,o),
(336,677,cs),
(407,677,o),
(467,657,o),
(512,594,cs),
(547,545,o),
(563,463,o),
(563,350,cs),
(563,237,o),
(547,155,o),
(512,106,cs),
(467,43,o),
(407,23,o),
(336,23,cs),
(260,23,o),
(196,37,o),
(153,98,cs),
(117,150,o),
(91,237,o),
(91,350,cs)
);
}
);
width = 699;
},
{
background = {
shapes = (
{
closed = 1;
nodes = (
(423,-6,o),
(469,50,o),
(493,85,cs),
(514,116,o),
(521,131,o),
(531,131,cs),
(543,131,o),
(545,117,o),
(545,93,cs),
(545,72,o),
(543,40,o),
(540,5,c),
(626,5,l),
(622,278,o),
(622,426,o),
(626,701,c),
(540,701,l),
(543,666,o),
(545,634,o),
(545,613,cs),
(545,589,o),
(543,575,o),
(531,575,cs),
(521,575,o),
(514,590,o),
(493,621,cs),
(469,656,o),
(423,712,o),
(308,712,cs),
(122,712,o),
(44,599,o),
(45,353,cs),
(44,107,o),
(122,-6,o),
(308,-6,cs)
);
},
{
closed = 1;
nodes = (
(152,258,o),
(110,282,o),
(109,353,cs),
(110,424,o),
(152,448,o),
(332,448,cs),
(494,448,o),
(554,424,o),
(555,353,cs),
(554,282,o),
(494,258,o),
(332,258,cs)
);
}
);
};
layerId = m01;
shapes = (
{
closed = 1;
nodes = (
(614,471,o),
(611,588,o),
(625,608,cs),
(635,622,o),
(647,622,o),
(665,618,c),
(665,708,l),
(586,716,o),
(542,707,o),
(545,611,cs),
(546,587,o),
(543,573,o),
(531,573,cs),
(521,573,o),
(514,588,o),
(493,619,cs),
(469,654,o),
(423,710,o),
(308,710,cs),
(122,710,o),
(43,597,o),
(42,352,cs),
(41,107,o),
(122,-10,o),
(308,-10,cs),
(423,-10,o),
(469,46,o),
(493,81,cs),
(514,112,o),
(521,127,o),
(531,127,cs),
(543,127,o),
(546,113,o),
(545,89,cs),
(542,-7,o),
(586,-16,o),
(665,-8,c),
(665,82,l),
(647,78,o),
(635,78,o),
(625,92,cs),
(611,112,o),
(614,233,o),
(614,352,cs)
);
},
{
closed = 1;
nodes = (
(109,395,o),
(128,426,o),
(174,442,cs),
(208,454,o),
(258,459,o),
(328,459,cs),
(398,459,o),
(448,454,o),
(482,442,cs),
(528,426,o),
(547,395,o),
(547,350,cs),
(547,305,o),
(528,278,o),
(482,262,cs),
(448,250,o),
(398,245,o),
(328,245,cs),
(258,245,o),
(208,250,o),
(174,262,cs),
(128,278,o),
(109,305,o),
(109,350,cs)
);
}
);
width = 723;
}
);
metricLeft = O;
metricRight = H;
unicode = 11373;
},
{
color = 2;
glyphname = AE;
lastChange = "2024-01-05 18:32:05 +0000";
layers = (
{
anchors = (
{
name = bottom;
pos = (486,0);
},
{
name = top;
pos = (486,700);
}
);
background = {
shapes = (
{
pos = (354,0);
ref = E;
}
);
};
layerId = "60D037D9-62E9-4843-B070-F1594CB0B0D1";
shapes = (
{
closed = 1;
nodes = (
(87,0,l),
(91,19,o),
(126,187,o),
(143,202,cs),
(155,212,o),
(166,214,o),
(277,214,cs),
(401,214,o),
(418,213,o),
(425,208,cs),
(435,201,o),
(438,179,o),
(438,0,c),
(784,0,l),
(784,36,l),
(722,36,o),
(660,36,o),
(598,36,cs),
(491,36,o),
(479,37,o),
(472,42,cs),
(464,48,o),
(461,62,o),
(461,195,cs),
(461,301,o),
(462,341,o),
(472,348,cs),
(479,353,o),
(497,354,o),
(584,354,cs),
(670,354,o),
(703,353,o),
(766,353,c),
(766,386,l),
(723,385,o),
(672,384,o),
(585,384,cs),
(497,384,o),
(479,385,o),
(472,390,cs),
(464,396,o),
(461,411,o),
(461,524,cs),
(461,637,o),
(464,652,o),
(472,658,cs),
(479,663,o),
(491,664,o),
(598,664,cs),
(660,664,o),
(722,664,o),
(784,664,c),
(784,700,l),
(223,700,l),
(175,468,o),
(125,232,o),
(56,0,c)
);
},
{
closed = 1;
nodes = (
(187,243,o),
(177,243,o),
(165,248,cs),
(148,255,o),
(148,264,o),
(194,464,cs),
(234,639,o),
(238,651,o),
(245,656,cs),
(252,661,o),
(277,661,o),
(336,661,cs),
(421,661,o),
(428,659,o),
(433,655,cs),
(439,650,o),
(439,649,o),
(439,463,cs),
(439,271,o),
(436,256,o),
(426,249,cs),
(419,244,o),
(401,243,o),
(293,243,cs)
);
}
);
width = 796;
},
{
anchors = (
{
name = bottom;
pos = (560,0);
},
{
name = top;
pos = (560,700);
}
);
background = {
shapes = (
{
pos = (346,0);
ref = E;
}
);
};
layerId = m01;
shapes = (
{
closed = 1;
nodes = (
(135,0,l),
(132,43,o),
(129,97,o),
(159,115,cs),
(171,122,o),
(191,131,o),
(321,131,cs),
(452,131,o),
(472,122,o),
(484,115,cs),
(514,97,o),
(511,43,o),
(508,0,c),
(920,0,l),
(920,249,l),
(910,248,o),
(815,246,o),
(770,246,cs),
(628,246,o),
(605,248,o),
(586,262,cs),
(579,269,o),
(574,273,o),
(574,287,cs),
(574,301,o),
(579,307,o),
(586,313,cs),
(605,327,o),
(669,325,o),
(770,325,cs),
(823,325,o),
(868,324,o),
(890,323,c),
(890,395,l),
(868,394,o),
(823,393,o),
(770,393,cs),
(669,393,o),
(596,392,o),
(582,404,cs),
(576,409,o),
(574,415,o),
(574,423,cs),
(574,431,o),
(576,437,o),
(582,442,cs),
(596,454,o),
(628,455,o),
(770,455,cs),
(815,455,o),
(907,453,o),
(917,452,c),
(920,700,l),
(199,700,l),
(145,427,o),
(88,208,o),
(30,0,c)
);
},
{
closed = 1;
nodes = (
(304,350,o),
(239,353,o),
(216,376,cs),
(210,382,o),
(207,390,o),
(207,403,cs),
(207,416,o),
(210,424,o),
(216,430,cs),
(239,453,o),
(306,456,o),
(348,456,cs),
(390,456,o),
(457,453,o),
(480,430,cs),
(486,424,o),
(489,416,o),
(489,403,cs),
(489,390,o),
(486,382,o),
(480,376,cs),
(457,353,o),
(392,350,o),
(348,350,cs)
);
}
);
width = 960;
}
);
metricLeft = A;
metricRight = E;
unicode = 198;
},
{
color = 4;
glyphname = B;
lastChange = "2024-01-05 18:54:33 +0000";
layers = (
{
anchors = (
{
name = bottom;
pos = (293,0);
},
{
name = center;
pos = (328,350);
},
{
name = hook;
pos = (58,700);
},
{
name = top;
pos = (286,700);
}
);
background = {
shapes = (
{
closed = 1;
nodes = (
(406,0,ls),
(553,0,o),
(620,61,o),
(620,193,cs),
(620,282,o),
(578,346,o),
(489,369,c),
(551,402,o),
(576,448,o),
(576,515,cs),
(576,642,o),
(509,700,o),
(362,700,cs),
(58,700,l),
(62,451,o),
(62,249,o),
(58,0,c)
);
},
{
closed = 1;
nodes = (
(219,237,o),
(184,240,o),
(154,247,cs),
(130,253,o),
(121,262,o),
(121,282,cs),
(121,302,o),
(131,313,o),
(154,318,cs),
(187,326,o),
(226,328,o),
(312,328,cs),
(395,328,o),
(436,326,o),
(468,318,cs),
(492,313,o),
(502,302,o),
(502,282,cs),
(502,263,o),
(493,253,o),
(468,247,cs),
(439,240,o),
(401,237,o),
(312,237,cs)
);
},
{
closed = 1;
nodes = (
(198,390,o),
(179,391,o),
(158,396,cs),
(137,400,o),
(130,408,o),
(130,423,cs),
(130,438,o),
(137,444,o),
(158,449,cs),
(180,454,o),
(206,455,o),
(301,455,cs),
(393,455,o),
(423,453,o),
(444,449,cs),
(465,444,o),
(472,438,o),
(472,423,cs),
(472,408,o),
(465,400,o),
(444,396,cs),
(425,391,o),
(402,390,o),
(301,390,cs)
);
}
);
};
layerId = m01;
shapes = (
{
closed = 1;
nodes = (
(406,0,ls),
(553,0,o),
(620,61,o),
(620,193,cs),
(620,282,o),
(578,346,o),
(489,369,c),
(551,402,o),
(576,448,o),
(576,515,cs),
(576,642,o),
(509,700,o),
(362,700,cs),
(58,700,l),
(62,451,o),
(62,249,o),
(58,0,c)
);
},
{
closed = 1;
nodes = (
(167,245,o),
(152,251,o),
(135,260,cs),
(129,264,o),
(121,272,o),
(121,288,cs),
(121,305,o),
(129,313,o),
(135,316,cs),
(152,326,o),
(167,331,o),
(312,331,cs),
(457,331,o),
(471,326,o),
(488,316,cs),
(494,313,o),
(502,305,o),
(502,288,cs),
(502,272,o),
(494,264,o),
(488,260,cs),
(471,251,o),
(457,245,o),
(312,245,cs)
);
},
{
closed = 1;
nodes = (
(183,392,o),
(152,394,o),
(137,407,cs),
(133,411,o),
(130,415,o),
(130,424,cs),
(130,432,o),
(133,437,o),
(137,441,cs),
(152,453,o),
(183,455,o),
(301,455,cs),
(419,455,o),
(450,453,o),
(465,441,cs),
(469,437,o),
(472,432,o),
(472,424,cs),
(472,415,o),
(469,411,o),
(465,407,cs),
(450,394,o),
(419,392,o),
(301,392,cs)
);
}
);
width = 660;
},
{
anchors = (
{
name = bottom;
pos = (260,0);
},
{
name = center;
pos = (320,350);
},
{
name = hook;
pos = (82,700);
},
{
name = top;
pos = (260,700);
}
);
background = {
shapes = (
{
pos = (-2,0);
ref = E;
}
);
};
layerId = "60D037D9-62E9-4843-B070-F1594CB0B0D1";
shapes = (
{
closed = 1;
nodes = (
(341,0,ls),
(462,0,o),
(544,78,o),
(544,188,cs),
(544,266,o),
(510,339,o),
(403,367,c),
(498,407,o),
(503,489,o),
(503,526,cs),
(503,629,o),
(440,700,o),
(328,700,cs),
(82,700,l),
(84,482,o),
(84,218,o),
(82,0,c)
);
},
{
closed = 1;
nodes = (
(138,39,o),
(126,42,o),
(117,49,cs),
(108,56,o),
(105,63,o),
(105,193,cs),
(105,323,o),
(108,335,o),
(117,342,cs),
(126,349,o),
(138,350,o),
(234,350,cs),
(336,350,o),
(374,350,o),
(412,338,cs),
(458,323,o),
(522,278,o),
(522,193,cs),
(522,127,o),
(489,77,o),
(433,54,cs),
(403,42,o),
(362,39,o),
(234,39,cs)
);
},
{
closed = 1;
nodes = (
(138,381,o),
(126,382,o),
(117,389,cs),
(108,396,o),
(105,408,o),
(105,521,cs),
(105,634,o),
(108,646,o),
(117,653,cs),
(126,660,o),
(138,661,o),
(234,661,cs),
(336,661,o),
(362,660,o),
(390,653,cs),
(436,641,o),
(481,598,o),
(481,521,cs),
(481,444,o),
(436,401,o),
(390,389,cs),
(362,382,o),
(336,381,o),
(234,381,cs)
);
}
);
width = 589;
}
);
metricLeft = H;
unicode = 66;
},
{
color = 2;
glyphname = "Beta-latin";
lastChange = "2024-01-05 09:59:10 +0000";
layers = (
{
layerId = "60D037D9-62E9-4843-B070-F1594CB0B0D1";
shapes = (
{
closed = 1;
nodes = (
(109,-118,l),
(107,-22,o),
(105,56,o),
(106,152,c),
(87,152,l),
(86,56,o),
(83,-22,o),
(80,-118,c)
);
},
{
ref = B;
}
);
width = 591;
},
{
layerId = m01;
shapes = (
{
closed = 1;
nodes = (
(131,-137,l),
(128,-41,o),
(127,56,o),
(127,152,c),
(60,152,l),
(59,56,o),
(58,-41,o),
(55,-137,c)
);
},
{
ref = B;
}
);
width = 671;
}
);
unicode = 42932;
},
{
color = 2;
glyphname = Bstroke;
lastChange = "2024-01-08 09:51:59 +0000";
layers = (
{
layerId = "60D037D9-62E9-4843-B070-F1594CB0B0D1";
shapes = (
{
ref = B;
},
{
closed = 1;
nodes = (
(92,185,o),
(188,185,o),
(281,182,c),
(281,212,l),
(188,209,o),
(92,209,o),
(-1,212,c),
(-1,182,l)
);
}
);
width = 591;
},
{
layerId = m01;
shapes = (
{
ref = B;
},
{
closed = 1;
nodes = (
(68,264,o),
(154,264,o),
(238,261,c),
(238,313,l),
(154,310,o),
(68,310,o),
(-16,313,c),
(-16,261,l)
);
}
);
width = 660;
}
);
unicode = 579;
},
{
color = 4;
glyphname = C;
lastChange = "2024-01-05 18:55:23 +0000";
layers = (
{
anchors = (
{
name = bottom;
pos = (311,0);
},
{
name = hook;
pos = (578,686);
},
{
name = top;
pos = (342,700);
}
);
background = {
shapes = (
{
ref = O;
}
);
};
layerId = m01;
shapes = (
{
closed = 1;
nodes = (
(431,-10,o),
(521,3,o),
(578,28,c),
(578,270,l),
(532,260,o),
(438,245,o),
(321,245,cs),
(234,245,o),
(176,256,o),
(143,281,cs),
(122,297,o),
(112,320,o),
(112,350,cs),
(112,380,o),
(122,403,o),
(143,419,cs),
(176,444,o),
(234,455,o),
(321,455,cs),
(438,455,o),
(532,440,o),
(578,430,c),
(578,677,l),
(542,689,o),
(456,710,o),
(381,710,cs),
(152,710,o),
(42,597,o),
(42,350,cs),
(42,101,o),
(147,-10,o),
(367,-10,cs)
);
}
);
width = 614;
},
{
anchors = (
{
name = bottom;
pos = (334,0);
},
{
name = hook;
pos = (509,679);
},
{
name = top;
pos = (330,700);
}
);
background = {
shapes = (
{
pos = (-16,0);
ref = O;
}
);
};
layerId = "60D037D9-62E9-4843-B070-F1594CB0B0D1";
shapes = (
{
closed = 1;
nodes = (
(417,-16,o),
(477,-1,o),
(509,13,c),
(509,59,l),
(468,37,o),
(403,21,o),
(345,21,cs),
(278,21,o),
(224,41,o),
(183,75,cs),
(112,134,o),
(78,235,o),
(78,350,cs),
(78,448,o),
(103,536,o),
(154,596,cs),
(198,648,o),
(261,679,o),
(345,679,cs),
(403,679,o),
(468,665,o),
(509,643,c),
(509,690,l),
(477,704,o),
(417,716,o),
(356,716,cs),
(163,716,o),
(55,578,o),
(55,350,cs),
(55,122,o),
(163,-16,o),
(356,-16,cs)
);
}
);
width = 541;
}
);
unicode = 67;
},
{
color = 3;
glyphname = "Chi-latin";
lastChange = "2024-01-08 11:34:18 +0000";
layers = (
{
layerId = "60D037D9-62E9-4843-B070-F1594CB0B0D1";
shapes = (
{
closed = 1;
nodes = (
(552,46,l),
(469,46,o),
(448,41,o),
(425,70,cs),
(383,123,o),
(251,572,o),
(196,658,cs),
(162,710,o),
(107,700,o),
(56,700,c),
(56,654,l),
(139,654,o),
(159,659,o),
(182,630,cs),
(224,577,o),
(356,128,o),
(411,42,cs),
(445,-10,o),
(500,0,o),
(552,0,c)
);
},
{
closed = 1;
nodes = (
(135,0,l),
(255,237,o),
(378,463,o),
(510,700,c),
(473,700,l),
(353,463,o),
(232,237,o),
(99,0,c)
);
}
);
width = 618;
},
{
layerId = m01;
shapes = (
{
closed = 1;
nodes = (
(616,245,l),
(511,245,o),
(424,244,o),
(394,273,cs),
(344,320,o),
(308,571,o),
(226,654,cs),
(182,700,o),
(103,700,o),
(30,700,c),
(30,456,l),
(136,456,o),
(222,457,o),
(253,428,cs),
(302,381,o),
(338,129,o),
(420,46,cs),
(464,0,o),
(543,0,o),
(616,0,c)
);
},
{
closed = 1;
nodes = (
(246,0,l),
(340,237,o),
(467,463,o),
(584,700,c),
(376,700,l),
(280,463,o),
(163,237,o),
(38,0,c)
);
}
);
width = 646;
}
);
metricLeft = A;
metricRight = A;
unicode = 42931;
},
{
color = 4;
glyphname = D;
lastChange = "2024-01-05 18:54:33 +0000";
layers = (
{
anchors = (
{
name = bottom;
pos = (295,0);
},
{
name = center;
pos = (96,350);
},
{
name = hook;
pos = (58,700);
},
{
name = top;
pos = (295,700);
}
);
background = {
shapes = (
{
pos = (-11,0);
ref = B;
}
);
};
layerId = m01;
shapes = (
{
closed = 1;
nodes = (
(345,0,ls),
(444,0,o),
(488,4,o),
(537,48,cs),
(596,101,o),
(621,156,o),
(621,349,cs),
(621,543,o),
(596,594,o),
(537,647,cs),
(488,691,o),
(438,700,o),
(345,700,cs),
(58,700,l),
(62,451,o),
(62,249,o),
(58,0,c)
);
},
{
closed = 1;
nodes = (
(209,235,o),
(178,235,o),
(149,258,cs),
(128,275,o),
(124,293,o),
(124,349,cs),
(124,405,o),
(128,425,o),
(149,442,cs),
(178,465,o),
(209,465,o),
(338,465,cs),
(466,465,o),
(501,465,o),
(529,442,cs),
(549,425,o),
(554,405,o),
(554,349,cs),
(554,293,o),
(550,275,o),
(529,258,cs),
(501,235,o),
(466,235,o),
(338,235,cs)
);
}
);
width = 663;
},
{
anchors = (
{
name = bottom;
pos = (278,0);
},
{
name = center;
pos = (94,350);
},
{
name = hook;
pos = (82,700);
},
{
name = top;
pos = (274,700);
}
);
background = {
shapes = (
{
pos = (-2,0);
ref = B;
}
);
};
layerId = "60D037D9-62E9-4843-B070-F1594CB0B0D1";
shapes = (
{
closed = 1;
nodes = (
(306,0,ls),
(411,0,o),
(478,33,o),
(521,115,cs),
(555,180,o),
(554,264,o),
(554,350,cs),
(554,436,o),
(555,520,o),
(521,585,cs),
(478,667,o),
(411,700,o),
(306,700,cs),
(82,700,l),
(83,437,o),
(83,263,o),
(82,0,c)
);
},
{
closed = 1;
nodes = (
(172,40,o),
(127,43,o),
(116,53,cs),
(106,62,o),
(105,75,o),
(105,350,cs),
(105,634,o),
(108,646,o),
(117,653,cs),
(126,660,o),
(167,661,o),
(296,661,cs),
(419,661,o),
(475,622,o),
(503,566,cs),
(533,506,o),
(532,425,o),
(532,350,cs),
(532,275,o),
(533,198,o),
(503,138,cs),
(475,82,o),
(419,40,o),
(296,40,cs)
);
}
);
width = 623;
}
);
metricLeft = H;
metricRight = O;
unicode = 68;
},
{
color = 2;
glyphname = Eth;
lastChange = "2024-01-08 10:09:58 +0000";
layers = (
{
layerId = "60D037D9-62E9-4843-B070-F1594CB0B0D1";
shapes = (
{
ref = D;
},
{
closed = 1;
nodes = (
(50,335,o),
(142,335,o),
(193,333,c),
(193,364,l),
(142,362,o),
(50,362,o),
(-1,364,c),
(-1,333,l)
);
}
);
width = 625;
},
{
layerId = m01;
shapes = (
{
ref = D;
},
{
closed = 1;
nodes = (
(35,329,o),
(157,329,o),
(217,326,c),
(217,378,l),
(157,375,o),
(35,375,o),
(-26,378,c),
(-26,326,l)
);
}
);
width = 663;
}
);
unicode = 208;
},
{
color = 5;
glyphname = E;
lastChange = "2024-01-05 18:54:33 +0000";
layers = (
{
anchors = (
{
name = bottom;
pos = (289,0);
},
{
name = ogonek;
pos = (478,0);
},
{
name = top;
pos = (289,700);
},
{
name = topleft;
pos = (79,700);
}
);
background = {
shapes = (
{
pos = (-99,0);
ref = I;
}
);
};
layerId = "60D037D9-62E9-4843-B070-F1594CB0B0D1";
shapes = (
{
closed = 1;
nodes = (
(478,0,l),
(478,36,l),
(424,36,o),
(350,36,o),
(272,36,cs),
(134,36,o),
(125,36,o),
(117,42,cs),
(107,50,o),
(105,65,o),
(105,195,cs),
(105,325,o),
(107,340,o),
(117,348,cs),
(125,354,o),
(134,354,o),
(272,354,cs),
(343,354,o),
(405,354,o),
(450,353,c),
(450,386,l),
(405,385,o),
(343,384,o),
(272,384,cs),
(134,384,o),
(125,384,o),
(117,390,cs),
(107,398,o),
(105,413,o),
(105,524,cs),
(105,635,o),
(107,650,o),
(117,658,cs),
(125,664,o),
(134,664,o),
(272,664,cs),
(347,664,o),
(422,664,o),
(470,664,c),
(470,700,l),
(82,700,l),
(84,466,o),
(84,234,o),
(82,0,c)
);
}
);
width = 490;
},
{
anchors = (
{
name = bottom;
pos = (320,0);
},
{
name = ogonek;
pos = (574,0);
},
{
name = top;
pos = (320,700);
},
{
name = topleft;
pos = (58,700);
}
);
background = {
shapes = (
{
pos = (-11,0);
ref = B;
},
{
pos = (19,0);
ref = O;
}
);
};
layerId = m01;
shapes = (
{
closed = 1;
nodes = (
(574,0,l),
(574,249,l),
(564,248,o),
(469,245,o),
(330,245,cs),
(194,245,o),
(157,246,o),
(139,262,cs),
(129,269,o),
(127,279,o),
(127,287,cs),
(127,293,o),
(129,304,o),
(139,313,cs),
(157,326,o),
(194,325,o),
(330,325,cs),
(381,325,o),
(513,324,o),
(534,324,c),
(534,395,l),
(513,394,o),
(381,392,o),
(330,392,cs),
(194,392,o),
(149,393,o),
(135,405,cs),
(129,410,o),
(127,415,o),
(127,423,cs),
(127,431,o),
(129,437,o),
(135,442,cs),
(149,454,o),
(194,455,o),
(330,455,cs),
(468,455,o),
(559,453,o),
(569,452,c),
(572,700,l),
(58,700,l),
(62,451,o),
(62,249,o),
(58,0,c)
);
}
);
width = 614;
}
);
metricLeft = H;
unicode = 69;
},
{
color = 4;
glyphname = Eopen;
lastChange = "2024-01-05 18:30:33 +0000";
layers = (
{
layerId = "60D037D9-62E9-4843-B070-F1594CB0B0D1";
shapes = (
{
closed = 1;
nodes = (
(349,-6,o),
(406,0,o),
(469,19,c),
(469,64,l),
(397,41,o),
(340,33,o),
(291,33,cs),
(204,33,o),
(110,79,o),
(110,185,cs),
(110,280,o),
(185,353,o),
(283,353,cs),
(331,353,o),
(339,352,o),
(415,351,c),
(415,383,l),
(339,382,o),
(331,381,o),
(283,381,cs),
(188,381,o),
(116,447,o),
(116,536,cs),
(116,635,o),
(207,675,o),
(291,675,cs),
(339,675,o),
(396,667,o),
(467,644,c),
(467,689,l),
(405,708,o),
(348,714,o),
(304,714,cs),
(128,714,o),
(92,610,o),
(92,542,cs),
(92,469,o),
(125,429,o),
(141,413,cs),
(167,387,o),
(200,375,o),
(200,367,cs),
(200,359,o),
(166,349,o),
(140,323,cs),
(122,305,o),
(86,262,o),
(86,179,cs),
(86,107,o),
(123,-6,o),
(304,-6,cs)
);
}
);
width = 514;
},
{
layerId = m01;
shapes = (
{
closed = 1;
nodes = (
(334,-7,o),
(407,-4,o),
(500,13,c),
(500,273,l),
(402,247,o),
(321,242,o),
(266,243,cs),
(194,244,o),
(179,270,o),
(179,285,cs),
(179,301,o),
(183,324,o),
(266,324,cs),
(313,324,o),
(369,323,o),
(443,322,c),
(443,389,l),
(369,388,o),
(313,387,o),
(266,387,cs),
(190,387,o),
(179,406,o),
(179,424,cs),
(179,445,o),
(196,457,o),
(266,457,cs),
(321,457,o),
(398,453,o),
(496,427,c),
(496,687,l),
(403,704,o),
(334,707,o),
(294,707,cs),
(141,707,o),
(38,669,o),
(38,532,cs),
(38,475,o),
(61,441,o),
(86,418,cs),
(117,388,o),
(152,375,o),
(152,355,cs),
(152,337,o),
(122,321,o),
(93,293,cs),
(65,267,o),
(38,229,o),
(38,168,cs),
(38,31,o),
(141,-7,o),
(294,-7,cs)
);
}
);
width = 580;
}
);
unicode = 400;
},
{
color = 3;
glyphname = Esh;
lastChange = "2023-12-15 17:46:32 +0000";
layers = (
{
background = {
shapes = (
{
ref = E;
}
);
};
layerId = "60D037D9-62E9-4843-B070-F1594CB0B0D1";
shapes = (
{
closed = 1;
nodes = (
(84,0,l),
(450,0,l),
(450,36,l),
(157,37,o),
(126,29,o),
(115,47,cs),
(108,58,o),
(105,95,o),
(114,113,cs),
(123,130,o),
(173,163,o),
(247,219,cs),
(382,321,o),
(382,321,o),
(382,350,cs),
(382,379,o),
(382,379,o),
(247,481,cs),
(173,537,o),
(123,570,o),
(114,587,cs),
(105,605,o),
(108,642,o),
(115,653,cs),
(126,671,o),
(157,663,o),
(450,664,c),
(450,700,l),
(84,700,l),
(84,567,l),
(351,370,o),
(351,374,o),
(351,350,cs),
(351,326,o),
(351,330,o),
(84,133,c),
(84,0,l)
);
}
);
width = 500;
},
{
background = {
shapes = (
{
angle = 90;
pos = (567,-78);
ref = M;
}
);
};
layerId = m01;
shapes = (
{
closed = 1;
nodes = (
(42,0,l),
(546,0,l),
(546,250,l),
(431,247,o),
(246,241,o),
(238,248,c),
(230,252,o),
(233,270,o),
(237,275,cs),
(243,283,o),
(261,293,o),
(308,317,cs),
(341,334,o),
(341,335,o),
(341,350,cs),
(341,364,o),
(341,365,o),
(308,382,cs),
(266,403,o),
(248,414,o),
(239,421,cs),
(232,428,o),
(229,446,o),
(240,451,cs),
(261,459,o),
(431,453,o),
(546,450,c),
(551,700,l),
(42,700,l),
(42,442,l),
(246,372,o),
(246,372,o),
(246,350,cs),
(246,328,o),
(246,328,o),
(42,258,c),
(42,0,l)
);
}
);
width = 593;
}
);
unicode = 425;
},
{
color = 2;
glyphname = Schwa;
lastChange = "2024-01-05 00:47:46 +0000";
layers = (
{
layerId = "60D037D9-62E9-4843-B070-F1594CB0B0D1";
shapes = (
{
closed = 1;
nodes = (
(472,-16,o),
(570,115,o),
(570,360,cs),
(570,568,o),
(476,708,o),
(249,708,cs),
(190,708,o),
(124,697,o),
(53,673,c),
(53,629,l),
(107,652,o),
(192,673,o),
(243,673,cs),
(432,673,o),
(522,573,o),
(547,394,c),
(22,394,l),
(22,137,o),
(88,-16,o),
(296,-16,cs)
);
},
{
closed = 1;
nodes = (
(144,24,o),
(47,141,o),
(47,364,c),
(547,364,l),
(547,141,o),
(459,24,o),
(296,24,cs)
);
}
);
width = 600;
},
{
layerId = m01;
shapes = (
{
closed = 1;
nodes = (
(492,-10,o),
(599,124,o),
(599,346,cs),
(599,592,o),
(496,705,o),
(233,705,cs),
(144,705,o),
(99,695,o),
(48,679,c),
(48,411,l),
(148,446,o),
(214,456,o),
(292,456,cs),
(420,456,o),
(493,428,o),
(515,374,c),
(32,374,l),
(32,87,o),
(108,-10,o),
(315,-10,cs)
);
},
{
closed = 1;
nodes = (
(198,218,o),
(119,266,o),
(116,304,c),
(510,304,l),
(506,266,o),
(426,218,o),
(315,218,cs)
);
}
);
width = 630;
}
);
unicode = 399;
},
{
color = 4;
glyphname = Ezh;
lastChange = "2024-01-05 18:32:56 +0000";
layers = (
{
anchors = (
{
name = top;
pos = (260,700);
}
);
background = {
shapes = (
{
pos = (-13,708);
ref = two;
scale = (1,-1);
}
);
};
layerId = "60D037D9-62E9-4843-B070-F1594CB0B0D1";
shapes = (
{
closed = 1;
nodes = (
(339,-7,o),
(460,56,o),
(460,201,cs),
(460,317,o),
(399,371,o),
(326,395,cs),
(292,406,o),
(246,414,o),
(215,413,c),
(293,476,o),
(344,510,o),
(426,571,c),
(426,700,l),
(60,700,l),
(60,667,l),
(387,667,o),
(393,668,o),
(400,656,cs),
(404,650,o),
(403,634,o),
(403,622,cs),
(403,595,o),
(403,590,o),
(395,584,cs),
(337,536,o),
(243,469,o),
(184,427,c),
(184,389,l),
(208,389,o),
(218,389,o),
(249,385,cs),
(327,375,o),
(432,339,o),
(432,210,cs),
(432,73,o),
(309,32,o),
(231,32,cs),
(166,32,o),
(100,57,o),
(63,75,c),
(63,30,l),
(156,-6,o),
(194,-7,o),
(234,-7,cs)
);
}
);
width = 509;
},
{
anchors = (
{
name = top;
pos = (302,700);
}
);
layerId = m01;
shapes = (
{
closed = 1;
nodes = (
(439,-7,o),
(542,31,o),
(542,168,cs),
(542,266,o),
(507,327,o),
(433,359,cs),
(397,375,o),
(343,381,o),
(312,380,c),
(386,405,o),
(421,420,o),
(515,443,c),
(515,700,l),
(73,700,l),
(73,450,l),
(188,453,o),
(312,457,o),
(321,453,cs),
(324,452,o),
(325,450,o),
(325,445,cs),
(325,440,o),
(324,437,o),
(320,435,cs),
(306,426,o),
(214,396,o),
(187,392,c),
(187,341,l),
(254,340,o),
(287,340,o),
(318,336,cs),
(396,326,o),
(401,301,o),
(401,285,cs),
(401,270,o),
(387,246,o),
(314,243,cs),
(259,241,o),
(160,244,o),
(62,273,c),
(62,13,l),
(155,-4,o),
(246,-7,o),
(286,-7,cs)
);
}
);
width = 600;
}
);
unicode = 439;
},
{
color = 4;
glyphname = F;
lastChange = "2024-01-05 18:54:33 +0000";
layers = (
{
anchors = (
{
name = bottom;
pos = (314,0);
},
{
name = top;
pos = (314,700);
}
);
background = {
shapes = (
{
ref = E;
}
);
};
layerId = m01;
shapes = (
{
closed = 1;
nodes = (
(143,0,l),
(131,208,o),
(128,247,o),
(145,268,cs),
(162,288,o),
(183,295,o),
(299,295,cs),
(335,295,o),
(516,293,o),
(538,292,c),
(538,363,l),
(516,362,o),
(335,360,o),
(299,360,cs),
(177,360,o),
(152,369,o),
(139,380,cs),
(132,386,o),
(128,397,o),
(128,408,cs),
(128,418,o),
(132,429,o),
(139,435,cs),
(152,446,o),
(177,455,o),
(299,455,cs),
(330,455,o),
(424,455,o),
(562,452,c),
(565,699,l),
(58,701,l),
(62,452,o),
(62,249,o),
(58,0,c)
);
}
);
width = 612;
},
{
anchors = (
{
name = bottom;
pos = (308,0);
},
{
name = top;
pos = (308,700);
}
);
background = {
shapes = (
{
pos = (-2,0);
ref = E;
}
);
};
layerId = "60D037D9-62E9-4843-B070-F1594CB0B0D1";
shapes = (
{
closed = 1;
nodes = (
(112,0,l),
(104,310,o),
(107,325,o),
(117,333,cs),
(125,339,o),
(134,342,o),
(273,342,cs),
(380,342,o),
(400,342,o),
(446,341,c),
(446,375,l),
(400,374,o),
(380,374,o),
(273,374,cs),
(134,374,o),
(125,374,o),
(117,380,cs),
(107,388,o),
(105,403,o),
(105,519,cs),
(105,635,o),
(107,650,o),
(117,658,cs),
(125,664,o),
(134,664,o),
(273,664,cs),
(351,664,o),
(410,664,o),
(461,664,c),
(461,700,l),
(82,700,l),
(84,466,o),
(84,234,o),
(82,0,c)
);
}
);
width = 514;
}
);
metricLeft = H;
unicode = 70;
},
{
color = 4;
glyphname = Fhook;
lastChange = "2024-01-05 18:52:09 +0000";
layers = (
{
anchors = (
{
name = bottom;
pos = (353,0);
},
{
name = top;
pos = (353,700);
}
);
layerId = "60D037D9-62E9-4843-B070-F1594CB0B0D1";
shapes = (
{
closed = 1;
nodes = (
(125,-248,o),
(154,-128,o),
(154,-66,cs),
(154,311,o),
(152,325,o),
(162,333,cs),
(170,339,o),
(179,342,o),
(318,342,cs),
(425,342,o),
(445,342,o),
(491,341,c),
(491,375,l),
(445,374,o),
(425,374,o),
(318,374,cs),
(179,374,o),
(170,374,o),
(162,380,cs),
(152,388,o),
(150,403,o),
(150,519,cs),
(150,635,o),
(152,650,o),
(162,658,cs),
(170,664,o),
(179,664,o),
(318,664,cs),
(506,664,l),
(506,700,l),
(127,700,l),
(129,491,o),
(132,283,o),
(130,57,cs),
(129,-63,o),
(140,-136,o),
(62,-160,cs),
(19,-173,o),
(-34,-158,o),
(-62,-142,c),
(-62,-184,l)
);
}
);
width = 559;
},
{
anchors = (
{
name = bottom;
pos = (370,0);
},
{
name = top;
pos = (370,700);
}
);
layerId = m01;
shapes = (
{
closed = 1;
nodes = (
(165,-232,o),
(198,-174,o),
(192,31,cs),
(187,212,o),
(185,248,o),
(201,268,cs),
(218,288,o),
(239,295,o),
(355,295,cs),
(391,295,o),
(572,293,o),
(594,292,c),
(594,363,l),
(572,362,o),
(391,360,o),
(355,360,cs),
(233,360,o),
(208,369,o),
(195,380,cs),
(188,386,o),
(184,397,o),
(184,408,cs),
(184,418,o),
(188,429,o),
(195,435,cs),
(208,446,o),
(233,456,o),
(355,455,cs),
(618,452,l),
(621,699,l),
(114,701,l),
(118,472,o),
(118,283,o),
(115,60,cs),
(114,36,o),
(113,-7,o),
(90,-24,cs),
(66,-42,o),
(31,-47,o),
(-46,-31,c),
(-46,-206,l)
);
}
);
width = 668;
}
);
metricLeft = j;
metricRight = F;
unicode = 401;
},
{
color = 4;
glyphname = G;
lastChange = "2024-01-05 18:58:25 +0000";
layers = (
{
anchors = (
{
name = bottom;
pos = (354,0);
},
{
name = hook;
pos = (592,677);
},
{
name = top;
pos = (357,700);
}
);
background = {
shapes = (
{
ref = C;
}
);
};
layerId = m01;
shapes = (
{
closed = 1;
nodes = (
(461,-10,o),
(550,1,o),
(591,30,c),
(593,143,o),
(597,254,o),
(603,364,c),
(519,364,l),
(522,341,o),
(526,286,o),
(526,260,c),
(483,253,o),
(391,245,o),
(306,245,cs),
(234,245,o),
(176,256,o),
(143,281,cs),
(122,297,o),
(112,320,o),
(112,350,cs),
(112,380,o),
(122,403,o),
(143,419,cs),
(176,444,o),
(234,455,o),
(306,455,cs),
(434,455,o),
(546,440,o),
(592,430,c),
(592,680,l),
(556,692,o),
(470,710,o),
(397,710,cs),
(154,710,o),
(42,597,o),
(42,350,cs),
(42,103,o),
(138,-10,o),
(394,-10,cs)
);
}
);
width = 645;
},
{
anchors = (
{
name = bottom;
pos = (323,0);
},
{
name = hook;
pos = (520,680);
},
{
name = top;
pos = (332,700);
}
);
background = {
shapes = (
{
pos = (1,0);
ref = C;
}
);
};
layerId = "60D037D9-62E9-4843-B070-F1594CB0B0D1";
shapes = (
{
closed = 1;
nodes = (
(413,-16,o),
(494,0,o),
(528,18,c),
(528,188,o),
(529,245,o),
(531,287,c),
(492,287,l),
(497,246,o),
(501,106,o),
(499,48,c),
(474,33,o),
(405,21,o),
(352,21,cs),
(279,21,o),
(220,44,o),
(176,84,cs),
(111,142,o),
(78,235,o),
(78,350,cs),
(78,463,o),
(110,549,o),
(164,605,cs),
(211,652,o),
(275,679,o),
(350,679,cs),
(404,679,o),
(460,665,o),
(520,638,c),
(520,688,l),
(471,706,o),
(412,716,o),
(362,716,cs),
(175,716,o),
(55,575,o),
(55,350,cs),
(55,130,o),
(169,-16,o),
(353,-16,cs)
);
}
);
width = 600;
}
);
metricLeft = C;
metricRight = O;
unicode = 71;
},
{
color = 2;
glyphname = Glottalstop;
lastChange = "2024-01-05 18:29:45 +0000";
layers = (
{
background = {
shapes = (
{
pos = (614,0);
ref = G;
scale = (-1,1);
}
);
};
layerId = "60D037D9-62E9-4843-B070-F1594CB0B0D1";
shapes = (
{
closed = 1;
nodes = (
(209,210,o),
(190,217,o),
(153,227,c),
(153,78,o),
(152,40,o),
(150,0,c),
(189,0,l),
(185,36,o),
(181,111,o),
(182,177,c),
(204,174,o),
(235,171,o),
(282,171,cs),
(471,172,o),
(536,314,o),
(535,447,cs),
(534,606,o),
(445,716,o),
(238,716,cs),
(188,716,o),
(129,703,o),
(80,691,c),
(80,638,l),
(140,663,o),
(209,679,o),
(263,679,cs),
(327,679,o),
(386,665,o),
(432,631,cs),
(485,591,o),
(515,525,o),
(515,443,cs),
(515,361,o),
(485,295,o),
(432,255,cs),
(386,221,o),
(320,210,o),
(263,210,cs)
);
}
);
width = 604;
},
{
layerId = m01;
shapes = (
{
closed = 1;
nodes = (
(298,245,o),
(199,252,o),
(153,262,c),
(156,186,o),
(155,33,o),
(153,0,c),
(237,0,l),
(234,20,o),
(234,62,o),
(233,89,c),
(273,86,o),
(318,83,o),
(357,83,cs),
(510,83,o),
(603,205,o),
(603,406,cs),
(603,597,o),
(491,710,o),
(248,710,cs),
(175,710,o),
(89,692,o),
(53,680,c),
(53,430,l),
(99,440,o),
(211,455,o),
(339,455,cs),
(411,455,o),
(469,444,o),
(502,419,cs),
(523,403,o),
(533,380,o),
(533,350,cs),
(533,320,o),
(523,297,o),
(502,281,cs),
(469,256,o),
(425,245,o),
(365,245,cs)
);
}
);
width = 645;
}
);
metricRight = G;
unicode = 577;
},
{
color = 2;
glyphname = Gstroke;
lastChange = "2024-01-08 10:10:40 +0000";
layers = (
{
layerId = "60D037D9-62E9-4843-B070-F1594CB0B0D1";
shapes = (
{
ref = G;
},
{
closed = 1;
nodes = (
(482,162,o),
(574,162,o),
(625,160,c),
(625,191,l),
(574,189,o),
(482,189,o),
(431,191,c),
(431,160,l)
);
}
);
width = 614;
},
{
layerId = m01;
shapes = (
{
ref = G;
},
{
closed = 1;
nodes = (
(503,284,o),
(625,284,o),
(685,281,c),
(685,333,l),
(625,330,o),
(503,330,o),
(442,333,c),
(442,281,l)
);
}
);
width = 645;
}
);
unicode = 484;
},
{
color = 2;
glyphname = H;
lastChange = "2024-01-05 18:54:12 +0000";
layers = (
{
anchors = (
{
name = bottom;
pos = (347,0);
},
{
name = center;
pos = (347,588);
},
{
name = hook;
pos = (58,700);
},
{
name = top;
pos = (347,700);
},
{
name = topleft;
pos = (58,700);
}
);
background = {
shapes = (
{
ref = O;
}
);
};
layerId = m01;
shapes = (
{
closed = 1;
nodes = (
(142,0,l),
(139,69,o),
(139,83,o),
(139,121,cs),
(139,214,o),
(152,222,o),
(347,222,cs),
(542,222,o),
(555,214,o),
(555,121,cs),
(555,83,o),
(555,69,o),
(552,0,c),
(636,0,l),
(627,249,o),
(627,451,o),
(636,700,c),
(554,700,l),
(555,621,o),
(557,593,o),
(557,563,cs),
(557,514,o),
(544,510,o),
(347,510,cs),
(150,510,o),
(137,514,o),
(137,563,cs),
(137,593,o),
(139,621,o),
(140,700,c),
(58,700,l),
(67,451,o),
(67,249,o),
(58,0,c)
);
}
);
width = 694;
},
{
anchors = (
{
name = bottom;
pos = (321,0);
},
{
name = center;
pos = (321,519);
},
{
name = hook;
pos = (82,700);
},
{
name = top;
pos = (321,700);
},
{
name = topleft;
pos = (82,700);
}
);
background = {
shapes = (
{
pos = (3,0);
ref = O;
},
{
pos = (5,0);
ref = E;
}
);
};
layerId = "60D037D9-62E9-4843-B070-F1594CB0B0D1";
shapes = (
{
closed = 1;
nodes = (
(114,0,l),
(109,81,o),
(110,133,o),
(110,319,cs),
(110,350,o),
(122,350,o),
(321,350,cs),
(520,350,o),
(532,350,o),
(532,319,cs),
(532,133,o),
(533,81,o),
(528,0,c),
(560,0,l),
(552,233,o),
(552,467,o),
(560,700,c),
(528,700,l),
(532,600,o),
(531,519,o),
(532,419,cs),
(532,388,o),
(520,388,o),
(321,388,cs),
(122,388,o),
(110,388,o),
(110,419,cs),
(111,519,o),
(110,600,o),
(114,700,c),
(82,700,l),
(90,467,o),
(90,233,o),
(82,0,c)
);
}
);
width = 642;
}
);
unicode = 72;
},
{
color = 2;
glyphname = Hbar;
lastChange = "2024-01-08 10:11:05 +0000";
layers = (
{
layerId = "60D037D9-62E9-4843-B070-F1594CB0B0D1";
shapes = (
{
ref = H;
},
{
closed = 1;
nodes = (
(192,552,o),
(454,552,o),
(599,550,c),
(599,581,l),
(454,579,o),
(192,579,o),
(47,581,c),
(47,550,l)
);
}
);
width = 646;
},
{
layerId = m01;
shapes = (
{
ref = H;
},
{
closed = 1;
nodes = (
(236,574,o),
(461,574,o),
(680,571,c),
(680,623,l),
(461,620,o),
(236,620,o),
(14,623,c),
(14,571,l)
);
}
);
width = 694;
}
);
unicode = 294;
},
{
color = 2;
glyphname = Heng;
lastChange = "2024-01-05 18:29:35 +0000";
layers = (
{
layerId = "60D037D9-62E9-4843-B070-F1594CB0B0D1";
shapes = (
{
ref = H;
},
{
closed = 1;
nodes = (
(-76,-124,o),
(-55,-131,o),
(-35,-134,cs),
(47,-149,o),
(107,-117,o),
(115,-22,cs),
(117,-3,o),
(115,21,o),
(113,50,c),
(86,49,l),
(84,-13,o),
(83,-33,o),
(77,-48,cs),
(68,-72,o),
(56,-85,o),
(39,-93,cs),
(-4,-114,o),
(-65,-91,o),
(-93,-75,c),
(-93,-117,l)
);
}
);
width = 646;
},
{
layerId = m01;
shapes = (
{
ref = H;
},
{
closed = 1;
nodes = (
(-88,-240,o),
(-56,-242,o),
(-34,-242,cs),
(109,-242,o),
(148,-200,o),
(143,-22,cs),
(141,50,o),
(136,66,o),
(134,155,c),
(63,155,l),
(62,137,o),
(63,96,o),
(58,3,cs),
(56,-36,o),
(50,-60,o),
(-18,-60,cs),
(-73,-60,o),
(-105,-49,o),
(-126,-43,c),
(-126,-230,l)
);
}
);
width = 694;
}
);
unicode = 42790;
},
{
color = 4;
glyphname = Hturned;
lastChange = "2024-01-03 11:13:36 +0000";
layers = (
{
anchors = (
{
name = bottom;
pos = (325,0);
},
{
name = center;
pos = (325,519);
},
{
name = top;
pos = (325,700);
},
{
name = topleft;
pos = (44,700);
}
);
background = {
shapes = (
{
pos = (2,0);
ref = H;
}
);
};
layerId = "60D037D9-62E9-4843-B070-F1594CB0B0D1";
shapes = (
{
closed = 1;
nodes = (
(489,350,o),
(505,349,o),
(523,342,cs),
(535,337,o),
(536,330,o),
(536,319,cs),
(536,133,o),
(537,81,o),
(532,0,c),
(564,0,l),
(556,233,o),
(556,467,o),
(564,700,c),
(532,700,l),
(536,600,o),
(535,519,o),
(536,419,cs),
(536,388,o),
(524,388,o),
(325,388,cs),
(126,388,o),
(114,388,o),
(114,419,cs),
(115,519,o),
(114,600,o),
(118,700,c),
(86,700,l),
(90,582,o),
(92,469,o),
(92,350,c)
);
}
);
width = 658;
},
{
anchors = (
{
name = bottom;
pos = (325,0);
},
{
name = center;
pos = (325,588);
},
{
name = top;
pos = (325,700);
},
{
name = topleft;
pos = (-11,700);
}
);
background = {
shapes = (
{
pos = (-22,0);
ref = H;
}
);
};
layerId = m01;
shapes = (
{
closed = 1;
nodes = (
(348,221,o),
(463,229,o),
(507,204,cs),
(531,191,o),
(533,153,o),
(533,135,cs),
(533,97,o),
(533,69,o),
(530,0,c),
(614,0,l),
(605,249,o),
(605,451,o),
(614,700,c),
(532,700,l),
(533,621,o),
(535,593,o),
(535,563,cs),
(535,514,o),
(522,510,o),
(325,510,cs),
(128,510,o),
(115,514,o),
(115,563,cs),
(115,593,o),
(117,621,o),
(118,700,c),
(36,700,l),
(42,527,o),
(44,377,o),
(42,218,c)
);
}
);
width = 664;
}
);
metricLeft = "=|h";
metricRight = "=|h";
unicode = 42893;
},
{
color = 4;
glyphname = I;
lastChange = "2024-01-05 18:21:27 +0000";
layers = (
{
anchors = (
{
name = bottom;
pos = (253,0);
},
{
name = ogonek;
pos = (329,0);
},
{
name = top;
pos = (253,700);
},
{
name = topleft;
pos = (58,700);
}
);
background = {
shapes = (
{
pos = (-94,0);
ref = O;
}
);
};
layerId = m01;
shapes = (
{
closed = 1;
nodes = (
(445,0,l),
(445,245,l),
(356,243,o),
(325,245,o),
(309,256,cs),
(289,269,o),
(285,284,o),
(285,350,cs),
(285,416,o),
(289,431,o),
(309,444,cs),
(325,455,o),
(356,457,o),
(445,455,c),
(445,700,l),
(58,700,l),
(58,455,l),
(147,457,o),
(178,455,o),
(194,444,cs),
(214,431,o),
(218,416,o),
(218,350,cs),
(218,284,o),
(214,269,o),
(194,256,cs),
(178,245,o),
(147,243,o),
(58,245,c),
(58,0,l)
);
}
);
width = 503;
},
{
anchors = (
{
name = bottom;
pos = (141,0);
},
{
name = ogonek;
pos = (189,0);
},
{
name = top;
pos = (141,700);
},
{
name = topleft;
pos = (20,700);
}
);
background = {
shapes = (
{
pos = (-94,0);
ref = one;
}
);
};
layerId = "60D037D9-62E9-4843-B070-F1594CB0B0D1";
shapes = (
{
closed = 1;
nodes = (
(261,0,l),
(261,36,l),
(180,36,o),
(171,36,o),
(163,42,cs),
(153,50,o),
(152,65,o),
(152,350,cs),
(152,635,o),
(154,650,o),
(164,658,cs),
(172,664,o),
(181,664,o),
(262,664,c),
(262,700,l),
(20,700,l),
(20,664,l),
(101,664,o),
(110,664,o),
(118,658,cs),
(128,650,o),
(130,635,o),
(130,350,cs),
(130,65,o),
(128,50,o),
(118,42,cs),
(110,36,o),
(101,36,o),
(20,36,c),
(20,0,l)
);
}
);
width = 282;
}
);
unicode = 73;
},
{
color = 2;
glyphname = "Iota-latin";
lastChange = "2024-01-05 18:29:35 +0000";
layers = (
{
anchors = (
{
name = bottom;
pos = (172,0);
},
{
name = center;
pos = (179,368);
},
{
name = top;
pos = (172,739);
},
{
name = topright;
pos = (361,739);
}
);
layerId = "60D037D9-62E9-4843-B070-F1594CB0B0D1";
shapes = (
{
closed = 1;
nodes = (
(135,700,l),
(20,700,l),
(20,667,l),
(85,667,o),
(93,667,o),
(101,661,cs),
(111,653,o),
(113,646,o),
(113,126,cs),
(113,61,o),
(136,26,o),
(165,9,cs),
(210,-18,o),
(269,-6,o),
(289,-2,c),
(289,39,l),
(265,32,o),
(224,25,o),
(189,36,cs),
(155,47,o),
(143,78,o),
(140,94,cs),
(134,121,o),
(134,254,o),
(135,366,c)
);
}
);
width = 309;
},
{
anchors = (
{
name = bottom;
pos = (199,0);
},
{
name = center;
pos = (219,324);
},
{
name = top;
pos = (199,741);
},
{
name = topright;
pos = (361,738);
}
);
layerId = m01;
shapes = (
{
closed = 1;
nodes = (
(258,700,l),
(58,700,l),
(58,455,l),
(149,455,o),
(166,455,o),
(176,448,cs),
(190,438,o),
(190,409,o),
(190,350,cs),
(190,197,o),
(187,117,o),
(214,67,cs),
(251,-1,o),
(316,-15,o),
(428,-5,c),
(428,253,l),
(390,237,o),
(352,230,o),
(321,233,cs),
(295,236,o),
(277,247,o),
(269,263,cs),
(257,286,o),
(256,279,o),
(256,491,c)
);
}
);
width = 486;
}
);
metricLeft = I;
metricRight = I;
unicode = 406;
},
{
color = 2;
glyphname = Istroke;
lastChange = "2024-01-08 10:12:12 +0000";
layers = (
{
layerId = "60D037D9-62E9-4843-B070-F1594CB0B0D1";
shapes = (
{
ref = I;
},
{
closed = 1;
nodes = (
(156,338,o),
(248,338,o),
(299,336,c),
(299,365,l),
(248,363,o),
(156,363,o),
(105,365,c),
(105,336,l)
);
}
);
width = 410;
},
{
layerId = m01;
shapes = (
{
ref = I;
},
{
closed = 1;
nodes = (
(222,325,o),
(284,325,o),
(344,322,c),
(344,374,l),
(284,371,o),
(222,371,o),
(161,374,c),
(161,322,l)
);
}
);
width = 503;
}
);
unicode = 407;
},
{
color = 4;
glyphname = J;
lastChange = "2024-01-05 18:58:02 +0000";
layers = (
{
anchors = (
{
name = bottom;
pos = (243,0);
},
{
name = top;
pos = (306,700);
}
);
background = {
shapes = (
{
pos = (76,0);
ref = I;
}
);
};
layerId = m01;
shapes = (
{
closed = 1;
nodes = (
(295,-8,o),
(347,43,o),
(347,190,cs),
(347,350,ls),
(347,419,o),
(351,432,o),
(371,445,cs),
(387,456,o),
(418,458,o),
(507,456,c),
(507,700,l),
(118,700,l),
(118,456,l),
(207,458,o),
(238,456,o),
(254,445,cs),
(274,432,o),
(278,419,o),
(278,350,cs),
(278,271,o),
(283,223,o),
(192,223,cs),
(144,223,o),
(85,236,o),
(36,252,c),
(36,5,l),
(63,-1,o),
(131,-8,o),
(193,-8,cs)
);
}
);
width = 517;
},
{
anchors = (
{
name = bottom;
pos = (257,0);
},
{
name = top;
pos = (280,700);
}
);
background = {
shapes = (
{
pos = (87,0);
ref = I;
}
);
};
layerId = "60D037D9-62E9-4843-B070-F1594CB0B0D1";
shapes = (
{
closed = 1;
nodes = (
(273,-16,o),
(296,43,o),
(296,148,cs),
(296,259,ls),
(296,635,o),
(298,650,o),
(308,658,cs),
(316,664,o),
(325,664,o),
(406,664,c),
(406,700,l),
(159,700,l),
(159,664,l),
(240,664,o),
(249,664,o),
(257,658,cs),
(267,650,o),
(274,635,o),
(274,259,cs),
(274,69,o),
(273,21,o),
(176,21,cs),
(142,21,o),
(109,29,o),
(69,51,c),
(69,8,l),
(94,-5,o),
(141,-16,o),
(167,-16,cs)
);
}
);
width = 462;
}
);
unicode = 74;
},
{
color = 2;
glyphname = Jcrossedtail;
lastChange = "2024-01-08 10:12:44 +0000";
layers = (
{
layerId = "60D037D9-62E9-4843-B070-F1594CB0B0D1";
shapes = (
{
closed = 1;
nodes = (
(273,-16,o),
(296,43,o),
(296,148,cs),
(296,259,ls),
(296,635,o),
(298,650,o),
(308,658,cs),
(316,664,o),
(325,664,o),
(406,664,c),
(406,700,l),
(159,700,l),
(159,664,l),
(240,664,o),
(249,664,o),
(257,658,cs),
(267,650,o),
(274,635,o),
(274,259,cs),
(274,69,o),
(273,21,o),
(176,21,cs),
(161,21,o),
(111,32,o),
(101,69,cs),
(90,109,o),
(111,141,o),
(141,154,cs),
(201,179,o),
(281,169,o),
(338,169,c),
(338,195,l),
(281,197,o),
(179,201,o),
(136,182,cs),
(77,156,o),
(65,109,o),
(74,60,cs),
(87,-9,o),
(157,-16,o),
(167,-16,cs)
);
}
);
width = 475;
},
{
layerId = m01;
shapes = (
{
closed = 1;
nodes = (
(301,-10,o),
(353,43,o),
(353,190,cs),
(353,350,ls),
(353,419,o),
(357,432,o),
(377,445,cs),
(393,456,o),
(424,458,o),
(513,456,c),
(513,700,l),
(124,700,l),
(124,456,l),
(213,458,o),
(244,456,o),
(260,445,cs),
(280,432,o),
(284,419,o),
(284,350,cs),
(284,271,o),
(289,223,o),
(198,223,cs),
(182,223,o),
(144,224,o),
(131,244,cs),
(116,267,o),
(128,280,o),
(140,290,cs),
(191,334,o),
(377,326,o),
(432,327,c),
(432,379,l),
(365,383,o),
(256,385,o),
(202,379,cs),
(75,365,o),
(-45,284,o),
(4,107,cs),
(27,24,o),
(114,-6,o),
(199,-8,cs)
);
}
);
width = 549;
}
);
metricRight = "=|J";
unicode = 42930;
},
{
color = 2;
glyphname = Jstroke;
lastChange = "2024-01-08 10:11:52 +0000";
layers = (
{
layerId = "60D037D9-62E9-4843-B070-F1594CB0B0D1";
shapes = (
{
ref = J;
},
{
closed = 1;
nodes = (
(242,335,o),
(334,335,o),
(385,333,c),
(385,364,l),
(334,362,o),
(242,362,o),
(191,364,c),
(191,333,l)
);
}
);
width = 462;
},
{
layerId = m01;
shapes = (
{
ref = J;
},
{
closed = 1;
nodes = (
(290,316,o),
(352,316,o),
(412,313,c),
(412,365,l),
(352,362,o),
(290,362,o),
(229,365,c),
(229,313,l)
);
}
);
width = 495;
}
);
unicode = 584;
},
{
color = 4;
glyphname = K;
lastChange = "2024-01-05 18:54:33 +0000";
layers = (
{
anchors = (
{
name = bottom;
pos = (281,0);
},
{
name = top;
pos = (281,700);
}
);
background = {
shapes = (
{
closed = 1;
nodes = (
(522,-4,o),
(546,-5,o),
(557,-6,c),
(557,32,l),
(544,32,o),
(495,39,o),
(451,77,cs),
(405,117,o),
(369,187,o),
(353,311,c),
(427,314,o),
(433,470,o),
(504,700,c),
(471,700,l),
(433,587,o),
(414,524,o),
(374,444,cs),
(335,366,o),
(303,346,o),
(209,346,cs),
(129,346,o),
(122,346,o),
(115,351,cs),
(108,356,o),
(108,366,o),
(108,401,cs),
(108,455,o),
(109,513,o),
(110,701,c),
(82,701,l),
(85,366,o),
(85,84,o),
(82,0,c),
(110,0,l),
(108,77,o),
(107,235,o),
(107,252,cs),
(107,290,o),
(107,301,o),
(115,306,cs),
(122,311,o),
(187,311,o),
(329,311,c),
(341,227,o),
(359,158,o),
(383,116,cs),
(416,58,o),
(453,30,o),
(479,17,cs)
);
}
);
};
layerId = "60D037D9-62E9-4843-B070-F1594CB0B0D1";
shapes = (
{
closed = 1;
nodes = (
(522,-4,o),
(546,-5,o),
(557,-6,c),
(557,32,l),
(544,32,o),
(495,39,o),
(451,77,cs),
(405,117,o),
(361,199,o),
(345,322,c),
(382,346,o),
(407,377,o),
(503,700,c),
(472,700,l),
(442,587,o),
(423,525,o),
(393,444,cs),
(361,358,o),
(341,362,o),
(328,359,cs),
(319,357,o),
(257,357,o),
(209,357,cs),
(129,357,o),
(122,357,o),
(115,362,cs),
(108,367,o),
(108,377,o),
(108,412,cs),
(108,466,o),
(109,513,o),
(110,701,c),
(82,701,l),
(85,366,o),
(85,84,o),
(82,0,c),
(110,0,l),
(108,77,o),
(107,246,o),
(107,263,cs),
(107,301,o),
(107,312,o),
(115,317,cs),
(122,322,o),
(127,322,o),
(319,322,c),
(331,238,o),
(359,158,o),
(383,116,cs),
(416,58,o),
(453,30,o),
(479,17,cs)
);
}
);
width = 565;
},
{
anchors = (
{
name = bottom;
pos = (308,0);
},
{
name = top;
pos = (308,700);
}
);
background = {
shapes = (
{
ref = R;
}
);
};
layerId = m01;
shapes = (
{
closed = 1;
nodes = (
(529,-8,o),
(612,1,o),
(637,13,c),
(637,275,l),
(610,250,o),
(521,215,o),
(440,215,cs),
(364,215,o),
(322,242,o),
(307,270,c),
(546,274,o),
(589,298,o),
(624,700,c),
(535,700,l),
(535,626,o),
(536,617,o),
(532,560,cs),
(530,536,o),
(528,519,o),
(514,508,cs),
(493,492,o),
(446,488,o),
(334,488,cs),
(219,488,o),
(172,491,o),
(152,507,cs),
(139,518,o),
(138,535,o),
(139,560,cs),
(140,602,o),
(142,645,o),
(143,700,c),
(61,701,l),
(65,233,o),
(62,117,o),
(58,0,c),
(141,0,l),
(139,36,o),
(137,118,o),
(137,152,cs),
(137,170,o),
(135,208,o),
(143,228,cs),
(159,266,o),
(205,269,o),
(238,268,c),
(239,185,o),
(266,105,o),
(324,52,cs),
(365,15,o),
(422,-8,o),
(496,-8,cs)
);
}
);
width = 661;
}
);
metricLeft = H;
unicode = 75;
},
{
color = 2;
glyphname = Khook;
lastChange = "2024-01-05 18:29:35 +0000";
layers = (
{
anchors = (
{
name = bottom;
pos = (283,0);
},
{
name = top;
pos = (283,700);
}
);
layerId = "60D037D9-62E9-4843-B070-F1594CB0B0D1";
shapes = (
{
closed = 1;
nodes = (
(587,707,l),
(507,717,o),
(476,688,o),
(453,620,c),
(431,542,o),
(425,525,o),
(395,444,cs),
(363,358,o),
(343,362,o),
(330,359,cs),
(321,357,o),
(259,357,o),
(211,357,cs),
(131,357,o),
(124,357,o),
(117,362,cs),
(110,367,o),
(110,378,o),
(112,701,c),
(84,701,l),
(87,366,o),
(87,84,o),
(84,0,c),
(112,0,l),
(110,77,o),
(109,246,o),
(109,263,cs),
(109,301,o),
(109,312,o),
(117,317,cs),
(124,322,o),
(129,322,o),
(321,322,c),
(333,238,o),
(361,158,o),
(385,116,cs),
(418,58,o),
(455,30,o),
(481,17,cs),
(524,-4,o),
(548,-5,o),
(559,-6,c),
(559,32,l),
(546,32,o),
(497,39,o),
(453,77,cs),
(407,117,o),
(363,199,o),
(347,322,c),
(382,345,o),
(396,341,o),
(480,616,c),
(496,660,o),
(521,676,o),
(587,661,c)
);
}
);
width = 567;
},
{
anchors = (
{
name = bottom;
pos = (308,0);
},
{
name = top;
pos = (308,700);
}
);
background = {
shapes = (
{
pos = (39,-119);
ref = Ghook;
}
);
};
layerId = m01;
shapes = (
{
closed = 1;
nodes = (
(714,709,l),
(576,719,o),
(558,689,o),
(544,566,cs),
(539,525,o),
(523,515,o),
(514,508,cs),
(493,492,o),
(446,488,o),
(334,488,cs),
(219,488,o),
(172,491,o),
(152,507,cs),
(139,518,o),
(138,535,o),
(139,560,cs),
(140,602,o),
(142,645,o),
(143,700,c),
(61,701,l),
(65,233,o),
(62,117,o),
(58,0,c),
(141,0,l),
(139,36,o),
(137,118,o),
(137,152,cs),
(137,170,o),
(135,208,o),
(143,228,cs),
(159,266,o),
(205,269,o),
(238,268,c),
(239,185,o),
(266,105,o),
(324,52,cs),
(365,15,o),
(422,-8,o),
(496,-8,cs),
(529,-8,o),
(612,1,o),
(637,13,c),
(637,275,l),
(610,250,o),
(521,215,o),
(440,215,cs),
(364,215,o),
(322,242,o),
(307,270,c),
(526,274,o),
(582,313,o),
(600,498,cs),
(609,589,o),
(635,607,o),
(714,594,c)
);
}
);
width = 661;
}
);
unicode = 408;
},
{
color = 2;
glyphname = Kstroke;
lastChange = "2024-01-08 10:13:13 +0000";
layers = (
{
layerId = "60D037D9-62E9-4843-B070-F1594CB0B0D1";
shapes = (
{
ref = K;
},
{
closed = 1;
nodes = (
(51,588,o),
(143,588,o),
(194,586,c),
(194,617,l),
(143,615,o),
(51,615,o),
(0,617,c),
(0,586,l)
);
}
);
width = 567;
},
{
layerId = m01;
shapes = (
{
ref = K;
},
{
closed = 1;
nodes = (
(37,573,o),
(179,573,o),
(239,570,c),
(239,622,l),
(179,619,o),
(37,619,o),
(-24,622,c),
(-24,570,l)
);
}
);
width = 661;
}
);
unicode = 42816;
},
{
color = 4;
glyphname = L;
lastChange = "2024-01-05 18:57:27 +0000";
layers = (
{
anchors = (
{
name = bottom;
pos = (261,0);
},
{
name = center;
pos = (115,443);
},
{
name = top;
pos = (261,700);
},
{
name = topright;
pos = (391,700);
}
);
background = {
shapes = (
{
pos = (-4,0);
ref = E;
}
);
};
layerId = m01;
shapes = (
{
closed = 1;
nodes = (
(494,0,l),
(494,248,l),
(465,246,o),
(307,245,o),
(277,245,cs),
(184,245,o),
(163,248,o),
(150,258,cs),
(139,266,o),
(138,278,o),
(137,296,cs),
(135,327,o),
(137,482,o),
(145,701,c),
(58,701,l),
(62,503,o),
(62,198,o),
(58,0,c)
);
}
);
width = 522;
},
{
anchors = (
{
name = bottom;
pos = (236,0);
},
{
name = center;
pos = (99,397);
},
{
name = top;
pos = (258,700);
},
{
name = topright;
pos = (359,700);
}
);
background = {
shapes = (
{
ref = E;
}
);
};
layerId = "60D037D9-62E9-4843-B070-F1594CB0B0D1";
shapes = (
{
closed = 1;
nodes = (
(407,0,l),
(407,36,l),
(290,36,o),
(240,36,o),
(165,36,cs),
(138,36,o),
(129,36,o),
(121,42,cs),
(111,50,o),
(109,65,o),
(109,106,cs),
(109,306,o),
(108,477,o),
(113,701,c),
(82,701,l),
(86,563,o),
(86,138,o),
(84,0,c)
);
}
);
width = 435;
}
);
metricLeft = H;
unicode = 76;
},
{
color = 2;
glyphname = Lbar;
lastChange = "2024-01-08 10:13:44 +0000";
layers = (
{
layerId = "60D037D9-62E9-4843-B070-F1594CB0B0D1";
shapes = (
{
ref = L;
},
{
closed = 1;
nodes = (
(52,362,o),
(144,362,o),
(195,360,c),
(195,391,l),
(144,389,o),
(52,389,o),
(1,391,c),
(1,360,l)
);
}
);
width = 462;
},
{
layerId = m01;
shapes = (
{
ref = L;
},
{
closed = 1;
nodes = (
(31,402,o),
(173,402,o),
(233,399,c),
(233,451,l),
(173,448,o),
(31,448,o),
(-30,451,c),
(-30,399,l)
);
}
);
width = 530;
}
);
unicode = 573;
},
{
color = 2;
glyphname = Lbelt;
lastChange = "2024-01-08 10:15:00 +0000";
layers = (
{
layerId = "60D037D9-62E9-4843-B070-F1594CB0B0D1";
shapes = (
{
ref = L;
},
{
closed = 1;
nodes = (
(41,457,o),
(20,441,o),
(20,407,cs),
(20,373,o),
(41,357,o),
(87,356,cs),
(119,355,o),
(152,358,o),
(202,356,c),
(202,384,l),
(152,382,o),
(131,382,o),
(87,382,cs),
(66,382,o),
(54,391,o),
(54,407,cs),
(54,422,o),
(66,431,o),
(87,431,c),
(87,457,l)
);
}
);
width = 462;
},
{
layerId = m01;
shapes = (
{
ref = L;
},
{
closed = 1;
nodes = (
(-37,529,o),
(-76,503,o),
(-76,446,cs),
(-76,391,o),
(-37,365,o),
(61,363,cs),
(115,362,o),
(170,366,o),
(252,363,c),
(252,415,l),
(170,412,o),
(134,413,o),
(61,413,cs),
(25,413,o),
(8,423,o),
(8,446,cs),
(8,469,o),
(25,479,o),
(61,479,c),
(61,529,l)
);
}
);
width = 530;
}
);
unicode = 42925;
},
{
color = 2;
glyphname = Ldoublebar;
lastChange = "2024-01-08 10:15:40 +0000";
layers = (
{
layerId = "60D037D9-62E9-4843-B070-F1594CB0B0D1";
shapes = (
{
ref = L;
},
{
closed = 1;
nodes = (
(50,307,o),
(142,307,o),
(193,305,c),
(193,336,l),
(142,334,o),
(50,334,o),
(-1,336,c),
(-1,305,l)
);
},
{
closed = 1;
nodes = (
(50,391,o),
(142,391,o),
(193,389,c),
(193,420,l),
(142,418,o),
(50,418,o),
(-1,420,c),
(-1,389,l)
);
}
);
width = 462;
},
{
layerId = m01;
shapes = (
{
ref = L;
},
{
closed = 1;
nodes = (
(41,381,o),
(173,381,o),
(233,378,c),
(233,430,l),
(173,427,o),
(41,427,o),
(-20,430,c),
(-20,378,l)
);
},
{
closed = 1;
nodes = (
(41,480,o),
(173,480,o),
(233,477,c),
(233,529,l),
(173,526,o),
(41,526,o),
(-20,529,c),
(-20,477,l)
);
}
);
width = 530;
}
);
unicode = 11360;
},
{
color = 2;
glyphname = Lmiddletilde;
lastChange = "2024-01-05 18:29:38 +0000";
layers = (
{
layerId = "60D037D9-62E9-4843-B070-F1594CB0B0D1";
shapes = (
{
ref = L;
},
{
closed = 1;
nodes = (
(208,347,o),
(228,371,o),
(228,417,c),
(184,417,l),
(184,374,o),
(164,372,o),
(146,372,cs),
(114,372,o),
(93,418,o),
(39,418,cs),
(-6,418,o),
(-27,394,o),
(-27,348,c),
(17,348,l),
(17,391,o),
(37,394,o),
(55,394,cs),
(88,394,o),
(108,347,o),
(162,347,cs)
);
}
);
width = 462;
},
{
layerId = m01;
shapes = (
{
ref = L;
},
{
closed = 1;
nodes = (
(247,371,o),
(296,400,o),
(306,498,c),
(184,498,l),
(184,466,o),
(182,443,o),
(141,443,cs),
(91,443,o),
(90,499,o),
(5,499,cs),
(-48,499,o),
(-96,471,o),
(-106,373,c),
(16,373,l),
(16,405,o),
(18,428,o),
(58,428,cs),
(109,428,o),
(108,371,o),
(192,371,cs)
);
}
);
width = 530;
}
);
unicode = 11362;
},
{
color = 4;
glyphname = M;
lastChange = "2024-01-05 18:54:33 +0000";
layers = (
{
anchors = (
{
name = bottom;
pos = (417,0);
},
{
name = top;
pos = (417,700);
}
);
background = {
shapes = (
{
pos = (70,0);
ref = O;
}
);
};
layerId = m01;
shapes = (
{
closed = 1;
nodes = (
(144,0,l),
(140,97,o),
(138,192,o),
(138,259,cs),
(138,298,o),
(142,313,o),
(157,326,cs),
(167,336,o),
(190,339,o),
(223,339,cs),
(257,339,o),
(279,338,o),
(297,322,cs),
(324,296,o),
(334,271,o),
(370,0,c),
(464,0,l),
(500,271,o),
(510,296,o),
(537,322,cs),
(555,338,o),
(561,339,o),
(611,339,cs),
(653,339,o),
(667,336,o),
(677,326,cs),
(692,313,o),
(696,298,o),
(696,259,cs),
(696,192,o),
(694,97,o),
(690,0,c),
(776,0,l),
(772,117,o),
(770,233,o),
(770,350,cs),
(770,467,o),
(772,584,o),
(776,700,c),
(478,700,l),
(461,381,o),
(456,353,o),
(417,353,cs),
(378,353,o),
(373,381,o),
(356,700,c),
(58,700,l),
(62,584,o),
(64,467,o),
(64,350,cs),
(64,233,o),
(62,117,o),
(58,0,c)
);
}
);
width = 834;
},
{
anchors = (
{
name = bottom;
pos = (381,0);
},
{
name = top;
pos = (381,700);
}
);
background = {
shapes = (
{
closed = 1;
nodes = (
(115,0,l),
(113,207,o),
(110,349,o),
(110,446,cs),
(110,559,o),
(111,615,o),
(115,635,cs),
(119,657,o),
(134,660,o),
(175,660,cs),
(216,660,o),
(232,657,o),
(241,620,cs),
(250,584,o),
(319,235,o),
(339,134,c),
(423,134,l),
(448,257,o),
(505,544,o),
(521,620,cs),
(528,654,o),
(542,660,o),
(591,660,cs),
(634,660,o),
(645,655,o),
(649,635,cs),
(653,615,o),
(654,569,o),
(654,447,cs),
(654,350,o),
(652,207,o),
(650,0,c),
(683,0,l),
(679,117,o),
(676,223,o),
(676,372,cs),
(676,458,o),
(677,584,o),
(679,700,c),
(511,700,l),
(411,174,o),
(411,174,o),
(381,174,cs),
(351,174,o),
(351,174,o),
(251,700,c),
(86,700,l),
(88,584,o),
(89,458,o),
(89,372,cs),
(89,223,o),
(86,117,o),
(82,0,c)
);
}
);
};
layerId = "60D037D9-62E9-4843-B070-F1594CB0B0D1";
shapes = (
{
closed = 1;
nodes = (
(115,0,l),
(113,207,o),
(110,349,o),
(110,446,cs),
(110,632,o),
(110,644,o),
(123,655,cs),
(129,660,o),
(138,661,o),
(171,661,cs),
(209,661,o),
(221,660,o),
(227,654,cs),
(238,643,o),
(241,632,o),
(339,134,c),
(423,134,l),
(521,632,o),
(524,643,o),
(535,654,cs),
(541,660,o),
(553,661,o),
(591,661,cs),
(624,661,o),
(633,660,o),
(639,655,cs),
(652,644,o),
(654,633,o),
(654,447,cs),
(654,350,o),
(652,207,o),
(650,0,c),
(683,0,l),
(679,117,o),
(676,223,o),
(676,372,cs),
(676,458,o),
(677,584,o),
(679,700,c),
(511,700,l),
(411,170,o),
(411,170,o),
(381,170,cs),
(351,170,o),
(351,170,o),
(251,700,c),
(86,700,l),
(88,584,o),
(89,458,o),
(89,372,cs),
(89,223,o),
(86,117,o),
(82,0,c)
);
}
);
width = 765;
}
);
metricLeft = H;
metricRight = H;
unicode = 77;
},
{
color = 4;
glyphname = Mturned;
lastChange = "2024-01-05 15:20:21 +0000";
layers = (
{
anchors = (
{
name = bottom;
pos = (413,0);
},
{
name = top;
pos = (413,480);
}
);
layerId = "60D037D9-62E9-4843-B070-F1594CB0B0D1";
shapes = (
{
closed = 1;
nodes = (
(746,700,l),
(748,403,o),
(748,314,o),
(748,250,cs),
(748,114,o),
(691,31,o),
(575,31,cs),
(509,31,o),
(429,61,o),
(430,185,cs),
(431,314,o),
(431,403,o),
(433,700,c),
(401,700,l),
(403,403,o),
(403,314,o),
(403,250,cs),
(403,122,o),
(349,31,o),
(229,31,cs),
(163,31,o),
(84,61,o),
(85,185,cs),
(86,308,o),
(85,403,o),
(88,700,c),
(56,700,l),
(57,403,o),
(58,252,o),
(59,150,cs),
(60,55,o),
(119,-16,o),
(215,-16,cs),
(302,-16,o),
(350,36,o),
(380,82,cs),
(395,105,o),
(400,109,o),
(406,109,cs),
(414,109,o),
(413,107,o),
(423,78,cs),
(437,38,o),
(471,-16,o),
(567,-16,cs),
(652,-16,o),
(703,39,o),
(720,72,cs),
(731,93,o),
(733,97,o),
(740,97,cs),
(747,97,o),
(747,90,o),
(747,50,cs),
(747,38,o),
(747,22,o),
(746,0,c),
(778,0,l),
(774,113,o),
(774,133,o),
(778,700,c)
);
}
);
width = 844;
},
{
anchors = (
{
name = bottom;
pos = (410,200);
},
{
name = top;
pos = (410,700);
}
);
layerId = m01;
shapes = (
{
closed = 1;
nodes = (
(725,700,l),
(727,638,o),
(729,461,o),
(729,421,cs),
(729,340,o),
(717,334,o),
(590,334,cs),
(461,334,o),
(448,340,o),
(448,421,cs),
(448,461,o),
(451,654,o),
(453,700,c),
(377,700,l),
(379,638,o),
(381,461,o),
(381,421,cs),
(381,340,o),
(369,334,o),
(240,334,cs),
(113,334,o),
(101,340,o),
(101,421,cs),
(101,456,o),
(104,654,o),
(106,700,c),
(30,700,l),
(33,638,o),
(34,322,o),
(34,161,cs),
(34,43,o),
(109,-8,o),
(200,-8,cs),
(275,-8,o),
(336,39,o),
(360,77,cs),
(379,107,o),
(383,113,o),
(390,113,cs),
(397,113,o),
(398,104,o),
(402,93,cs),
(424,32,o),
(467,-8,o),
(545,-8,cs),
(620,-8,o),
(665,33,o),
(686,61,cs),
(705,86,o),
(712,100,o),
(719,100,cs),
(729,100,o),
(729,88,o),
(729,69,cs),
(729,52,o),
(727,25,o),
(725,0,c),
(801,0,l),
(798,187,o),
(798,313,o),
(801,700,c)
);
}
);
width = 831;
}
);
metricLeft = W;
metricRight = W;
unicode = 412;
},
{
color = 4;
glyphname = N;
lastChange = "2024-01-05 18:54:33 +0000";
layers = (
{
anchors = (
{
name = bottom;
pos = (314,0);
},
{
name = top;
pos = (314,700);
}
);
background = {
shapes = (
{
pos = (-17,0);
ref = O;
}
);
};
layerId = m01;
shapes = (
{
closed = 1;
nodes = (
(144,0,l),
(140,102,o),
(136,177,o),
(136,229,cs),
(136,276,o),
(138,295,o),
(143,317,cs),
(150,342,o),
(166,349,o),
(221,349,cs),
(270,349,o),
(290,342,o),
(312,316,cs),
(345,276,o),
(355,259,o),
(436,0,c),
(603,0,l),
(599,280,o),
(599,420,o),
(603,700,c),
(517,700,l),
(526,601,o),
(542,432,o),
(519,401,cs),
(509,387,o),
(496,383,o),
(464,383,cs),
(428,383,o),
(413,391,o),
(394,426,cs),
(367,477,o),
(346,534,o),
(299,700,c),
(58,700,l),
(62,420,o),
(62,280,o),
(58,0,c)
);
}
);
width = 661;
},
{
anchors = (
{
name = bottom;
pos = (305,0);
},
{
name = top;
pos = (305,700);
}
);
background = {
shapes = (
{
pos = (-11,0);
ref = M;
}
);
};
layerId = "60D037D9-62E9-4843-B070-F1594CB0B0D1";
shapes = (
{
closed = 1;
nodes = (
(112,0,l),
(108,83,o),
(108,113,o),
(108,312,cs),
(108,634,o),
(110,645,o),
(123,656,cs),
(129,661,o),
(138,662,o),
(171,662,cs),
(208,662,o),
(220,661,o),
(226,655,cs),
(237,644,o),
(239,633,o),
(411,0,c),
(554,0,l),
(552,313,o),
(552,461,o),
(557,700,c),
(525,700,l),
(538,63,o),
(536,52,o),
(523,41,cs),
(517,36,o),
(508,35,o),
(484,35,cs),
(447,35,o),
(435,36,o),
(429,42,cs),
(418,53,o),
(421,64,o),
(244,700,c),
(86,700,l),
(88,447,o),
(89,276,o),
(82,0,c)
);
}
);
width = 639;
}
);
metricLeft = H;
metricRight = H;
unicode = 78;
},
{
color = 4;
glyphname = Nhookleft;
lastChange = "2024-01-05 18:52:09 +0000";
layers = (
{
layerId = "60D037D9-62E9-4843-B070-F1594CB0B0D1";
shapes = (
{
pos = (35,0);
ref = N;
},
{
closed = 1;
nodes = (
(119,0,l),
(116,-61,o),
(105,-83,o),
(77,-96,cs),
(34,-117,o),
(-34,-96,o),
(-62,-80,c),
(-62,-122,l),
(31,-152,o),
(158,-152,o),
(149,0,c)
);
}
);
width = 678;
},
{
layerId = m01;
shapes = (
{
pos = (56,0);
ref = N;
},
{
closed = 1;
nodes = (
(117,145,l),
(114,51,o),
(119,-2,o),
(90,-24,cs),
(66,-42,o),
(31,-47,o),
(-46,-31,c),
(-46,-206,l),
(252,-244,o),
(198,-60,o),
(194,145,c)
);
}
);
width = 717;
}
);
metricLeft = j;
unicode = 413;
},
{
color = 2;
glyphname = Nlongrightleg;
lastChange = "2024-01-05 15:25:33 +0000";
layers = (
{
anchors = (
{
name = bottom;
pos = (293,0);
},
{
name = top;
pos = (293,480);
}
);
layerId = "60D037D9-62E9-4843-B070-F1594CB0B0D1";
shapes = (
{
closed = 1;
nodes = (
(122,0,l),
(120,297,o),
(120,396,o),
(120,469,cs),
(120,591,o),
(188,679,o),
(314,679,cs),
(388,679,o),
(467,649,o),
(466,525,cs),
(465,402,o),
(465,126,o),
(462,-171,c),
(494,-171,l),
(493,126,o),
(492,409,o),
(491,550,cs),
(490,645,o),
(435,716,o),
(323,716,cs),
(222,716,o),
(173,657,o),
(152,628,cs),
(137,607,o),
(135,603,o),
(128,603,cs),
(121,603,o),
(121,610,o),
(121,650,cs),
(121,662,o),
(121,678,o),
(122,700,c),
(90,700,l),
(94,587,o),
(94,567,o),
(90,0,c)
);
}
);
width = 576;
},
{
anchors = (
{
name = bottom;
pos = (272,0);
},
{
name = top;
pos = (272,500);
}
);
layerId = m01;
shapes = (
{
closed = 1;
nodes = (
(109,0,l),
(107,194,o),
(105,225,o),
(105,265,cs),
(105,346,o),
(117,352,o),
(265,352,cs),
(413,352,o),
(425,346,o),
(425,265,cs),
(425,225,o),
(423,-12,o),
(421,-206,c),
(497,-206,l),
(494,56,o),
(493,386,o),
(493,547,cs),
(493,665,o),
(401,708,o),
(306,708,cs),
(219,708,o),
(175,668,o),
(150,639,cs),
(129,614,o),
(122,600,o),
(115,600,cs),
(105,600,o),
(105,612,o),
(105,631,cs),
(105,648,o),
(107,675,o),
(109,700,c),
(33,700,l),
(36,513,o),
(36,387,o),
(33,0,c)
);
}
);
width = 542;
}
);
unicode = 544;
},
{
color = 2;
glyphname = Eng;
lastChange = "2024-01-05 18:54:33 +0000";
layers = (
{
layerId = "60D037D9-62E9-4843-B070-F1594CB0B0D1";
shapes = (
{
ref = N;
},
{
closed = 1;
nodes = (
(535,7,l),
(535,-54,o),
(514,-85,o),
(486,-98,cs),
(443,-119,o),
(382,-96,o),
(354,-80,c),
(354,-122,l),
(429,-153,o),
(555,-155,o),
(556,7,c)
);
}
);
width = 639;
},
{
layerId = m01;
shapes = (
{
ref = N;
},
{
closed = 1;
nodes = (
(521,144,l),
(518,50,o),
(523,-3,o),
(494,-25,cs),
(470,-43,o),
(435,-48,o),
(358,-32,c),
(358,-207,l),
(644,-243,o),
(602,-107,o),
(598,144,c)
);
}
);
width = 661;
}
);
metricLeft = N;
metricRight = N;
unicode = 330;
},
{
color = 4;
glyphname = O;
lastChange = "2024-01-05 18:54:08 +0000";
layers = (
{
anchors = (
{
name = bottom;
pos = (347,0);
},
{
name = center;
pos = (347,350);
},
{
name = ogonek;
pos = (419,10);
},
{
name = top;
pos = (347,700);
},
{
name = topleft;
pos = (20,700);
},
{
name = topright;
pos = (546,621);
}
);
layerId = m01;
shapes = (
{
closed = 1;
nodes = (
(566,-10,o),
(652,95,o),
(652,350,cs),
(652,605,o),
(565,710,o),
(347,710,cs),
(129,710,o),
(42,605,o),
(42,350,cs),
(42,95,o),
(128,-10,o),
(347,-10,cs)
);
},
{
closed = 1;
nodes = (
(168,245,o),
(109,271,o),
(109,350,cs),
(109,429,o),
(168,455,o),
(347,455,cs),
(526,455,o),
(585,429,o),
(585,350,cs),
(585,271,o),
(526,245,o),
(347,245,cs)
);
}
);
width = 694;
},
{
anchors = (
{
name = bottom;
pos = (340,0);
},
{
name = center;
pos = (340,350);
},
{
name = ogonek;
pos = (392,10);
},
{
name = top;
pos = (340,700);
},
{
name = topleft;
pos = (20,700);
},
{
name = topright;
pos = (510,630);
}
);
layerId = "60D037D9-62E9-4843-B070-F1594CB0B0D1";
shapes = (
{
closed = 1;
nodes = (
(510,-16,o),
(611,103,o),
(611,350,cs),
(611,597,o),
(510,716,o),
(340,716,cs),
(170,716,o),
(69,597,o),
(69,350,cs),
(69,103,o),
(170,-16,o),
(340,-16,cs)
);
},
{
closed = 1;
nodes = (
(188,23,o),
(92,132,o),
(92,350,cs),
(92,568,o),
(188,677,o),
(340,677,cs),
(492,677,o),
(588,568,o),
(588,350,cs),
(588,132,o),
(492,23,o),
(340,23,cs)
);
}
);
width = 680;
}
);
unicode = 79;
},
{
color = 2;
glyphname = OU;
lastChange = "2024-01-05 18:29:38 +0000";
layers = (
{
layerId = "60D037D9-62E9-4843-B070-F1594CB0B0D1";
shapes = (
{
closed = 1;
nodes = (
(461,-16,o),
(559,71,o),
(559,223,cs),
(559,372,o),
(461,461,o),
(298,461,cs),
(135,461,o),
(37,370,o),
(37,223,cs),
(37,70,o),
(135,-16,o),
(298,-16,cs)
);
},
{
closed = 1;
nodes = (
(155,21,o),
(60,85,o),
(60,223,cs),
(60,353,o),
(155,425,o),
(298,425,cs),
(440,425,o),
(536,357,o),
(536,223,cs),
(536,89,o),
(427,21,o),
(298,21,cs)
);
},
{
closed = 1;
nodes = (
(523,425,o),
(545,488,o),
(546,700,c),
(512,700,l),
(514,661,o),
(516,598,o),
(512,560,cs),
(508,524,o),
(500,461,o),
(298,461,cs),
(96,461,o),
(88,524,o),
(84,560,cs),
(80,598,o),
(82,661,o),
(84,700,c),
(50,700,l),
(51,488,o),
(73,425,o),
(298,425,c)
);
}
);
width = 600;
},
{
layerId = m01;
shapes = (
{
closed = 1;
nodes = (
(487,-10,o),
(584,79,o),
(584,239,cs),
(584,426,o),
(481,507,o),
(313,507,cs),
(145,507,o),
(42,426,o),
(42,239,cs),
(42,79,o),
(139,-10,o),
(313,-10,cs)
);
},
{
closed = 1;
nodes = (
(175,245,o),
(131,262,o),
(131,313,cs),
(131,367,o),
(175,383,o),
(313,383,cs),
(450,383,o),
(495,367,o),
(495,313,cs),
(495,262,o),
(450,245,o),
(313,245,cs)
);
},
{
closed = 1;
nodes = (
(511,386,o),
(573,452,o),
(577,700,c),
(486,700,l),
(488,661,o),
(489,617,o),
(486,579,cs),
(483,543,o),
(474,539,o),
(312,539,cs),
(153,539,o),
(144,543,o),
(141,579,cs),
(138,617,o),
(140,661,o),
(142,700,c),
(52,700,l),
(53,448,o),
(108,386,o),
(312,386,cs)
);
}
);
width = 625;
}
);
unicode = 546;
},
{
color = 4;
glyphname = Ocenteredtilde;
lastChange = "2024-01-05 15:51:55 +0000";
layers = (
{
layerId = "60D037D9-62E9-4843-B070-F1594CB0B0D1";
shapes = (
{
ref = O;
},
{
closed = 1;
nodes = (
(216,335,o),
(463,335,o),
(608,333,c),
(608,364,l),
(463,362,o),
(216,362,o),
(71,364,c),
(71,333,l)
);
}
);
width = 680;
},
{
layerId = m01;
shapes = (
{
ref = O;
},
{
closed = 1;
nodes = (
(271,318,o),
(419,318,o),
(638,315,c),
(638,382,l),
(419,379,o),
(271,379,o),
(49,382,c),
(49,315,l)
);
}
);
width = 694;
}
);
unicode = 415;
},
{
color = 5;
glyphname = "Omega-latin";
lastChange = "2024-01-05 18:28:49 +0000";
layers = (
{
layerId = "60D037D9-62E9-4843-B070-F1594CB0B0D1";
shapes = (
{
closed = 1;
nodes = (
(324,-16,o),
(364,54,o),
(381,85,cs),
(406,132,o),
(416,191,o),
(424,197,c),
(432,191,o),
(442,132,o),
(467,85,cs),
(484,54,o),
(524,-16,o),
(607,-16,cs),
(731,-16,o),
(779,98,o),
(779,350,cs),
(779,577,o),
(668,700,o),
(503,700,c),
(503,660,l),
(660,670,o),
(756,549,o),
(756,335,cs),
(756,116,o),
(698,23,o),
(607,23,cs),
(503,23,o),
(437,170,o),
(437,352,cs),
(437,442,o),
(438,457,o),
(439,599,c),
(409,599,l),
(410,457,o),
(411,442,o),
(411,352,cs),
(411,170,o),
(345,23,o),
(241,23,cs),
(150,23,o),
(92,116,o),
(92,335,cs),
(92,549,o),
(188,670,o),
(345,660,c),
(345,700,l),
(180,700,o),
(69,577,o),
(69,350,cs),
(69,98,o),
(117,-16,o),
(241,-16,cs)
);
}
);
width = 848;
},
{
layerId = m01;
shapes = (
{
closed = 1;
nodes = (
(286,-10,o),
(328,25,o),
(345,64,cs),
(371,122,o),
(374,164,o),
(401,165,cs),
(428,164,o),
(431,122,o),
(457,64,cs),
(474,25,o),
(516,-10,o),
(571,-10,cs),
(689,-10,o),
(760,138,o),
(760,382,cs),
(760,580,o),
(655,700,o),
(498,700,c),
(498,455,l),
(635,465,o),
(687,427,o),
(687,344,cs),
(687,282,o),
(641,245,o),
(565,245,cs),
(512,245,o),
(447,249,o),
(440,339,cs),
(438,366,o),
(443,405,o),
(446,439,c),
(356,439,l),
(359,405,o),
(364,366,o),
(362,339,cs),
(355,249,o),
(290,245,o),
(237,245,cs),
(161,245,o),
(115,282,o),
(115,344,cs),
(115,427,o),
(167,465,o),
(304,455,c),
(304,700,l),
(147,700,o),
(42,580,o),
(42,382,cs),
(42,113,o),
(101,-10,o),
(231,-10,cs)
);
}
);
width = 802;
}
);
metricLeft = O;
metricRight = O;
unicode = 42934;
},
{
color = 2;
glyphname = OE;
lastChange = "2024-01-05 01:02:17 +0000";
layers = (
{
anchors = (
{
name = bottom;
pos = (764,0);
},
{
name = center;
pos = (133,350);
},
{
name = ogonek;
pos = (953,0);
},
{
name = top;
pos = (764,700);
},
{
name = topleft;
pos = (554,700);
},
{
name = topright;
pos = (303,630);
}
);
layerId = "60D037D9-62E9-4843-B070-F1594CB0B0D1";
shapes = (
{
closed = 1;
nodes = (
(486,-8,o),
(577,111,o),
(577,350,cs),
(577,589,o),
(486,708,o),
(328,708,cs),
(170,708,o),
(80,589,o),
(80,350,cs),
(80,111,o),
(170,-8,o),
(328,-8,cs)
);
},
{
closed = 1;
nodes = (
(188,31,o),
(100,140,o),
(100,350,cs),
(100,560,o),
(188,669,o),
(328,669,cs),
(469,669,o),
(557,560,o),
(557,350,cs),
(557,140,o),
(469,31,o),
(328,31,cs)
);
},
{
closed = 1;
nodes = (
(898,0,l),
(898,36,l),
(882,36,o),
(835,36,o),
(747,36,cs),
(609,36,o),
(600,36,o),
(592,42,cs),
(582,50,o),
(580,65,o),
(580,195,cs),
(580,325,o),
(582,340,o),
(592,348,cs),
(600,354,o),
(609,354,o),
(747,354,cs),
(833,354,o),
(877,354,o),
(893,353,c),
(893,386,l),
(877,385,o),
(833,384,o),
(747,384,cs),
(609,384,o),
(600,384,o),
(592,390,cs),
(582,398,o),
(580,413,o),
(580,524,cs),
(580,635,o),
(582,650,o),
(592,658,cs),
(600,664,o),
(609,664,o),
(747,664,cs),
(835,664,o),
(882,664,o),
(898,664,c),
(898,700,l),
(557,700,l),
(559,466,o),
(559,234,o),
(557,0,c)
);
}
);
width = 970;
},
{
anchors = (
{
name = bottom;
pos = (324,0);
},
{
name = center;
pos = (324,350);
},
{
name = ogonek;
pos = (396,10);
},
{
name = top;
pos = (324,700);
},
{
name = topleft;
pos = (-3,700);
},
{
name = topright;
pos = (523,621);
}
);
background = {
shapes = (
{
pos = (54,0);
ref = AE;
}
);
};
layerId = m01;
shapes = (
{
closed = 1;
nodes = (
(549,-10,o),
(629,95,o),
(629,350,cs),
(629,605,o),
(548,710,o),
(344,710,cs),
(141,710,o),
(60,605,o),
(60,350,cs),
(60,95,o),
(140,-10,o),
(344,-10,cs)
);
},
{
closed = 1;
nodes = (
(177,245,o),
(122,271,o),
(122,350,cs),
(122,429,o),
(177,455,o),
(344,455,cs),
(511,455,o),
(566,429,o),
(566,350,cs),
(566,271,o),
(511,245,o),
(344,245,cs)
);
},
{
closed = 1;
nodes = (
(991,0,l),
(991,250,l),
(986,249,o),
(936,248,o),
(837,248,cs),
(695,248,o),
(659,248,o),
(640,263,cs),
(633,269,o),
(628,273,o),
(628,287,cs),
(628,300,o),
(633,306,o),
(640,312,cs),
(659,327,o),
(736,325,o),
(837,325,cs),
(890,325,o),
(964,323,o),
(975,322,c),
(975,396,l),
(964,395,o),
(890,392,o),
(837,392,cs),
(736,392,o),
(650,392,o),
(636,404,cs),
(630,409,o),
(628,415,o),
(628,423,cs),
(628,431,o),
(630,437,o),
(636,442,cs),
(650,454,o),
(695,455,o),
(837,455,cs),
(936,455,o),
(984,453,o),
(990,452,c),
(991,700,l),
(565,700,l),
(569,451,o),
(569,249,o),
(565,0,c)
);
}
);
width = 1066;
}
);
unicode = 338;
},
{
color = 4;
glyphname = P;
lastChange = "2024-01-05 18:54:33 +0000";
layers = (
{
anchors = (
{
name = bottom;
pos = (320,0);
},
{
name = hook;
pos = (70,700);
},
{
name = top;
pos = (320,700);
}
);
background = {
shapes = (
{
pos = (0,-12);
ref = R.ss10;
}
);
};
layerId = m01;
shapes = (
{
closed = 1;
nodes = (
(141,0,l),
(129,143,o),
(132,189,o),
(149,212,cs),
(166,235,o),
(187,242,o),
(377,245,cs),
(535,247,o),
(626,315,o),
(626,472,cs),
(626,620,o),
(542,699,o),
(409,699,cs),
(59,700,l),
(63,451,o),
(62,249,o),
(58,0,c)
);
},
{
closed = 1;
nodes = (
(243,307,o),
(193,314,o),
(168,325,cs),
(141,335,o),
(132,357,o),
(132,381,cs),
(132,403,o),
(141,427,o),
(168,439,cs),
(193,449,o),
(243,455,o),
(319,455,cs),
(404,455,o),
(454,449,o),
(479,439,cs),
(506,427,o),
(516,403,o),
(516,381,cs),
(516,361,o),
(506,336,o),
(479,325,cs),
(454,315,o),
(404,307,o),
(319,307,cs)
);
}
);
width = 673;
},
{
anchors = (
{
name = bottom;
pos = (307,0);
},
{
name = hook;
pos = (83,701);
},
{
name = top;
pos = (274,700);
}
);
background = {
shapes = (
{
pos = (-2,0);
ref = R;
}
);
};
layerId = "60D037D9-62E9-4843-B070-F1594CB0B0D1";
shapes = (
{
closed = 1;
nodes = (
(110,0,l),
(108,98,o),
(104,233,o),
(114,249,cs),
(123,263,o),
(171,260,o),
(298,260,cs),
(449,260,o),
(528,369,o),
(528,477,cs),
(528,610,o),
(449,698,o),
(298,699,cs),
(83,701,l),
(90,384,o),
(87,317,o),
(82,0,c)
);
},
{
closed = 1;
nodes = (
(153,293,o),
(121,296,o),
(113,307,cs),
(107,315,o),
(106,337,o),
(106,477,cs),
(106,614,o),
(107,636,o),
(113,646,cs),
(121,660,o),
(132,661,o),
(294,661,cs),
(385,661,o),
(435,633,o),
(468,592,cs),
(493,561,o),
(506,522,o),
(506,477,cs),
(506,432,o),
(493,393,o),
(468,362,cs),
(437,324,o),
(393,293,o),
(294,293,cs)
);
}
);
width = 581;
}
);
metricLeft = H;
metricRight = F;
unicode = 80;
},
{
color = 9;
glyphname = Thorn;
lastChange = "2024-01-05 18:54:33 +0000";
layers = (
{
layerId = "60D037D9-62E9-4843-B070-F1594CB0B0D1";
shapes = (
{
closed = 1;
nodes = (
(112,0,l),
(110,98,o),
(106,108,o),
(116,124,cs),
(125,138,o),
(173,135,o),
(300,135,cs),
(451,135,o),
(530,244,o),
(530,352,cs),
(530,485,o),
(472,574,o),
(300,574,cs),
(298,574,ls),
(171,574,o),
(123,571,o),
(114,585,cs),
(104,601,o),
(109,639,o),
(110,700,c),
(82,700,l),
(86,495,o),
(91,364,o),
(84,0,c)
);
},
{
closed = 1;
nodes = (
(108,489,o),
(109,511,o),
(115,521,cs),
(123,535,o),
(134,536,o),
(296,536,cs),
(387,536,o),
(437,508,o),
(470,467,cs),
(495,436,o),
(508,397,o),
(508,352,cs),
(508,307,o),
(495,268,o),
(470,237,cs),
(439,199,o),
(395,168,o),
(296,168,cs),
(155,168,o),
(123,171,o),
(115,182,cs),
(109,190,o),
(108,212,o),
(108,352,cs)
);
}
);
width = 583;
},
{
layerId = m01;
shapes = (
{
closed = 1;
nodes = (
(143,0,l),
(139,54,o),
(141,82,o),
(151,95,cs),
(167,115,o),
(189,125,o),
(379,128,cs),
(537,130,o),
(628,198,o),
(628,355,cs),
(628,503,o),
(547,582,o),
(411,582,cs),
(311,582,ls),
(189,582,o),
(165,589,o),
(149,609,cs),
(139,622,o),
(137,646,o),
(141,700,c),
(58,700,l),
(65,320,o),
(66,447,o),
(60,0,c)
);
},
{
closed = 1;
nodes = (
(134,286,o),
(143,310,o),
(170,322,cs),
(195,332,o),
(245,338,o),
(321,338,cs),
(406,338,o),
(456,332,o),
(481,322,cs),
(508,310,o),
(518,286,o),
(518,264,cs),
(518,244,o),
(508,219,o),
(481,208,cs),
(456,198,o),
(406,190,o),
(321,190,cs),
(245,190,o),
(195,197,o),
(170,208,cs),
(143,218,o),
(134,240,o),
(134,264,cs)
);
}
);
width = 675;
}
);
metricLeft = P;
metricRight = P;
unicode = 222;
},
{
color = 0;
glyphname = Pstroke;
lastChange = "2024-01-08 10:16:22 +0000";
layers = (
{
layerId = "60D037D9-62E9-4843-B070-F1594CB0B0D1";
shapes = (
{
ref = P;
},
{
closed = 1;
nodes = (
(52,453,o),
(144,453,o),
(195,451,c),
(195,482,l),
(144,480,o),
(52,480,o),
(1,482,c),
(1,451,l)
);
}
);
width = 583;
},
{
layerId = m01;
shapes = (
{
ref = P;
},
{
closed = 1;
nodes = (
(41,355,o),
(163,355,o),
(223,352,c),
(223,404,l),
(163,401,o),
(41,401,o),
(-20,404,c),
(-20,352,l)
);
}
);
width = 673;
}
);
unicode = 11363;
},
{
color = 4;
glyphname = Q;
lastChange = "2024-01-04 17:59:45 +0000";
layers = (
{
anchors = (
{
name = bottom;
pos = (300,0);
},
{
name = top;
pos = (300,700);
}
);
background = {
shapes = (
{
ref = O;
}
);
};
layerId = m01;
shapes = (
{
closed = 1;
nodes = (
(556,-235,o),
(607,-223,o),
(621,-216,c),
(621,-16,l),
(611,-19,o),
(549,-50,o),
(496,-50,cs),
(429,-50,o),
(395,-34,o),
(386,-9,c),
(568,6,o),
(652,95,o),
(652,350,cs),
(652,605,o),
(565,710,o),
(347,710,cs),
(129,710,o),
(42,605,o),
(42,350,cs),
(42,95,o),
(128,5,o),
(308,-9,c),
(312,-51,o),
(315,-96,o),
(346,-144,cs),
(384,-204,o),
(452,-235,o),
(517,-235,cs)
);
},
{
closed = 1;
nodes = (
(170,245,o),
(110,271,o),
(110,350,cs),
(110,429,o),
(170,455,o),
(347,455,cs),
(524,455,o),
(584,429,o),
(584,350,cs),
(584,271,o),
(524,245,o),
(347,245,cs)
);
}
);
width = 704;
},
{
anchors = (
{
name = bottom;
pos = (312,0);
},
{
name = top;
pos = (312,700);
}
);
background = {
shapes = (
{
pos = (-2,0);
ref = O;
}
);
};
layerId = "60D037D9-62E9-4843-B070-F1594CB0B0D1";
shapes = (
{
closed = 1;
nodes = (
(513,-163,o),
(535,-160,o),
(568,-152,c),
(568,-114,l),
(544,-122,o),
(511,-127,o),
(486,-127,cs),
(397,-127,o),
(346,-71,o),
(346,-8,c),
(507,-2,o),
(605,111,o),
(605,350,cs),
(605,589,o),
(507,708,o),
(337,708,cs),
(167,708,o),
(69,589,o),
(69,350,cs),
(69,111,o),
(167,-2,o),
(328,-8,c),
(328,-28,o),
(329,-54,o),
(343,-85,cs),
(366,-135,o),
(418,-163,o),
(493,-163,cs)
);
},
{
closed = 1;
nodes = (
(185,31,o),
(91,140,o),
(91,350,cs),
(91,560,o),
(185,669,o),
(337,669,cs),
(489,669,o),
(583,560,o),
(583,350,cs),
(583,140,o),
(489,31,o),
(337,31,cs)
);
}
);
width = 646;
}
);
metricLeft = O;
unicode = 81;
},
{
color = 0;
glyphname = Qhooktail;
lastChange = "2024-01-05 16:18:58 +0000";
layers = (
{
layerId = "60D037D9-62E9-4843-B070-F1594CB0B0D1";
shapes = (
{
closed = 1;
nodes = (
(424,-16,o),
(488,26,o),
(517,66,cs),
(540,97,o),
(551,135,o),
(558,135,cs),
(567,135,o),
(562,120,o),
(562,-94,cs),
(562,-161,o),
(592,-163,o),
(617,-157,c),
(617,-118,l),
(605,-123,o),
(590,-121,o),
(587,-104,cs),
(580,-66,o),
(586,246,o),
(586,332,cs),
(586,461,o),
(586,582,o),
(589,700,c),
(558,700,l),
(560,677,o),
(561,660,o),
(562,647,cs),
(565,574,o),
(562,567,o),
(557,567,cs),
(551,567,o),
(542,591,o),
(532,608,cs),
(511,643,o),
(452,716,o),
(336,716,cs),
(170,716,o),
(69,637,o),
(69,350,cs),
(69,63,o),
(182,-16,o),
(336,-16,cs)
);
},
{
closed = 1;
nodes = (
(260,23,o),
(196,37,o),
(153,98,cs),
(117,150,o),
(91,237,o),
(91,350,cs),
(91,511,o),
(125,596,o),
(193,641,cs),
(223,661,o),
(260,677,o),
(336,677,cs),
(414,677,o),
(493,645,o),
(532,559,cs),
(555,509,o),
(563,441,o),
(563,350,cs),
(563,237,o),
(547,155,o),
(512,106,cs),
(467,43,o),
(407,23,o),
(336,23,cs)
);
}
);
width = 658;
},
{
layerId = m01;
shapes = (
{
closed = 1;
nodes = (
(423,-6,o),
(469,50,o),
(493,85,cs),
(514,116,o),
(521,131,o),
(531,131,cs),
(543,131,o),
(543,121,o),
(543,-103,cs),
(543,-199,o),
(600,-208,o),
(679,-200,c),
(679,0,l),
(661,-4,o),
(635,-4,o),
(625,10,cs),
(611,30,o),
(614,50,o),
(614,353,cs),
(614,492,o),
(621,661,o),
(622,701,c),
(540,701,l),
(543,666,o),
(545,634,o),
(545,613,cs),
(545,589,o),
(543,575,o),
(531,575,cs),
(521,575,o),
(514,590,o),
(493,621,cs),
(469,656,o),
(423,712,o),
(308,712,cs),
(122,712,o),
(41,599,o),
(42,353,cs),
(41,107,o),
(122,-6,o),
(308,-6,cs)
);
},
{
closed = 1;
nodes = (
(235,245,o),
(178,253,o),
(147,271,cs),
(119,288,o),
(109,314,o),
(109,351,cs),
(109,384,o),
(117,407,o),
(138,424,cs),
(168,447,o),
(225,456,o),
(328,456,cs),
(418,456,o),
(476,448,o),
(509,426,cs),
(536,410,o),
(547,385,o),
(547,351,cs),
(546,306,o),
(528,278,o),
(482,262,cs),
(448,250,o),
(398,245,o),
(328,245,cs)
);
}
);
width = 701;
}
);
metricLeft = O;
unicode = 586;
},
{
color = 4;
glyphname = R;
lastChange = "2024-01-05 18:54:33 +0000";
layers = (
{
anchors = (
{
name = bottom;
pos = (313,0);
},
{
name = top;
pos = (289,700);
}
);
background = {
shapes = (
{
pos = (-2,0);
ref = B;
}
);
};
layerId = "60D037D9-62E9-4843-B070-F1594CB0B0D1";
shapes = (
{
closed = 1;
nodes = (
(521,-4,o),
(545,-5,o),
(556,-6,c),
(556,32,l),
(543,32,o),
(494,39,o),
(450,77,cs),
(404,117,o),
(368,175,o),
(352,300,c),
(452,312,o),
(527,372,o),
(527,501,cs),
(527,626,o),
(440,698,o),
(328,699,cs),
(82,701,l),
(84,522,o),
(84,186,o),
(82,0,c),
(108,0,l),
(105,272,o),
(108,284,o),
(117,291,cs),
(126,298,o),
(133,299,o),
(328,299,c),
(340,215,o),
(358,158,o),
(382,116,cs),
(415,58,o),
(452,30,o),
(478,17,cs)
);
},
{
closed = 1;
nodes = (
(138,330,o),
(126,331,o),
(117,338,cs),
(108,345,o),
(105,357,o),
(105,496,cs),
(105,635,o),
(108,647,o),
(117,654,cs),
(126,661,o),
(138,662,o),
(234,662,cs),
(336,662,o),
(362,661,o),
(390,654,cs),
(436,642,o),
(505,604,o),
(505,496,cs),
(505,388,o),
(432,350,o),
(386,338,cs),
(358,331,o),
(322,330,o),
(234,330,cs)
);
}
);
width = 625;
},
{
anchors = (
{
name = bottom;
pos = (334,0);
},
{
name = top;
pos = (334,700);
}
);
layerId = m01;
shapes = (
{
closed = 1;
nodes = (
(566,-8,o),
(610,2,o),
(636,13,c),
(636,272,l),
(617,257,o),
(540,215,o),
(434,215,cs),
(372,215,o),
(319,242,o),
(310,269,c),
(515,269,o),
(626,316,o),
(626,472,cs),
(626,640,o),
(542,699,o),
(409,699,cs),
(59,700,l),
(63,451,o),
(62,249,o),
(58,0,c),
(140,0,l),
(128,180,o),
(132,219,o),
(149,240,cs),
(166,260,o),
(187,267,o),
(239,269,c),
(241,195,o),
(255,138,o),
(289,89,cs),
(335,22,o),
(423,-8,o),
(493,-8,cs)
);
},
{
closed = 1;
nodes = (
(243,331,o),
(193,336,o),
(168,345,cs),
(141,354,o),
(132,374,o),
(132,394,cs),
(132,412,o),
(141,434,o),
(168,443,cs),
(193,452,o),
(243,457,o),
(319,457,cs),
(404,457,o),
(454,452,o),
(479,443,cs),
(506,434,o),
(516,412,o),
(516,394,cs),
(516,376,o),
(506,355,o),
(479,345,cs),
(454,337,o),
(404,331,o),
(319,331,cs)
);
}
);
width = 678;
}
);
metricLeft = H;
metricRight = O;
unicode = 82;
},
{
color = 2;
glyphname = Rstroke;
lastChange = "2024-01-05 12:18:24 +0000";
layers = (
{
layerId = "60D037D9-62E9-4843-B070-F1594CB0B0D1";
shapes = (
{
ref = R;
},
{
closed = 1;
nodes = (
(50,301,o),
(142,301,o),
(193,299,c),
(193,330,l),
(142,328,o),
(50,328,o),
(-1,330,c),
(-1,299,l)
);
}
);
width = 627;
},
{
layerId = m01;
shapes = (
{
ref = R;
},
{
closed = 1;
nodes = (
(20,271,o),
(122,271,o),
(182,268,c),
(182,335,l),
(122,332,o),
(20,332,o),
(-41,335,c),
(-41,268,l)
);
}
);
width = 678;
}
);
unicode = 588;
},
{
color = 0;
glyphname = Rtail;
lastChange = "2024-01-05 16:06:48 +0000";
layers = (
{
layerId = "60D037D9-62E9-4843-B070-F1594CB0B0D1";
shapes = (
{
ref = R;
},
{
closed = 1;
nodes = (
(75,-142,o),
(175,-155,o),
(283,-118,c),
(283,-78,l),
(255,-94,o),
(186,-114,o),
(146,-88,cs),
(120,-71,o),
(110,-52,o),
(110,9,c),
(84,20,l)
);
}
);
width = 627;
},
{
layerId = m01;
shapes = (
{
ref = R;
},
{
closed = 1;
nodes = (
(57,-133,o),
(16,-243,o),
(295,-206,c),
(295,-31,l),
(218,-47,o),
(183,-42,o),
(159,-24,cs),
(130,-2,o),
(135,51,o),
(132,145,c),
(62,145,l)
);
}
);
width = 678;
}
);
unicode = 11364;
},
{
color = 4;
glyphname = S;
lastChange = "2024-01-02 18:41:30 +0000";
layers = (
{
anchors = (
{
name = bottom;
pos = (274,-8);
},
{
name = top;
pos = (278,700);
}
);
background = {
shapes = (
{
pos = (-55,0);
ref = C;
}
);
};
backgroundImage = {
imagePath = /Downloads/IMG_7408.JPG;
locked = 1;
pos = (-859,-1771);
scale = (0.7854,0.7854);
};
layerId = m01;
shapes = (
{
closed = 1;
nodes = (
(446,-10,o),
(558,54,o),
(558,185,cs),
(558,300,o),
(479,342,o),
(344,381,cs),
(276,401,o),
(235,406,o),
(235,433,cs),
(235,447,o),
(251,457,o),
(307,457,cs),
(362,457,o),
(426,453,o),
(524,427,c),
(524,687,l),
(488,696,o),
(402,710,o),
(327,710,cs),
(164,710,o),
(66,663,o),
(66,532,cs),
(66,424,o),
(149,383,o),
(257,351,cs),
(346,325,o),
(416,312,o),
(416,273,cs),
(416,253,o),
(387,241,o),
(299,241,cs),
(251,241,o),
(129,253,o),
(65,276,c),
(65,13,l),
(101,4,o),
(187,-10,o),
(262,-10,cs)
);
}
);
width = 566;
},
{
anchors = (
{
name = bottom;
pos = (229,0);
},
{
name = top;
pos = (229,700);
}
);
background = {
shapes = (
{
pos = (-130,0);
ref = C;
}
);
};
layerId = "60D037D9-62E9-4843-B070-F1594CB0B0D1";
shapes = (
{
closed = 1;
nodes = (
(324,-8,o),
(459,39,o),
(460,182,cs),
(461,293,o),
(380,345,o),
(243,383,cs),
(108,420,o),
(68,471,o),
(68,538,cs),
(68,647,o),
(162,674,o),
(240,674,cs),
(311,674,o),
(352,656,o),
(397,634,c),
(397,682,l),
(350,700,o),
(291,709,o),
(251,709,cs),
(108,709,o),
(43,635,o),
(43,555,cs),
(43,452,o),
(89,401,o),
(236,359,cs),
(349,327,o),
(434,288,o),
(434,180,cs),
(434,61,o),
(294,33,o),
(224,33,cs),
(150,33,o),
(69,52,o),
(36,66,c),
(36,20,l),
(75,4,o),
(152,-8,o),
(207,-8,cs)
);
}
);
width = 496;
}
);
unicode = 83;
},
{
color = 0;
glyphname = Saltillo;
lastChange = "2024-01-05 00:03:11 +0000";
layers = (
{
layerId = "60D037D9-62E9-4843-B070-F1594CB0B0D1";
shapes = (
{
closed = 1;
nodes = (
(75,573,l),
(81,464,l),
(100,464,l),
(106,573,l),
(106,700,l),
(75,700,l)
);
}
);
width = 181;
},
{
layerId = m01;
shapes = (
{
closed = 1;
nodes = (
(40,536,l),
(53,396,l),
(108,396,l),
(121,536,l),
(121,700,l),
(40,700,l)
);
}
);
width = 161;
}
);
metricLeft = period;
metricRight = period;
unicode = 42891;
},
{
color = 2;
glyphname = Germandbls;
lastChange = "2024-01-03 11:02:29 +0000";
layers = (
{
background = {
shapes = (
{
pos = (-31,0);
ref = three;
}
);
};
layerId = "60D037D9-62E9-4843-B070-F1594CB0B0D1";
shapes = (
{
closed = 1;
nodes = (
(348,2,o),
(451,52,o),
(451,178,cs),
(451,237,o),
(430,274,o),
(406,299,cs),
(342,365,o),
(266,363,o),
(229,367,c),
(355,427,o),
(414,479,o),
(419,663,cs),
(420,700,l),
(348,712,o),
(80,761,o),
(52,536,cs),
(45,476,o),
(44,435,o),
(44,395,cs),
(40,0,l),
(70,0,l),
(64,177,o),
(62,302,o),
(65,393,cs),
(70,510,o),
(84,571,o),
(115,611,cs),
(176,690,o),
(333,679,o),
(394,664,c),
(387,491,o),
(331,440,o),
(176,373,c),
(176,343,l),
(238,346,o),
(280,341,o),
(319,328,cs),
(337,322,o),
(425,284,o),
(425,184,cs),
(425,83,o),
(345,46,o),
(288,36,cs),
(230,26,o),
(164,38,o),
(108,60,c),
(108,13,l),
(186,-9,o),
(244,-7,o),
(278,-4,cs)
);
}
);
width = 498;
},
{
background = {
shapes = (
{
pos = (8,0);
ref = three;
}
);
};
layerId = m01;
shapes = (
{
closed = 1;
nodes = (
(457,-7,o),
(550,48,o),
(550,169,cs),
(550,232,o),
(531,262,o),
(510,291,cs),
(489,319,o),
(440,352,o),
(410,363,c),
(434,381,o),
(502,420,o),
(520,468,c),
(520,700,l),
(401,712,o),
(114,764,o),
(54,535,cs),
(39,479,o),
(34,420,o),
(34,395,cs),
(30,0,l),
(109,0,l),
(108,144,o),
(104,233,o),
(106,293,cs),
(108,362,o),
(117,392,o),
(145,419,cs),
(204,475,o),
(377,466,o),
(431,453,c),
(393,394,o),
(327,380,o),
(210,386,c),
(210,326,l),
(272,329,o),
(319,330,o),
(358,325,cs),
(373,323,o),
(408,316,o),
(408,286,cs),
(408,256,o),
(373,247,o),
(358,245,cs),
(311,239,o),
(229,244,o),
(147,270,c),
(147,14,l),
(225,-4,o),
(301,-7,o),
(335,-7,cs)
);
}
);
width = 574;
}
);
metricLeft = f;
metricRight = s;
unicode = 7838;
},
{
color = 4;
glyphname = T;
lastChange = "2024-01-08 10:23:13 +0000";
layers = (
{
anchors = (
{
name = bottom;
pos = (286,0);
},
{
name = center;
pos = (286,350);
},
{
name = hook;
pos = (12,699);
},
{
name = top;
pos = (286,700);
}
);
background = {
shapes = (
{
pos = (-81,0);
ref = H;
}
);
};
layerId = m01;
shapes = (
{
closed = 1;
nodes = (
(329,0,l),
(325,120,o),
(324,281,o),
(324,394,cs),
(324,426,o),
(324,441,o),
(351,447,cs),
(368,451,o),
(401,453,o),
(482,450,cs),
(560,447,l),
(560,699,l),
(12,699,l),
(12,447,l),
(90,450,ls),
(171,453,o),
(204,451,o),
(221,447,cs),
(248,441,o),
(248,426,o),
(248,394,cs),
(248,281,o),
(247,120,o),
(243,0,c)
);
}
);
width = 572;
},
{
anchors = (
{
name = bottom;
pos = (247,0);
},
{
name = center;
pos = (247,350);
},
{
name = hook;
pos = (7,700);
},
{
name = top;
pos = (247,700);
}
);
background = {
shapes = (
{
pos = (-77,0);
ref = H;
}
);
};
layerId = "60D037D9-62E9-4843-B070-F1594CB0B0D1";
shapes = (
{
closed = 1;
nodes = (
(263,0,l),
(260,294,o),
(258,542,o),
(258,604,cs),
(258,636,o),
(260,651,o),
(270,659,cs),
(278,665,o),
(287,667,o),
(418,665,cs),
(486,664,l),
(486,700,l),
(7,700,l),
(7,664,l),
(75,665,ls),
(206,667,o),
(215,665,o),
(223,659,cs),
(233,651,o),
(235,636,o),
(235,604,cs),
(235,542,o),
(234,294,o),
(231,0,c)
);
}
);
width = 493;
}
);
unicode = 84;
},
{
color = 0;
glyphname = Tbar;
lastChange = "2024-01-08 10:16:48 +0000";
layers = (
{
color = 0;
layerId = "60D037D9-62E9-4843-B070-F1594CB0B0D1";
shapes = (
{
ref = T;
},
{
closed = 1;
nodes = (
(230,335,o),
(322,335,o),
(373,333,c),
(373,364,l),
(322,362,o),
(230,362,o),
(179,364,c),
(179,333,l)
);
}
);
width = 551;
},
{
layerId = m01;
shapes = (
{
ref = T;
},
{
closed = 1;
nodes = (
(217,245,o),
(359,245,o),
(419,242,c),
(419,294,l),
(359,291,o),
(217,291,o),
(156,294,c),
(156,242,l)
);
}
);
width = 620;
}
);
unicode = 358;
},
{
color = 0;
glyphname = Tretroflexhook;
lastChange = "2024-01-09 01:08:26 +0000";
layers = (
{
layerId = "60D037D9-62E9-4843-B070-F1594CB0B0D1";
shapes = (
{
ref = T;
},
{
closed = 1;
nodes = (
(235,-161,o),
(366,-159,o),
(441,-128,c),
(441,-86,l),
(413,-102,o),
(352,-125,o),
(309,-104,cs),
(281,-91,o),
(261,-60,o),
(261,1,c),
(234,1,l)
);
}
);
width = 551;
},
{
layerId = m01;
shapes = (
{
ref = T;
},
{
closed = 1;
nodes = (
(242,-136,o),
(201,-246,o),
(480,-209,c),
(480,-34,l),
(403,-50,o),
(373,-47,o),
(350,-27,cs),
(324,-5,o),
(327,48,o),
(326,142,c),
(247,142,l)
);
}
);
width = 620;
}
);
unicode = 430;
},
{
color = 4;
glyphname = U;
lastChange = "2024-01-05 18:25:29 +0000";
layers = (
{
anchors = (
{
name = bottom;
pos = (311,0);
},
{
name = ogonek;
pos = (390,10);
},
{
name = top;
pos = (311,700);
},
{
name = topright;
pos = (494,700);
}
);
layerId = m01;
shapes = (
{
closed = 1;
nodes = (
(512,-9,o),
(574,59,o),
(576,302,cs),
(577,435,o),
(578,567,o),
(579,700,c),
(494,700,l),
(496,607,o),
(497,514,o),
(499,421,cs),
(501,334,o),
(486,326,o),
(309,326,cs),
(133,326,o),
(119,334,o),
(121,421,cs),
(123,514,o),
(125,607,o),
(127,700,c),
(42,700,l),
(42,570,o),
(43,440,o),
(43,310,cs),
(44,56,o),
(100,-9,o),
(309,-9,cs)
);
}
);
width = 621;
},
{
anchors = (
{
name = bottom;
pos = (294,0);
},
{
name = ogonek;
pos = (355,0);
},
{
name = top;
pos = (294,700);
},
{
name = topright;
pos = (489,700);
}
);
background = {
shapes = (
{
pos = (-5,0);
ref = H;
}
);
};
layerId = "60D037D9-62E9-4843-B070-F1594CB0B0D1";
shapes = (
{
closed = 1;
nodes = (
(481,-11,o),
(513,119,o),
(515,233,cs),
(516,273,o),
(515,516,o),
(519,700,c),
(489,700,l),
(492,538,o),
(493,376,o),
(493,214,cs),
(493,95,o),
(414,28,o),
(294,28,cs),
(174,28,o),
(95,95,o),
(95,214,cs),
(95,376,o),
(96,538,o),
(99,700,c),
(69,700,l),
(73,516,o),
(72,273,o),
(73,233,cs),
(75,115,o),
(109,-11,o),
(294,-11,cs)
);
}
);
width = 588;
}
);
metricLeft = O;
metricRight = O;
unicode = 85;
},
{
color = 0;
glyphname = Ubar;
lastChange = "2024-01-05 12:20:58 +0000";
layers = (
{
layerId = "60D037D9-62E9-4843-B070-F1594CB0B0D1";
shapes = (
{
ref = U;
},
{
closed = 1;
nodes = (
(165,507,o),
(427,507,o),
(572,505,c),
(572,536,l),
(427,534,o),
(165,534,o),
(20,536,c),
(20,505,l)
);
}
);
width = 588;
},
{
layerId = m01;
shapes = (
{
ref = U;
},
{
closed = 1;
nodes = (
(199,487,o),
(425,487,o),
(644,484,c),
(644,551,l),
(425,548,o),
(199,548,o),
(-23,551,c),
(-23,484,l)
);
}
);
width = 621;
}
);
unicode = 580;
},
{
color = 0;
glyphname = "Upsilon-latin";
lastChange = "2024-01-05 16:54:15 +0000";
layers = (
{
layerId = "60D037D9-62E9-4843-B070-F1594CB0B0D1";
shapes = (
{
closed = 1;
nodes = (
(289,700,l),
(82,700,l),
(82,661,l),
(217,664,o),
(224,668,o),
(224,660,cs),
(224,653,o),
(69,612,o),
(69,363,cs),
(69,134,o),
(166,-13,o),
(326,-16,c),
(485,-27,o),
(590,162,o),
(584,363,cs),
(577,612,o),
(439,652,o),
(439,661,cs),
(439,667,o),
(449,664,o),
(571,661,c),
(571,700,l),
(364,700,l),
(364,658,l),
(493,638,o),
(561,522,o),
(561,344,cs),
(561,138,o),
(468,18,o),
(327,16,cs),
(185,18,o),
(92,138,o),
(92,344,cs),
(92,522,o),
(160,638,o),
(289,658,c)
);
}
);
width = 653;
},
{
background = {
shapes = (
{
closed = 1;
nodes = (
(307,700,l),
(42,700,l),
(42,443,l),
(145,441,l),
(100,398,o),
(74,331,o),
(74,239,cs),
(74,80,o),
(180,-9,o),
(353,-10,cs),
(526,-9,o),
(632,80,o),
(632,239,cs),
(632,331,o),
(606,398,o),
(561,441,c),
(664,443,l),
(664,700,l),
(399,700,l),
(399,454,l),
(491,448,o),
(533,415,o),
(533,348,cs),
(533,277,o),
(476,245,o),
(353,245,cs),
(230,245,o),
(173,277,o),
(173,348,cs),
(173,415,o),
(215,448,o),
(307,454,c)
);
}
);
};
layerId = m01;
shapes = (
{
closed = 1;
nodes = (
(307,700,l),
(42,700,l),
(42,443,l),
(141,443,o),
(145,444,o),
(145,437,cs),
(145,426,o),
(74,375,o),
(74,239,cs),
(74,80,o),
(180,-9,o),
(353,-10,cs),
(526,-9,o),
(632,80,o),
(632,239,cs),
(632,375,o),
(561,426,o),
(561,437,cs),
(561,444,o),
(565,443,o),
(664,443,c),
(664,700,l),
(399,700,l),
(399,454,l),
(491,448,o),
(533,415,o),
(533,348,cs),
(533,277,o),
(476,245,o),
(353,245,cs),
(230,245,o),
(173,277,o),
(173,348,cs),
(173,415,o),
(215,448,o),
(307,454,c)
);
}
);
width = 706;
}
);
metricLeft = O;
metricRight = O;
unicode = 433;
},
{
color = 4;
glyphname = V;
lastChange = "2024-01-02 19:22:44 +0000";
layers = (
{
anchors = (
{
name = bottom;
pos = (323,0);
},
{
name = top;
pos = (323,700);
}
);
layerId = m01;
shapes = (
{
closed = 1;
nodes = (
(524,0,l),
(550,224,o),
(577,452,o),
(616,700,c),
(523,700,l),
(519,623,o),
(509,423,o),
(493,356,cs),
(485,324,o),
(470,319,o),
(323,319,cs),
(176,319,o),
(161,324,o),
(153,356,cs),
(137,423,o),
(127,623,o),
(123,700,c),
(30,700,l),
(69,452,o),
(93,224,o),
(119,0,c)
);
}
);
width = 646;
},
{
anchors = (
{
name = bottom;
pos = (312,0);
},
{
name = top;
pos = (312,700);
}
);
layerId = "60D037D9-62E9-4843-B070-F1594CB0B0D1";
shapes = (
{
closed = 1;
nodes = (
(425,0,l),
(457,232,o),
(510,468,o),
(558,700,c),
(523,700,l),
(495,490,o),
(441,282,o),
(405,70,cs),
(400,39,o),
(392,37,o),
(307,37,cs),
(222,37,o),
(214,39,o),
(209,70,cs),
(173,282,o),
(119,490,o),
(91,700,c),
(56,700,l),
(104,468,o),
(157,232,o),
(189,0,c)
);
}
);
width = 624;
}
);
metricLeft = A;
metricRight = A;
unicode = 86;
},
{
color = 4;
glyphname = Vhook;
lastChange = "2024-01-05 18:36:25 +0000";
layers = (
{
layerId = "60D037D9-62E9-4843-B070-F1594CB0B0D1";
shapes = (
{
closed = 1;
nodes = (
(425,0,l),
(451,188,o),
(481,323,o),
(504,440,cs),
(543,643,o),
(517,700,o),
(422,700,c),
(422,638,l),
(485,638,o),
(503,600,o),
(481,455,cs),
(467,365,o),
(462,339,o),
(405,70,cs),
(398,39,o),
(394,37,o),
(307,37,cs),
(221,37,o),
(215,39,o),
(209,70,cs),
(141,421,o),
(117,506,o),
(91,700,c),
(56,700,l),
(104,468,o),
(157,232,o),
(189,0,c)
);
}
);
width = 587;
},
{
background = {
shapes = (
{
pos = (1315,0);
ref = Whook;
scale = (-1,1);
}
);
};
layerId = m01;
shapes = (
{
closed = 1;
nodes = (
(525,0,l),
(545,168,o),
(552,282,o),
(583,516,cs),
(604,675,o),
(567,720,o),
(425,710,c),
(425,595,l),
(515,604,o),
(512,570,o),
(509,530,cs),
(506,488,o),
(495,380,o),
(489,356,cs),
(482,324,o),
(466,319,o),
(316,319,cs),
(185,319,o),
(165,323,o),
(160,355,cs),
(147,435,o),
(144,461,o),
(129,700,c),
(30,700,l),
(56,535,o),
(67,449,o),
(119,0,c)
);
}
);
width = 618;
}
);
metricLeft = V;
metricRight = V;
unicode = 434;
},
{
color = 4;
glyphname = W;
lastChange = "2024-01-03 08:11:43 +0000";
layers = (
{
anchors = (
{
name = bottom;
pos = (423,0);
},
{
name = top;
pos = (423,700);
}
);
background = {
shapes = (
{
pos = (74,0);
ref = O;
}
);
};
layerId = m01;
shapes = (
{
closed = 1;
nodes = (
(359,0,l),
(376,319,o),
(381,347,o),
(420,347,cs),
(457,347,o),
(462,319,o),
(486,0,c),
(736,0,l),
(744,116,o),
(754,233,o),
(767,350,cs),
(780,467,o),
(796,583,o),
(815,700,c),
(722,700,l),
(717,603,o),
(711,488,o),
(703,421,cs),
(699,387,o),
(691,365,o),
(678,354,cs),
(666,342,o),
(634,341,o),
(614,341,cs),
(594,341,o),
(563,342,o),
(545,358,cs),
(518,384,o),
(513,407,o),
(477,700,c),
(368,700,l),
(332,407,o),
(327,384,o),
(300,358,cs),
(282,342,o),
(251,341,o),
(231,341,cs),
(211,341,o),
(179,342,o),
(167,354,cs),
(154,365,o),
(146,387,o),
(142,421,cs),
(134,488,o),
(128,603,o),
(123,700,c),
(30,700,l),
(49,583,o),
(65,467,o),
(78,350,cs),
(91,233,o),
(101,116,o),
(109,0,c)
);
}
);
width = 845;
},
{
anchors = (
{
name = bottom;
pos = (377,0);
},
{
name = top;
pos = (377,700);
}
);
layerId = "60D037D9-62E9-4843-B070-F1594CB0B0D1";
shapes = (
{
closed = 1;
nodes = (
(252,0,l),
(344,529,o),
(344,529,o),
(376,529,cs),
(409,529,o),
(409,529,o),
(501,0,c),
(639,0,l),
(643,116,o),
(653,233,o),
(663,350,cs),
(673,467,o),
(682,583,o),
(698,700,c),
(665,700,l),
(651,493,o),
(637,350,o),
(630,253,cs),
(622,136,o),
(619,81,o),
(616,68,cs),
(610,42,o),
(588,38,o),
(566,38,cs),
(530,38,o),
(518,46,o),
(513,68,cs),
(495,154,o),
(448,442,o),
(424,566,c),
(328,566,l),
(304,442,o),
(258,154,o),
(240,68,cs),
(235,46,o),
(223,38,o),
(187,38,cs),
(165,38,o),
(143,42,o),
(137,68,cs),
(134,81,o),
(131,136,o),
(123,253,cs),
(116,350,o),
(103,493,o),
(89,700,c),
(56,700,l),
(72,583,o),
(80,467,o),
(90,350,cs),
(100,233,o),
(110,116,o),
(114,0,c)
);
}
);
width = 764;
}
);
metricLeft = A;
metricRight = A;
unicode = 87;
},
{
color = 0;
glyphname = Whook;
lastChange = "2024-01-05 16:44:16 +0000";
layers = (
{
anchors = (
{
name = bottom;
pos = (377,0);
},
{
name = top;
pos = (377,700);
}
);
layerId = "60D037D9-62E9-4843-B070-F1594CB0B0D1";
shapes = (
{
closed = 1;
nodes = (
(252,0,l),
(344,529,o),
(344,529,o),
(376,529,cs),
(409,529,o),
(409,529,o),
(501,0,c),
(639,0,l),
(643,116,o),
(673,504,o),
(688,618,cs),
(694,662,o),
(729,676,o),
(794,661,c),
(794,707,l),
(714,717,o),
(667,691,o),
(660,620,cs),
(639,414,o),
(637,350,o),
(630,253,cs),
(622,136,o),
(619,81,o),
(616,68,cs),
(610,42,o),
(588,38,o),
(566,38,cs),
(530,38,o),
(518,46,o),
(513,68,cs),
(495,154,o),
(448,442,o),
(424,566,c),
(328,566,l),
(304,442,o),
(258,154,o),
(240,68,cs),
(235,46,o),
(223,38,o),
(187,38,cs),
(165,38,o),
(143,42,o),
(137,68,cs),
(134,81,o),
(131,136,o),
(123,253,cs),
(116,350,o),
(103,493,o),
(89,700,c),
(56,700,l),
(72,583,o),
(80,467,o),
(90,350,cs),
(100,233,o),
(110,116,o),
(114,0,c)
);
}
);
width = 764;
},
{
anchors = (
{
name = bottom;
pos = (423,0);
},
{
name = top;
pos = (423,700);
}
);
background = {
shapes = (
{
pos = (176,0);
ref = Khook;
}
);
};
layerId = m01;
shapes = (
{
closed = 1;
nodes = (
(359,0,l),
(376,319,o),
(381,347,o),
(420,347,cs),
(457,347,o),
(462,319,o),
(486,0,c),
(736,0,l),
(744,116,o),
(746,233,o),
(764,404,cs),
(778,534,o),
(773,618,o),
(890,594,c),
(890,709,l),
(770,714,o),
(732,716,o),
(716,537,cs),
(713,508,o),
(711,482,o),
(703,421,cs),
(699,388,o),
(691,365,o),
(678,354,cs),
(666,342,o),
(634,341,o),
(614,341,cs),
(594,341,o),
(563,342,o),
(545,358,cs),
(518,384,o),
(513,407,o),
(477,700,c),
(368,700,l),
(332,407,o),
(327,384,o),
(300,358,cs),
(282,342,o),
(251,341,o),
(231,341,cs),
(211,341,o),
(179,342,o),
(167,354,cs),
(154,365,o),
(146,387,o),
(142,421,cs),
(134,488,o),
(128,603,o),
(123,700,c),
(30,700,l),
(49,583,o),
(65,467,o),
(78,350,cs),
(91,233,o),
(101,116,o),
(109,0,c)
);
}
);
width = 845;
}
);
unicode = 11378;
},
{
color = 4;
glyphname = X;
lastChange = "2024-01-05 01:09:18 +0000";
layers = (
{
anchors = (
{
name = bottom;
pos = (346,0);
},
{
name = top;
pos = (346,700);
}
);
background = {
shapes = (
{
pos = (23,0);
ref = V;
}
);
};
layerId = m01;
shapes = (
{
closed = 1;
nodes = (
(131,0,l),
(159,113,o),
(174,169,o),
(201,194,cs),
(226,217,o),
(260,215,o),
(346,215,cs),
(432,215,o),
(466,215,o),
(491,192,cs),
(518,167,o),
(533,113,o),
(561,0,c),
(662,0,l),
(555,313,o),
(547,331,o),
(547,361,cs),
(547,391,o),
(553,408,o),
(647,700,c),
(546,700,l),
(529,617,o),
(522,560,o),
(493,537,cs),
(469,518,o),
(406,519,o),
(346,519,cs),
(286,519,o),
(223,518,o),
(199,537,cs),
(170,560,o),
(163,617,o),
(146,700,c),
(45,700,l),
(139,408,o),
(145,391,o),
(145,361,cs),
(145,331,o),
(137,313,o),
(30,0,c)
);
}
);
width = 692;
},
{
anchors = (
{
name = bottom;
pos = (283,0);
},
{
name = top;
pos = (283,700);
}
);
layerId = "60D037D9-62E9-4843-B070-F1594CB0B0D1";
shapes = (
{
closed = 1;
nodes = (
(89,0,l),
(171,215,o),
(209,316,o),
(223,330,cs),
(233,340,o),
(242,342,o),
(318,342,cs),
(394,342,o),
(403,341,o),
(414,330,cs),
(428,316,o),
(465,215,o),
(547,0,c),
(580,0,l),
(460,291,o),
(439,331,o),
(439,361,cs),
(439,391,o),
(451,409,o),
(571,700,c),
(538,700,l),
(465,507,o),
(425,405,o),
(413,392,cs),
(402,381,o),
(393,380,o),
(318,380,cs),
(243,380,o),
(233,382,o),
(223,392,cs),
(211,405,o),
(171,509,o),
(98,700,c),
(65,700,l),
(185,409,o),
(197,391,o),
(197,361,cs),
(197,331,o),
(176,291,o),
(56,0,c)
);
}
);
width = 646;
}
);
metricLeft = A;
metricRight = A;
unicode = 88;
},
{
color = 4;
glyphname = Y;
lastChange = "2024-01-04 16:52:02 +0000";
layers = (
{
anchors = (
{
name = bottom;
pos = (269,0);
},
{
name = top;
pos = (317,700);
},
{
name = topleft;
pos = (34,700);
}
);
background = {
shapes = (
{
pos = (-6,0);
ref = V;
}
);
};
layerId = m01;
shapes = (
{
closed = 1;
nodes = (
(307,-8,o),
(398,9,o),
(450,58,cs),
(501,107,o),
(521,189,o),
(527,236,cs),
(544,367,o),
(559,471,o),
(592,700,c),
(502,700,l),
(497,618,o),
(495,591,o),
(488,537,cs),
(483,502,o),
(450,496,o),
(317,496,cs),
(174,496,o),
(151,502,o),
(146,537,cs),
(139,591,o),
(137,618,o),
(132,700,c),
(42,700,l),
(81,471,o),
(96,403,o),
(116,272,c),
(454,272,l),
(445,239,o),
(361,205,o),
(269,205,cs),
(168,205,o),
(85,239,o),
(63,250,c),
(63,10,l),
(88,2,o),
(147,-8,o),
(218,-8,cs)
);
}
);
width = 592;
},
{
anchors = (
{
name = bottom;
pos = (256,0);
},
{
name = top;
pos = (313,700);
},
{
name = topleft;
pos = (69,700);
}
);
background = {
shapes = (
{
pos = (657,105);
ref = R;
scale = (-1,1);
}
);
};
layerId = "60D037D9-62E9-4843-B070-F1594CB0B0D1";
shapes = (
{
closed = 1;
nodes = (
(387,-10,o),
(436,69,o),
(477,240,cs),
(490,293,o),
(496,329,o),
(518,458,cs),
(546,621,o),
(545,601,o),
(562,700,c),
(529,700,l),
(510,561,o),
(489,447,o),
(482,424,cs),
(475,402,o),
(462,402,o),
(311,402,cs),
(150,402,o),
(157,396,o),
(143,458,cs),
(134,499,o),
(108,631,o),
(102,700,c),
(69,700,l),
(88,592,o),
(111,521,o),
(129,371,c),
(475,371,l),
(434,78,o),
(359,33,o),
(256,26,cs),
(208,23,o),
(162,29,o),
(105,42,c),
(105,0,l),
(149,-6,o),
(183,-10,o),
(220,-10,cs)
);
}
);
width = 631;
}
);
metricLeft = O;
unicode = 89;
},
{
color = 0;
glyphname = Yhook;
lastChange = "2024-01-05 16:43:10 +0000";
layers = (
{
layerId = "60D037D9-62E9-4843-B070-F1594CB0B0D1";
shapes = (
{
closed = 1;
nodes = (
(88,592,o),
(111,521,o),
(129,371,c),
(475,371,l),
(434,78,o),
(359,33,o),
(256,26,cs),
(208,23,o),
(162,29,o),
(105,42,c),
(105,0,l),
(149,-6,o),
(183,-10,o),
(220,-10,cs),
(387,-10,o),
(436,69,o),
(477,240,cs),
(490,293,o),
(496,329,o),
(518,458,cs),
(537,569,o),
(541,586,o),
(550,616,cs),
(563,661,o),
(585,676,o),
(651,661,c),
(651,707,l),
(571,717,o),
(536,690,o),
(522,620,cs),
(494,483,o),
(489,447,o),
(482,424,cs),
(475,402,o),
(462,402,o),
(311,402,cs),
(150,402,o),
(157,396,o),
(143,458,cs),
(134,499,o),
(108,631,o),
(102,700,c),
(69,700,l)
);
}
);
width = 631;
},
{
background = {
shapes = (
{
pos = (-228,0);
ref = Whook;
}
);
};
layerId = m01;
shapes = (
{
closed = 1;
nodes = (
(81,471,o),
(96,403,o),
(116,272,c),
(454,272,l),
(445,239,o),
(361,205,o),
(269,205,cs),
(168,205,o),
(85,239,o),
(63,250,c),
(63,10,l),
(88,2,o),
(147,-8,o),
(218,-8,cs),
(307,-8,o),
(398,9,o),
(450,58,cs),
(501,107,o),
(521,189,o),
(527,236,cs),
(540,335,o),
(540,448,o),
(552,530,cs),
(561,590,o),
(593,606,o),
(662,594,c),
(662,709,l),
(544,717,o),
(509,707,o),
(494,589,cs),
(492,573,o),
(491,557,o),
(488,537,cs),
(483,502,o),
(450,496,o),
(317,496,cs),
(174,496,o),
(151,502,o),
(146,537,cs),
(139,591,o),
(137,618,o),
(132,700,c),
(42,700,l)
);
}
);
width = 600;
}
);
unicode = 435;
},
{
color = 0;
glyphname = Ystroke;
lastChange = "2024-01-05 12:20:21 +0000";
layers = (
{
layerId = "60D037D9-62E9-4843-B070-F1594CB0B0D1";
shapes = (
{
ref = Y;
},
{
closed = 1;
nodes = (
(183,552,o),
(445,552,o),
(590,550,c),
(590,581,l),
(445,579,o),
(183,579,o),
(38,581,c),
(38,550,l)
);
}
);
width = 631;
},
{
layerId = m01;
shapes = (
{
ref = Y;
},
{
closed = 1;
nodes = (
(213,569,o),
(429,569,o),
(648,566,c),
(648,633,l),
(429,630,o),
(213,630,o),
(-9,633,c),
(-9,566,l)
);
}
);
width = 592;
}
);
unicode = 590;
},
{
color = 4;
glyphname = Z;
lastChange = "2024-01-03 11:01:40 +0000";
layers = (
{
anchors = (
{
name = bottom;
pos = (338,0);
},
{
name = center;
pos = (338,334);
},
{
name = top;
pos = (338,700);
}
);
background = {
shapes = (
{
pos = (17,0);
ref = E;
}
);
};
layerId = m01;
shapes = (
{
closed = 1;
nodes = (
(42,0,l),
(596,0,l),
(596,250,l),
(493,247,o),
(414,246,o),
(312,246,cs),
(268,246,o),
(264,247,o),
(264,259,cs),
(264,264,o),
(281,281,o),
(308,296,cs),
(374,333,o),
(499,398,o),
(596,450,c),
(596,700,l),
(42,700,l),
(42,451,l),
(123,451,o),
(155,450,o),
(234,451,cs),
(364,453,o),
(379,452,o),
(381,438,cs),
(382,430,o),
(381,424,o),
(362,412,cs),
(305,378,o),
(115,271,o),
(42,235,c)
);
}
);
width = 638;
},
{
anchors = (
{
name = bottom;
pos = (329,0);
},
{
name = center;
pos = (329,350);
},
{
name = top;
pos = (329,700);
}
);
background = {
shapes = (
{
pos = (27,0);
ref = E;
}
);
};
layerId = "60D037D9-62E9-4843-B070-F1594CB0B0D1";
shapes = (
{
closed = 1;
nodes = (
(69,0,l),
(535,0,l),
(535,37,l),
(391,35,o),
(298,35,o),
(267,35,cs),
(97,35,o),
(96,37,o),
(95,78,cs),
(94,112,o),
(97,125,o),
(119,147,cs),
(170,197,o),
(419,464,o),
(515,550,c),
(515,700,l),
(69,700,l),
(69,665,l),
(147,665,o),
(259,669,o),
(335,669,cs),
(479,669,o),
(488,669,o),
(488,611,cs),
(488,569,o),
(485,567,o),
(447,529,cs),
(385,467,o),
(126,200,o),
(69,139,c)
);
}
);
width = 604;
}
);
metricLeft = O;
metricRight = O;
unicode = 90;
},
{
color = 0;
glyphname = Zstroke;
lastChange = "2024-01-05 12:19:31 +0000";
layers = (
{
layerId = "60D037D9-62E9-4843-B070-F1594CB0B0D1";
shapes = (
{
ref = Z;
},
{
closed = 1;
nodes = (
(236,326,o),
(328,326,o),
(379,324,c),
(379,355,l),
(328,353,o),
(236,353,o),
(185,355,c),
(185,324,l)
);
}
);
width = 604;
},
{
layerId = m01;
shapes = (
{
ref = Z;
},
{
closed = 1;
nodes = (
(250,309,o),
(375,309,o),
(497,306,c),
(497,373,l),
(375,370,o),
(250,370,o),
(126,373,c),
(126,306,l)
);
}
);
width = 638;
}
);
unicode = 437;
},
{
color = 4;
glyphname = G.001;
lastChange = "2024-01-05 18:58:25 +0000";
layers = (
{
anchors = (
{
name = bottom;
pos = (354,0);
},
{
name = hook;
pos = (592,677);
},
{
name = top;
pos = (357,700);
}
);
background = {
shapes = (
{
ref = C;
}
);
};
layerId = m01;
shapes = (
{
closed = 1;
nodes = (
(502,361,o),
(321,363,o),
(299,364,c),
(299,293,l),
(318,294,o),
(460,296,o),
(519,296,c),
(490,247,o),
(382,245,o),
(306,245,cs),
(234,245,o),
(176,256,o),
(143,281,cs),
(122,297,o),
(112,320,o),
(112,350,cs),
(112,380,o),
(122,403,o),
(143,419,cs),
(176,444,o),
(234,455,o),
(306,455,cs),
(434,455,o),
(546,440,o),
(592,430,c),
(592,680,l),
(556,692,o),
(470,710,o),
(397,710,cs),
(154,710,o),
(42,597,o),
(42,350,cs),
(42,103,o),
(138,-10,o),
(315,-10,cs),
(418,-10,o),
(526,35,o),
(534,151,c),
(531,99,o),
(528,48,o),
(524,0,c),
(600,0,l),
(597,113,o),
(597,248,o),
(600,361,c),
(538,361,ls)
);
}
);
width = 642;
},
{
anchors = (
{
name = bottom;
pos = (323,0);
},
{
name = hook;
pos = (520,680);
},
{
name = top;
pos = (332,700);
}
);
background = {
shapes = (
{
pos = (-14,0);
ref = C;
}
);
};
layerId = "60D037D9-62E9-4843-B070-F1594CB0B0D1";
shapes = (
{
closed = 1;
nodes = (
(397,296,o),
(371,296,o),
(326,297,c),
(326,260,l),
(372,261,o),
(402,261,o),
(507,261,c),
(507,113,o),
(453,29,o),
(306,29,cs),
(221,29,o),
(162,71,o),
(129,128,cs),
(91,194,o),
(78,281,o),
(78,350,cs),
(78,455,o),
(110,541,o),
(164,597,cs),
(211,644,o),
(275,671,o),
(350,671,cs),
(404,671,o),
(460,657,o),
(520,630,c),
(520,680,l),
(471,698,o),
(412,708,o),
(362,708,cs),
(175,708,o),
(55,567,o),
(55,350,cs),
(55,138,o),
(147,-8,o),
(307,-8,cs),
(461,-8,o),
(499,94,o),
(505,152,c),
(505,103,o),
(502,49,o),
(501,0,c),
(530,0,l),
(527,157,o),
(530,254,o),
(530,296,c),
(501,296,ls)
);
}
);
width = 599;
}
);
metricLeft = C;
metricRight = O;
},
{
color = 4;
glyphname = K.001;
lastChange = "2024-01-05 18:54:33 +0000";
layers = (
{
anchors = (
{
name = bottom;
pos = (283,0);
},
{
name = top;
pos = (283,700);
}
);
background = {
shapes = (
{
pos = (-7,0);
ref = H;
}
);
};
layerId = "60D037D9-62E9-4843-B070-F1594CB0B0D1";
shapes = (
{
closed = 1;
nodes = (
(114,0,l),
(110,107,o),
(108,213,o),
(108,319,cs),
(108,346,o),
(126,351,o),
(228,351,cs),
(336,351,o),
(340,342,o),
(358,307,cs),
(449,135,o),
(479,82,o),
(511,0,c),
(555,0,l),
(465,164,o),
(365,316,o),
(365,371,cs),
(365,428,o),
(474,611,o),
(503,700,c),
(467,700,l),
(443,621,o),
(400,526,o),
(353,426,cs),
(337,393,o),
(323,385,o),
(227,385,cs),
(127,385,o),
(108,390,o),
(108,418,cs),
(108,512,o),
(111,606,o),
(114,700,c),
(82,700,l),
(90,467,o),
(90,233,o),
(82,0,c)
);
}
);
width = 567;
},
{
anchors = (
{
name = bottom;
pos = (319,0);
},
{
name = top;
pos = (319,700);
}
);
background = {
shapes = (
{
pos = (-14,0);
ref = H;
}
);
};
layerId = m01;
shapes = (
{
closed = 1;
nodes = (
(145,0,l),
(141,92,o),
(140,159,o),
(148,186,cs),
(156,212,o),
(182,219,o),
(289,221,cs),
(392,223,o),
(437,217,o),
(459,174,cs),
(508,80,o),
(518,46,o),
(530,0,c),
(648,0,l),
(566,174,o),
(485,298,o),
(485,365,cs),
(485,439,o),
(590,615,o),
(609,700,c),
(511,700,l),
(501,649,o),
(478,589,o),
(457,551,cs),
(436,513,o),
(407,511,o),
(284,511,cs),
(197,511,o),
(166,512,o),
(151,527,cs),
(139,539,o),
(139,559,o),
(146,700,c),
(58,700,l),
(69,467,o),
(69,233,o),
(58,0,c)
);
}
);
width = 648;
}
);
metricLeft = H;
},
{
color = 4;
glyphname = Ismall;
lastChange = "2024-01-05 01:49:41 +0000";
layers = (
{
layerId = "60D037D9-62E9-4843-B070-F1594CB0B0D1";
shapes = (
{
closed = 1;
nodes = (
(72,0,l),
(313,0,l),
(313,36,l),
(232,36,o),
(223,36,o),
(215,42,cs),
(207,49,o),
(204,57,o),
(204,239,cs),
(204,386,o),
(202,427,o),
(216,438,cs),
(224,444,o),
(233,444,o),
(314,444,c),
(314,480,l),
(72,480,l),
(72,444,l),
(153,444,o),
(162,444,o),
(170,438,cs),
(184,427,o),
(182,386,o),
(182,239,cs),
(182,57,o),
(178,49,o),
(170,42,cs),
(162,36,o),
(153,36,o),
(72,36,c)
);
}
);
width = 386;
},
{
layerId = m01;
shapes = (
{
closed = 1;
nodes = (
(42,0,l),
(433,0,l),
(433,150,l),
(344,148,o),
(313,150,o),
(297,161,cs),
(277,174,o),
(273,189,o),
(273,250,cs),
(273,310,o),
(277,326,o),
(297,339,cs),
(313,350,o),
(344,352,o),
(433,350,c),
(433,500,l),
(42,500,l),
(42,350,l),
(131,352,o),
(162,350,o),
(178,339,cs),
(198,326,o),
(202,310,o),
(202,250,cs),
(202,189,o),
(198,174,o),
(178,161,cs),
(162,150,o),
(131,148,o),
(42,150,c)
);
}
);
width = 475;
}
);
unicode = 618;
},
{
color = 4;
glyphname = a;
lastChange = "2024-01-09 15:15:43 +0000";
layers = (
{
anchors = (
{
name = bottom;
pos = (273,0);
},
{
name = ogonek;
pos = (508,2);
},
{
name = top;
pos = (273,500);
}
);
background = {
shapes = (
{
pos = (-16,0);
ref = o;
}
);
};
layerId = m01;
shapes = (
{
closed = 1;
nodes = (
(337,-8,o),
(373,28,o),
(397,58,cs),
(416,81,o),
(422,91,o),
(429,91,cs),
(439,91,o),
(439,81,o),
(439,64,cs),
(439,49,o),
(437,25,o),
(435,0,c),
(507,0,l),
(504,195,o),
(504,303,o),
(507,500,c),
(435,500,l),
(437,475,o),
(439,451,o),
(439,436,cs),
(439,419,o),
(439,409,o),
(429,409,cs),
(422,409,o),
(416,419,o),
(397,442,cs),
(373,472,o),
(337,508,o),
(241,508,cs),
(95,508,o),
(30,426,o),
(30,250,cs),
(30,74,o),
(95,-8,o),
(241,-8,cs)
);
},
{
closed = 1;
nodes = (
(145,184,o),
(90,199,o),
(90,250,cs),
(90,301,o),
(145,320,o),
(266,319,cs),
(393,318,o),
(441,301,o),
(441,250,cs),
(441,199,o),
(393,182,o),
(266,183,cs)
);
}
);
width = 543;
},
{
anchors = (
{
name = bottom;
pos = (271,0);
},
{
name = ogonek;
pos = (496,0);
},
{
name = top;
pos = (271,492);
}
);
background = {
shapes = (
{
ref = o;
}
);
};
layerId = "60D037D9-62E9-4843-B070-F1594CB0B0D1";
shapes = (
{
closed = 1;
nodes = (
(349,-16,o),
(398,33,o),
(419,62,cs),
(434,83,o),
(436,87,o),
(443,87,cs),
(450,87,o),
(450,80,o),
(450,53,cs),
(450,38,o),
(450,22,o),
(449,0,c),
(476,0,l),
(472,347,o),
(472,367,o),
(476,480,c),
(449,480,l),
(450,458,o),
(450,442,o),
(450,430,cs),
(450,400,o),
(450,393,o),
(443,393,cs),
(436,393,o),
(434,397,o),
(419,418,cs),
(398,447,o),
(354,496,o),
(263,496,cs),
(138,496,o),
(60,400,o),
(60,240,cs),
(60,80,o),
(138,-16,o),
(263,-16,cs)
);
},
{
closed = 1;
nodes = (
(144,21,o),
(81,104,o),
(81,240,cs),
(81,376,o),
(144,459,o),
(263,459,cs),
(383,459,o),
(453,384,o),
(453,240,cs),
(453,96,o),
(383,21,o),
(263,21,cs)
);
}
);
width = 562;
}
);
metricLeft = o;
metricRight = n;
unicode = 97;
},
{
color = 0;
glyphname = "alpha-latin";
lastChange = "2024-01-08 09:34:23 +0000";
layers = (
{
anchors = (
{
name = bottom;
pos = (271,0);
},
{
name = ogonek;
pos = (496,0);
},
{
name = top;
pos = (271,480);
}
);
layerId = "60D037D9-62E9-4843-B070-F1594CB0B0D1";
shapes = (
{
closed = 1;
nodes = (
(349,-16,o),
(398,33,o),
(419,62,cs),
(434,83,o),
(436,87,o),
(443,87,cs),
(450,87,o),
(450,80,o),
(450,53,cs),
(450,-12,o),
(480,-14,o),
(505,-8,c),
(505,27,l),
(477,22,o),
(472,27,o),
(470,73,cs),
(467,351,o),
(472,375,o),
(476,480,c),
(449,480,l),
(450,458,o),
(450,442,o),
(450,430,cs),
(450,400,o),
(450,393,o),
(443,393,cs),
(436,393,o),
(434,397,o),
(419,418,cs),
(398,447,o),
(354,496,o),
(263,496,cs),
(138,496,o),
(60,400,o),
(60,240,cs),
(60,80,o),
(138,-16,o),
(263,-16,cs)
);
},
{
closed = 1;
nodes = (
(81,376,o),
(144,459,o),
(263,459,cs),
(383,459,o),
(453,384,o),
(453,240,cs),
(453,96,o),
(383,21,o),
(263,21,cs),
(144,21,o),
(81,104,o),
(81,240,cs)
);
}
);
width = 562;
},
{
anchors = (
{
name = bottom;
pos = (273,0);
},
{
name = ogonek;
pos = (539,2);
},
{
name = top;
pos = (273,500);
}
);
layerId = m01;
shapes = (
{
closed = 1;
nodes = (
(337,-8,o),
(373,28,o),
(397,58,cs),
(416,81,o),
(422,91,o),
(429,91,cs),
(436,91,o),
(437,87,o),
(439,79,c),
(443,1,o),
(486,-6,o),
(559,1,c),
(559,91,l),
(530,87,o),
(509,87,o),
(505,120,c),
(504,248,o),
(505,347,o),
(507,500,c),
(435,500,l),
(437,475,o),
(439,451,o),
(439,436,cs),
(439,419,o),
(439,409,o),
(429,409,cs),
(422,409,o),
(416,419,o),
(397,442,cs),
(373,472,o),
(337,508,o),
(241,508,cs),
(95,508,o),
(30,426,o),
(30,250,cs),
(30,74,o),
(95,-8,o),
(241,-8,cs)
);
},
{
closed = 1;
nodes = (
(90,301,o),
(145,320,o),
(266,319,cs),
(393,318,o),
(441,301,o),
(441,250,cs),
(441,199,o),
(393,182,o),
(266,183,cs),
(145,184,o),
(90,199,o),
(90,250,cs)
);
}
);
width = 543;
}
);
unicode = 593;
},
{
color = 0;
glyphname = ae;
lastChange = "2024-01-05 18:58:25 +0000";
layers = (
{
anchors = (
{
name = bottom;
pos = (426,0);
},
{
name = top;
pos = (426,480);
}
);
layerId = "60D037D9-62E9-4843-B070-F1594CB0B0D1";
shapes = (
{
closed = 1;
nodes = (
(677,-18,o),
(718,-8,o),
(770,9,c),
(770,39,l),
(715,23,o),
(676,19,o),
(638,19,cs),
(503,19,o),
(439,73,o),
(420,199,c),
(796,199,l),
(796,370,o),
(752,494,o),
(598,494,cs),
(463,494,o),
(399,390,o),
(399,229,cs),
(399,81,o),
(480,-18,o),
(628,-18,cs)
);
},
{
closed = 1;
nodes = (
(316,-13,o),
(346,21,o),
(367,40,cs),
(385,56,o),
(388,66,o),
(392,66,cs),
(397,66,o),
(400,60,o),
(400,36,cs),
(400,28,o),
(399,14,o),
(397,0,c),
(422,0,l),
(418,117,o),
(417,197,o),
(417,314,cs),
(417,431,o),
(351,496,o),
(230,496,cs),
(192,496,o),
(153,490,o),
(113,478,c),
(113,445,l),
(161,460,o),
(205,467,o),
(235,467,cs),
(335,467,o),
(400,411,o),
(400,320,cs),
(400,295,o),
(397,285,o),
(391,285,cs),
(387,285,o),
(387,288,o),
(370,306,cs),
(352,325,o),
(314,362,o),
(241,362,cs),
(131,362,o),
(60,290,o),
(60,176,cs),
(60,61,o),
(134,-13,o),
(239,-13,cs)
);
},
{
closed = 1;
nodes = (
(138,18,o),
(81,79,o),
(81,176,cs),
(81,272,o),
(141,330,o),
(241,330,cs),
(340,330,o),
(400,272,o),
(400,174,cs),
(400,75,o),
(337,18,o),
(239,18,cs)
);
},
{
closed = 1;
nodes = (
(420,389,o),
(482,457,o),
(598,457,cs),
(718,457,o),
(774,383,o),
(771,226,c),
(420,226,l)
);
}
);
width = 848;
},
{
anchors = (
{
name = bottom;
pos = (419,0);
},
{
name = top;
pos = (419,500);
}
);
layerId = m01;
shapes = (
{
closed = 1;
nodes = (
(731,-9,o),
(765,-2,o),
(803,10,c),
(803,204,l),
(728,186,o),
(678,179,o),
(620,179,cs),
(524,179,o),
(468,192,o),
(452,231,c),
(815,231,l),
(815,439,o),
(759,509,o),
(602,509,cs),
(469,509,o),
(389,412,o),
(389,251,cs),
(389,73,o),
(466,-9,o),
(665,-9,cs)
);
},
{
closed = 1;
nodes = (
(313,-7,o),
(340,22,o),
(355,41,cs),
(367,57,o),
(376,65,o),
(382,65,cs),
(389,65,o),
(392,57,o),
(392,45,cs),
(392,34,o),
(391,17,o),
(389,-1,c),
(456,-1,l),
(453,142,o),
(454,255,o),
(454,290,cs),
(454,439,o),
(388,508,o),
(217,508,cs),
(152,508,o),
(92,498,o),
(57,490,c),
(57,340,l),
(78,349,o),
(173,372,o),
(234,372,cs),
(366,372,o),
(384,330,o),
(391,282,cs),
(393,270,o),
(390,262,o),
(382,262,cs),
(376,262,o),
(368,270,o),
(355,286,cs),
(340,304,o),
(313,334,o),
(219,334,cs),
(88,334,o),
(33,281,o),
(30,177,cs),
(27,49,o),
(88,-7,o),
(219,-7,cs)
);
},
{
closed = 1;
nodes = (
(123,131,o),
(85,142,o),
(85,161,cs),
(85,181,o),
(123,191,o),
(232,191,cs),
(341,191,o),
(378,181,o),
(378,161,cs),
(378,142,o),
(341,131,o),
(232,131,cs)
);
},
{
closed = 1;
nodes = (
(459,318,o),
(518,344,o),
(602,344,cs),
(691,344,o),
(750,318,o),
(752,286,c),
(457,286,l)
);
}
);
width = 847;
}
);
metricLeft = a;
metricRight = e;
unicode = 230;
},
{
color = 4;
glyphname = b;
lastChange = "2024-01-09 15:16:07 +0000";
layers = (
{
anchors = (
{
name = bottom;
pos = (348,0);
},
{
name = center;
pos = (87,585);
},
{
name = top;
pos = (348,500);
}
);
background = {
shapes = (
{
pos = (646,0);
ref = a;
scale = (-1,1);
}
);
};
layerId = m01;
shapes = (
{
closed = 1;
nodes = (
(462,-8,o),
(527,74,o),
(527,250,cs),
(527,426,o),
(462,508,o),
(316,508,cs),
(220,508,o),
(184,472,o),
(160,442,cs),
(141,419,o),
(135,409,o),
(128,409,cs),
(118,409,o),
(118,419,o),
(118,436,cs),
(118,451,o),
(120,715,o),
(122,740,c),
(50,740,l),
(53,543,o),
(53,195,o),
(50,0,c),
(122,0,l),
(120,25,o),
(118,49,o),
(118,64,cs),
(118,81,o),
(118,91,o),
(128,91,cs),
(135,91,o),
(141,81,o),
(160,58,cs),
(184,28,o),
(220,-8,o),
(316,-8,cs)
);
},
{
closed = 1;
nodes = (
(164,182,o),
(116,199,o),
(116,250,cs),
(116,301,o),
(164,318,o),
(291,319,cs),
(412,320,o),
(467,301,o),
(467,250,cs),
(467,199,o),
(412,184,o),
(291,183,cs)
);
}
);
width = 557;
},
{
anchors = (
{
name = bottom;
pos = (292,0);
},
{
name = center;
pos = (108,590);
},
{
name = top;
pos = (292,491);
}
);
background = {
shapes = (
{
pos = (6,0);
ref = o;
}
);
};
layerId = "60D037D9-62E9-4843-B070-F1594CB0B0D1";
shapes = (
{
closed = 1;
nodes = (
(432,-16,o),
(510,80,o),
(510,240,cs),
(510,400,o),
(432,496,o),
(307,496,cs),
(221,496,o),
(172,447,o),
(151,418,cs),
(136,397,o),
(134,393,o),
(127,393,cs),
(120,393,o),
(120,400,o),
(120,427,cs),
(120,504,o),
(118,656,o),
(121,740,c),
(94,740,l),
(98,393,o),
(98,347,o),
(94,0,c),
(121,0,l),
(120,22,o),
(120,38,o),
(120,50,cs),
(120,80,o),
(120,87,o),
(127,87,cs),
(134,87,o),
(136,83,o),
(151,62,cs),
(172,33,o),
(216,-16,o),
(307,-16,cs)
);
},
{
closed = 1;
nodes = (
(187,21,o),
(117,96,o),
(117,240,cs),
(117,384,o),
(187,459,o),
(307,459,cs),
(426,459,o),
(489,376,o),
(489,240,cs),
(489,104,o),
(426,21,o),
(307,21,cs)
);
}
);
width = 570;
}
);
metricLeft = n;
metricRight = o;
unicode = 98;
},
{
color = 0;
glyphname = bhook;
lastChange = "2024-01-09 14:27:35 +0000";
layers = (
{
anchors = (
{
name = bottom;
pos = (292,0);
},
{
name = center;
pos = (108,590);
},
{
name = top;
pos = (292,480);
}
);
background = {
shapes = (
{
ref = b;
}
);
};
layerId = "60D037D9-62E9-4843-B070-F1594CB0B0D1";
shapes = (
{
closed = 1;
nodes = (
(432,-16,o),
(510,80,o),
(510,240,cs),
(510,400,o),
(432,496,o),
(307,496,cs),
(221,496,o),
(172,447,o),
(151,418,cs),
(136,397,o),
(134,393,o),
(127,393,cs),
(120,393,o),
(120,400,o),
(120,427,cs),
(120,661,o),
(114,670,o),
(133,689,cs),
(144,700,o),
(178,702,o),
(211,693,c),
(211,721,l),
(178,726,o),
(147,730,o),
(127,718,cs),
(89,695,o),
(95,684,o),
(97,461,cs),
(98,323,o),
(96,154,o),
(94,0,c),
(121,0,l),
(120,22,o),
(120,38,o),
(120,50,cs),
(120,80,o),
(120,87,o),
(127,87,cs),
(134,87,o),
(136,83,o),
(151,62,cs),
(172,33,o),
(216,-16,o),
(307,-16,cs)
);
},
{
closed = 1;
nodes = (
(187,21,o),
(117,96,o),
(117,240,cs),
(117,384,o),
(187,459,o),
(307,459,cs),
(426,459,o),
(489,376,o),
(489,240,cs),
(489,104,o),
(426,21,o),
(307,21,cs)
);
}
);
width = 570;
},
{
anchors = (
{
name = bottom;
pos = (348,0);
},
{
name = center;
pos = (87,585);
},
{
name = top;
pos = (348,500);
}
);
background = {
shapes = (
{
ref = b;
}
);
};
layerId = m01;
shapes = (
{
closed = 1;
nodes = (
(462,-8,o),
(527,74,o),
(527,250,cs),
(527,426,o),
(462,508,o),
(316,508,cs),
(220,508,o),
(184,472,o),
(160,442,cs),
(141,419,o),
(135,409,o),
(128,409,cs),
(118,409,o),
(118,419,o),
(118,436,cs),
(118,450,o),
(113,593,o),
(120,638,cs),
(126,678,o),
(150,686,o),
(229,669,c),
(229,740,l),
(131,760,o),
(95,744,o),
(77,725,cs),
(53,699,o),
(50,684,o),
(52,508,cs),
(53,404,o),
(50,245,o),
(50,0,c),
(122,0,l),
(120,25,o),
(118,49,o),
(118,64,cs),
(118,81,o),
(118,91,o),
(128,91,cs),
(135,91,o),
(141,81,o),
(160,58,cs),
(184,28,o),
(220,-8,o),
(316,-8,cs)
);
},
{
closed = 1;
nodes = (
(164,182,o),
(116,199,o),
(116,250,cs),
(116,301,o),
(164,318,o),
(291,319,cs),
(412,320,o),
(467,301,o),
(467,250,cs),
(467,199,o),
(412,184,o),
(291,183,cs)
);
}
);
width = 557;
}
);
unicode = 595;
},
{
color = 4;
glyphname = bilabialclick;
lastChange = "2024-01-08 09:50:10 +0000";
layers = (
{
layerId = "60D037D9-62E9-4843-B070-F1594CB0B0D1";
shapes = (
{
closed = 1;
nodes = (
(361,311,o),
(379,329,o),
(379,350,cs),
(379,371,o),
(361,389,o),
(340,389,cs),
(319,389,o),
(301,371,o),
(301,350,cs),
(301,329,o),
(319,311,o),
(340,311,cs)
);
},
{
ref = O;
}
);
width = 680;
},
{
layerId = m01;
shapes = (
{
closed = 1;
nodes = (
(378,294,o),
(403,319,o),
(403,350,cs),
(403,381,o),
(378,406,o),
(347,406,cs),
(316,406,o),
(291,381,o),
(291,350,cs),
(291,319,o),
(316,294,o),
(347,294,cs)
);
},
{
ref = O;
}
);
width = 694;
}
);
unicode = 664;
},
{
color = 4;
glyphname = c;
lastChange = "2024-01-09 15:16:27 +0000";
layers = (
{
anchors = (
{
name = bottom;
pos = (254,0);
},
{
name = center;
pos = (256,245);
},
{
name = top;
pos = (264,500);
}
);
background = {
shapes = (
{
ref = o;
}
);
};
layerId = m01;
shapes = (
{
closed = 1;
nodes = (
(352,-8,o),
(403,3,o),
(445,20,c),
(445,199,l),
(420,192,o),
(329,180,o),
(265,180,cs),
(140,180,o),
(90,194,o),
(90,250,cs),
(90,306,o),
(140,319,o),
(265,319,cs),
(329,319,o),
(420,306,o),
(445,299,c),
(445,484,l),
(403,498,o),
(352,508,o),
(291,508,cs),
(113,508,o),
(30,422,o),
(30,250,cs),
(30,78,o),
(113,-8,o),
(291,-8,cs)
);
}
);
width = 477;
},
{
anchors = (
{
name = bottom;
pos = (265,0);
},
{
name = center;
pos = (236,245);
},
{
name = top;
pos = (273,492);
}
);
background = {
shapes = (
{
pos = (-35,0);
ref = o;
}
);
};
guides = (
{
locked = 1;
pos = (143,240);
}
);
layerId = "60D037D9-62E9-4843-B070-F1594CB0B0D1";
shapes = (
{
closed = 1;
nodes = (
(324,-16,o),
(367,-9,o),
(403,3,c),
(403,43,l),
(364,30,o),
(332,20,o),
(277,20,cs),
(180,20,o),
(81,77,o),
(81,240,cs),
(81,403,o),
(180,461,o),
(277,461,cs),
(326,461,o),
(367,450,o),
(403,437,c),
(403,477,l),
(367,489,o),
(334,496,o),
(286,496,cs),
(156,496,o),
(60,415,o),
(60,240,cs),
(60,65,o),
(156,-16,o),
(281,-16,cs)
);
}
);
width = 455;
}
);
metricLeft = o;
unicode = 99;
},
{
color = 0;
glyphname = "chi-latin";
lastChange = "2024-01-09 14:23:46 +0000";
layers = (
{
layerId = "60D037D9-62E9-4843-B070-F1594CB0B0D1";
shapes = (
{
closed = 1;
nodes = (
(552,-139,l),
(496,-195,o),
(448,-179,o),
(425,-150,cs),
(383,-97,o),
(251,352,o),
(196,438,cs),
(162,490,o),
(82,480,o),
(56,425,c),
(56,379,l),
(107,454,o),
(159,439,o),
(182,410,cs),
(224,357,o),
(356,-92,o),
(411,-178,cs),
(445,-230,o),
(516,-236,o),
(552,-185,c)
);
},
{
closed = 1;
nodes = (
(135,-220,l),
(255,17,o),
(378,243,o),
(510,480,c),
(473,480,l),
(353,243,o),
(232,17,o),
(99,-220,c)
);
}
);
width = 600;
},
{
layerId = m01;
shapes = (
{
closed = 1;
nodes = (
(614,21,l),
(577,-74,o),
(480,-99,o),
(442,-28,cs),
(355,134,o),
(305,311,o),
(242,426,cs),
(188,525,o),
(75,517,o),
(28,472,c),
(28,288,l),
(63,364,o),
(164,397,o),
(205,330,cs),
(239,274,o),
(337,0,o),
(411,-135,cs),
(453,-211,o),
(560,-212,o),
(614,-162,c)
);
},
{
closed = 1;
nodes = (
(185,-192,l),
(305,45,o),
(435,263,o),
(569,500,c),
(441,500,l),
(320,263,o),
(196,45,o),
(57,-192,c)
);
}
);
width = 600;
}
);
unicode = 43859;
},
{
color = 0;
glyphname = chook;
lastChange = "2024-01-09 14:29:12 +0000";
layers = (
{
layerId = "60D037D9-62E9-4843-B070-F1594CB0B0D1";
shapes = (
{
ref = c;
},
{
closed = 1;
nodes = (
(402,459,l),
(402,524,o),
(404,532,o),
(416,544,cs),
(427,555,o),
(461,557,o),
(494,548,c),
(494,576,l),
(461,581,o),
(430,585,o),
(410,573,cs),
(383,556,o),
(378,546,o),
(378,459,c)
);
}
);
width = 455;
},
{
layerId = m01;
shapes = (
{
ref = c;
},
{
closed = 1;
nodes = (
(444,404,l),
(446,447,o),
(443,491,o),
(448,534,cs),
(453,574,o),
(478,582,o),
(557,565,c),
(557,636,l),
(459,656,o),
(423,640,o),
(405,621,cs),
(381,595,o),
(378,580,o),
(380,404,c)
);
}
);
width = 477;
}
);
unicode = 392;
},
{
color = 4;
glyphname = d;
lastChange = "2024-01-09 15:16:48 +0000";
layers = (
{
anchors = (
{
name = bottom;
pos = (304,0);
},
{
name = center;
pos = (473,585);
},
{
name = top;
pos = (304,500);
},
{
name = topright;
pos = (607,740);
}
);
background = {
shapes = (
{
pos = (-48,0);
ref = o;
}
);
};
layerId = m01;
shapes = (
{
closed = 1;
nodes = (
(337,-8,o),
(373,28,o),
(397,58,cs),
(416,81,o),
(422,91,o),
(429,91,cs),
(439,91,o),
(439,81,o),
(439,64,cs),
(439,49,o),
(437,25,o),
(435,0,c),
(507,0,l),
(504,195,o),
(504,543,o),
(507,740,c),
(435,740,l),
(437,715,o),
(439,451,o),
(439,436,cs),
(439,419,o),
(439,409,o),
(429,409,cs),
(422,409,o),
(416,419,o),
(397,442,cs),
(373,472,o),
(337,508,o),
(241,508,cs),
(95,508,o),
(30,426,o),
(30,250,cs),
(30,74,o),
(95,-8,o),
(241,-8,cs)
);
},
{
closed = 1;
nodes = (
(145,184,o),
(90,199,o),
(90,250,cs),
(90,301,o),
(145,320,o),
(266,319,cs),
(393,318,o),
(441,301,o),
(441,250,cs),
(441,199,o),
(393,182,o),
(266,183,cs)
);
}
);
width = 557;
},
{
anchors = (
{
name = bottom;
pos = (266,0);
},
{
name = center;
pos = (464,590);
},
{
name = top;
pos = (266,492);
},
{
name = topright;
pos = (540,740);
}
);
background = {
shapes = (
{
closed = 1;
nodes = (
(381,-16,o),
(421,87,o),
(444,87,cs),
(453,87,o),
(456,72,o),
(452,0,c),
(482,0,l),
(477,277,o),
(477,462,o),
(482,740,c),
(452,740,l),
(456,453,o),
(453,393,o),
(444,393,cs),
(421,393,o),
(381,496,o),
(247,496,cs),
(117,496,o),
(34,400,o),
(34,240,cs),
(34,80,o),
(117,-16,o),
(247,-16,cs)
);
},
{
closed = 1;
nodes = (
(123,21,o),
(57,106,o),
(57,240,cs),
(57,374,o),
(122,459,o),
(247,459,cs),
(370,459,o),
(455,381,o),
(455,240,cs),
(455,105,o),
(371,21,o),
(247,21,cs)
);
}
);
};
layerId = "60D037D9-62E9-4843-B070-F1594CB0B0D1";
shapes = (
{
closed = 1;
nodes = (
(354,-16,o),
(398,33,o),
(419,62,cs),
(434,83,o),
(436,87,o),
(443,87,cs),
(450,87,o),
(450,80,o),
(450,50,cs),
(450,38,o),
(450,22,o),
(449,0,c),
(476,0,l),
(472,347,o),
(472,393,o),
(476,740,c),
(449,740,l),
(452,656,o),
(450,504,o),
(450,427,cs),
(450,400,o),
(450,393,o),
(443,393,cs),
(436,393,o),
(434,397,o),
(419,418,cs),
(398,447,o),
(349,496,o),
(263,496,cs),
(138,496,o),
(60,400,o),
(60,240,cs),
(60,80,o),
(138,-16,o),
(263,-16,cs)
);
},
{
closed = 1;
nodes = (
(144,21,o),
(81,104,o),
(81,240,cs),
(81,376,o),
(144,459,o),
(263,459,cs),
(383,459,o),
(453,384,o),
(453,240,cs),
(453,96,o),
(383,21,o),
(263,21,cs)
);
}
);
width = 570;
}
);
metricLeft = o;
metricRight = "=|n";
unicode = 100;
},
{
color = 2;
glyphname = eth;
lastChange = "2024-01-09 15:11:21 +0000";
layers = (
{
background = {
shapes = (
{
pos = (1,0);
ref = d;
}
);
};
layerId = "60D037D9-62E9-4843-B070-F1594CB0B0D1";
shapes = (
{
closed = 1;
nodes = (
(378,-16,o),
(480,71,o),
(480,279,cs),
(480,339,o),
(472,399,o),
(460,447,cs),
(415,624,o),
(297,728,o),
(107,732,c),
(107,698,l),
(289,692,o),
(347,617,o),
(376,576,cs),
(429,501,o),
(455,399,o),
(441,392,cs),
(429,386,o),
(390,492,o),
(274,496,cs),
(135,501,o),
(60,388,o),
(60,240,cs),
(60,92,o),
(135,-16,o),
(274,-16,cs)
);
},
{
closed = 1;
nodes = (
(83,381,o),
(145,459,o),
(281,459,cs),
(374,459,o),
(454,381,o),
(454,240,cs),
(454,103,o),
(378,22,o),
(287,22,cs),
(145,22,o),
(83,103,o),
(83,242,cs)
);
},
{
angle = 42;
pos = (371,261);
ref = shortstrokecomb;
}
);
width = 540;
},
{
background = {
shapes = (
{
ref = d;
}
);
};
layerId = m01;
shapes = (
{
closed = 1;
nodes = (
(432,-8,o),
(514,64,o),
(514,275,cs),
(514,400,o),
(486,506,o),
(427,586,cs),
(359,679,o),
(249,752,o),
(100,760,c),
(100,662,l),
(136,662,o),
(226,655,o),
(310,599,cs),
(383,551,o),
(439,454,o),
(413,454,cs),
(393,454,o),
(355,508,o),
(259,508,cs),
(121,508,o),
(30,436,o),
(30,250,cs),
(30,64,o),
(112,-8,o),
(272,-8,cs)
);
},
{
closed = 1;
nodes = (
(90,302,o),
(136,320,o),
(272,320,cs),
(408,320,o),
(454,302,o),
(454,250,cs),
(454,198,o),
(408,180,o),
(272,180,cs),
(136,180,o),
(90,198,o),
(90,250,cs)
);
},
{
angle = 47;
pos = (389,299);
ref = shortstrokecomb;
}
);
width = 544;
}
);
metricLeft = o;
metricRight = o;
unicode = 240;
},
{
color = 0;
glyphname = dhook;
lastChange = "2024-01-09 15:06:55 +0000";
layers = (
{
layerId = "60D037D9-62E9-4843-B070-F1594CB0B0D1";
shapes = (
{
closed = 1;
nodes = (
(354,-16,o),
(398,33,o),
(419,62,cs),
(434,83,o),
(436,87,o),
(443,87,cs),
(450,87,o),
(450,80,o),
(450,50,cs),
(450,38,o),
(450,22,o),
(449,0,c),
(476,0,l),
(474,154,o),
(472,323,o),
(473,461,cs),
(475,684,o),
(481,695,o),
(443,718,cs),
(423,730,o),
(392,726,o),
(359,721,c),
(359,693,l),
(392,702,o),
(426,700,o),
(437,689,cs),
(456,670,o),
(450,661,o),
(450,427,cs),
(450,400,o),
(450,393,o),
(443,393,cs),
(436,393,o),
(434,397,o),
(419,418,cs),
(398,447,o),
(349,496,o),
(263,496,cs),
(138,496,o),
(60,400,o),
(60,240,cs),
(60,80,o),
(138,-16,o),
(263,-16,cs)
);
},
{
closed = 1;
nodes = (
(144,21,o),
(81,104,o),
(81,240,cs),
(81,376,o),
(144,459,o),
(263,459,cs),
(383,459,o),
(453,384,o),
(453,240,cs),
(453,96,o),
(383,21,o),
(263,21,cs)
);
}
);
width = 570;
},
{
background = {
shapes = (
{
ref = d;
}
);
};
layerId = m01;
shapes = (
{
closed = 1;
nodes = (
(337,-8,o),
(373,28,o),
(397,58,cs),
(416,81,o),
(422,91,o),
(429,91,cs),
(439,91,o),
(439,81,o),
(439,64,cs),
(439,49,o),
(437,25,o),
(435,0,c),
(507,0,l),
(504,193,o),
(502,322,o),
(505,516,cs),
(506,684,o),
(501,699,o),
(477,725,cs),
(459,744,o),
(423,760,o),
(325,740,c),
(325,669,l),
(404,686,o),
(426,678,o),
(434,638,cs),
(441,601,o),
(439,458,o),
(439,436,cs),
(439,419,o),
(439,409,o),
(429,409,cs),
(422,409,o),
(416,419,o),
(397,442,cs),
(373,472,o),
(337,508,o),
(241,508,cs),
(95,508,o),
(30,426,o),
(30,250,cs),
(30,74,o),
(95,-8,o),
(241,-8,cs)
);
},
{
closed = 1;
nodes = (
(145,184,o),
(90,199,o),
(90,250,cs),
(90,301,o),
(145,320,o),
(266,319,cs),
(393,318,o),
(441,301,o),
(441,250,cs),
(441,199,o),
(393,182,o),
(266,183,cs)
);
}
);
width = 600;
}
);
unicode = 599;
},
{
color = 0;
glyphname = dtail;
lastChange = "2024-01-09 15:10:46 +0000";
layers = (
{
anchors = (
{
name = bottom;
pos = (266,0);
},
{
name = center;
pos = (464,590);
},
{
name = top;
pos = (266,480);
},
{
name = topright;
pos = (540,740);
}
);
layerId = "60D037D9-62E9-4843-B070-F1594CB0B0D1";
shapes = (
{
closed = 1;
nodes = (
(354,-16,o),
(398,33,o),
(419,62,cs),
(434,83,o),
(436,87,o),
(443,87,cs),
(450,87,o),
(450,80,o),
(450,50,cs),
(450,38,o),
(450,22,o),
(450,13,cs),
(450,-33,o),
(469,-44,o),
(485,-52,cs),
(508,-63,o),
(531,-61,o),
(564,-56,c),
(564,-28,l),
(531,-37,o),
(503,-35,o),
(491,-24,cs),
(485,-18,o),
(476,-13,o),
(476,22,cs),
(476,347,o),
(472,393,o),
(476,740,c),
(449,740,l),
(452,656,o),
(450,504,o),
(450,427,cs),
(450,400,o),
(450,393,o),
(443,393,cs),
(436,393,o),
(434,397,o),
(419,418,cs),
(398,447,o),
(349,496,o),
(263,496,cs),
(138,496,o),
(60,400,o),
(60,240,cs),
(60,80,o),
(138,-16,o),
(263,-16,cs)
);
},
{
closed = 1;
nodes = (
(81,376,o),
(144,459,o),
(263,459,cs),
(383,459,o),
(453,384,o),
(453,240,cs),
(453,96,o),
(383,21,o),
(263,21,cs),
(144,21,o),
(81,104,o),
(81,240,cs)
);
}
);
width = 570;
},
{
anchors = (
{
name = bottom;
pos = (304,0);
},
{
name = center;
pos = (473,585);
},
{
name = top;
pos = (304,500);
},
{
name = topright;
pos = (607,740);
}
);
layerId = m01;
shapes = (
{
closed = 1;
nodes = (
(337,-8,o),
(373,28,o),
(397,58,cs),
(416,81,o),
(422,91,o),
(429,91,cs),
(439,91,o),
(438,81,o),
(439,64,cs),
(439,60,o),
(439,55,o),
(440,50,c),
(442,-24,o),
(449,-37,o),
(467,-56,cs),
(485,-75,o),
(521,-91,o),
(619,-71,c),
(619,0,l),
(540,-17,o),
(516,-9,o),
(510,31,cs),
(507,48,o),
(506,81,o),
(506,115,cs),
(504,312,o),
(505,578,o),
(507,740,c),
(435,740,l),
(437,715,o),
(439,451,o),
(439,436,cs),
(439,419,o),
(439,409,o),
(429,409,cs),
(422,409,o),
(416,419,o),
(397,442,cs),
(373,472,o),
(337,508,o),
(241,508,cs),
(95,508,o),
(30,426,o),
(30,250,cs),
(30,74,o),
(95,-8,o),
(241,-8,cs)
);
},
{
closed = 1;
nodes = (
(90,301,o),
(145,320,o),
(266,319,cs),
(393,318,o),
(441,301,o),
(441,250,cs),
(441,199,o),
(393,182,o),
(266,183,cs),
(145,184,o),
(90,199,o),
(90,250,cs)
);
}
);
width = 600;
}
);
unicode = 598;
},
{
color = 4;
glyphname = e;
lastChange = "2024-01-09 15:17:22 +0000";
layers = (
{
anchors = (
{
name = bottom;
pos = (254,0);
},
{
name = center;
pos = (254,248);
},
{
name = ogonek;
pos = (474,9);
},
{
name = top;
pos = (265,500);
}
);
background = {
shapes = (
{
pos = (-21,0);
ref = o;
}
);
};
backgroundImage = {
imagePath = "../../../../Downloads/Images/e-ExtraBold.tif";
locked = 1;
pos = (-977,-3564);
scale = (1.4452,1.4452);
};
layerId = m01;
shapes = (
{
closed = 1;
nodes = (
(396,-10,o),
(433,-3,o),
(474,9,c),
(474,203,l),
(393,185,o),
(340,178,o),
(277,178,cs),
(174,178,o),
(114,191,o),
(97,230,c),
(487,230,l),
(487,438,o),
(426,508,o),
(258,508,cs),
(115,508,o),
(30,406,o),
(30,250,cs),
(30,77,o),
(122,-10,o),
(325,-10,cs)
);
},
{
closed = 1;
nodes = (
(102,285,l),
(104,317,o),
(168,343,o),
(258,343,cs),
(353,343,o),
(417,317,o),
(419,285,c)
);
}
);
width = 519;
},
{
anchors = (
{
name = bottom;
pos = (280,0);
},
{
name = center;
pos = (255,248);
},
{
name = ogonek;
pos = (438,5);
},
{
name = top;
pos = (280,492);
}
);
background = {
shapes = (
{
pos = (-25,0);
ref = o;
},
{
pos = (-33,0);
ref = c;
}
);
};
guides = (
{
angle = 90;
pos = (288,259);
}
);
layerId = "60D037D9-62E9-4843-B070-F1594CB0B0D1";
shapes = (
{
closed = 1;
nodes = (
(335,-16,o),
(381,-12,o),
(438,5,c),
(438,45,l),
(387,29,o),
(342,20,o),
(289,20,cs),
(117,20,o),
(80,131,o),
(80,252,c),
(468,252,l),
(468,387,o),
(425,496,o),
(264,496,cs),
(164,496,o),
(60,425,o),
(60,252,cs),
(60,113,o),
(110,-16,o),
(293,-16,cs)
);
},
{
closed = 1;
nodes = (
(81,279,l),
(89,391,o),
(167,459,o),
(264,459,cs),
(383,459,o),
(445,391,o),
(445,279,c)
);
}
);
width = 520;
}
);
metricLeft = o;
metricRight = c;
unicode = 101;
},
{
color = 0;
glyphname = eopen;
lastChange = "2024-01-09 15:29:16 +0000";
layers = (
{
layerId = "60D037D9-62E9-4843-B070-F1594CB0B0D1";
shapes = (
{
closed = 1;
nodes = (
(238,-16,o),
(294,-12,o),
(339,2,c),
(339,37,l),
(287,22,o),
(231,17,o),
(196,17,cs),
(130,17,o),
(53,46,o),
(53,132,cs),
(53,202,o),
(112,251,o),
(183,251,cs),
(215,251,o),
(246,251,o),
(300,250,c),
(300,278,l),
(246,277,o),
(215,277,o),
(183,277,cs),
(121,277,o),
(68,313,o),
(68,366,cs),
(68,435,o),
(117,463,o),
(204,463,cs),
(239,463,o),
(280,460,o),
(331,444,c),
(331,478,l),
(286,492,o),
(245,496,o),
(214,496,cs),
(80,496,o),
(47,421,o),
(47,365,cs),
(47,328,o),
(70,302,o),
(82,292,cs),
(101,275,o),
(121,271,o),
(121,263,cs),
(121,257,o),
(89,247,o),
(69,227,cs),
(44,202,o),
(30,177,o),
(30,129,cs),
(30,66,o),
(66,-16,o),
(206,-16,cs)
);
}
);
width = 371;
},
{
layerId = m01;
shapes = (
{
closed = 1;
nodes = (
(265,-7,o),
(322,-5,o),
(393,7,c),
(393,196,l),
(317,177,o),
(255,174,o),
(213,175,cs),
(158,175,o),
(146,194,o),
(146,204,cs),
(146,216,o),
(149,232,o),
(213,232,cs),
(249,232,o),
(292,231,o),
(350,231,c),
(350,294,l),
(292,293,o),
(249,293,o),
(213,293,cs),
(155,293,o),
(146,306,o),
(146,319,cs),
(146,334,o),
(159,342,o),
(213,342,cs),
(255,342,o),
(315,340,o),
(390,321,c),
(390,486,l),
(318,498,o),
(265,500,o),
(235,500,cs),
(117,500,o),
(38,473,o),
(38,376,cs),
(38,343,o),
(55,319,o),
(75,303,cs),
(98,281,o),
(126,272,o),
(126,258,cs),
(126,245,o),
(103,234,o),
(80,214,cs),
(58,196,o),
(38,161,o),
(38,117,cs),
(38,20,o),
(117,-7,o),
(235,-7,cs)
);
}
);
width = 433;
}
);
unicode = 603;
},
{
color = 4;
glyphname = f;
lastChange = "2024-01-09 15:58:19 +0000";
layers = (
{
anchors = (
{
name = bottom;
pos = (199,0);
},
{
name = top;
pos = (248,732);
}
);
background = {
shapes = (
{
angle = 180;
pos = (341,543);
ref = j;
}
);
};
layerId = m01;
shapes = (
{
closed = 1;
nodes = (
(183,0,l),
(177,291,l),
(360,291,l),
(360,500,l),
(177,500,l),
(177,512,o),
(182,532,o),
(194,545,cs),
(228,581,o),
(323,571,o),
(393,554,c),
(393,737,l),
(339,743,o),
(190,768,o),
(139,679,cs),
(111,629,o),
(117,555,o),
(117,500,c),
(30,500,l),
(30,291,l),
(117,291,l),
(111,0,l)
);
}
);
width = 389;
},
{
anchors = (
{
name = bottom;
pos = (136,0);
},
{
name = top;
pos = (197,746);
}
);
background = {
shapes = (
{
closed = 1;
nodes = (
(127,0,l),
(124,447,l),
(280,447,l),
(280,480,l),
(124,480,l),
(123,511,o),
(123,524,o),
(123,589,cs),
(123,650,o),
(143,681,o),
(171,694,cs),
(214,715,o),
(275,692,o),
(303,676,c),
(303,718,l),
(228,749,o),
(102,767,o),
(102,604,cs),
(102,524,o),
(102,512,o),
(102,480,c),
(40,480,l),
(40,447,l),
(102,447,l),
(99,0,l)
);
}
);
};
layerId = "60D037D9-62E9-4843-B070-F1594CB0B0D1";
shapes = (
{
closed = 1;
nodes = (
(127,0,l),
(124,447,l),
(280,447,l),
(280,480,l),
(124,480,l),
(124,622,o),
(121,652,o),
(152,681,cs),
(195,722,o),
(275,692,o),
(303,676,c),
(303,718,l),
(240,744,o),
(163,757,o),
(120,691,cs),
(98,657,o),
(102,604,o),
(102,480,c),
(40,480,l),
(40,447,l),
(102,447,l),
(99,0,l)
);
}
);
width = 327;
}
);
unicode = 102;
},
{
color = 4;
glyphname = g;
lastChange = "2024-01-09 15:31:54 +0000";
layers = (
{
anchors = (
{
name = bottom;
pos = (262,-227);
},
{
name = center;
pos = (473,257);
},
{
name = top;
pos = (262,500);
}
);
background = {
shapes = (
{
pos = (-17,50);
ref = q;
}
);
};
layerId = m01;
shapes = (
{
closed = 1;
nodes = (
(430,-205,o),
(503,-102,o),
(503,102,cs),
(503,150,o),
(502,304,o),
(506,500,c),
(434,500,l),
(436,475,o),
(438,452,o),
(438,437,cs),
(438,420,o),
(438,409,o),
(428,409,cs),
(421,409,o),
(415,419,o),
(396,442,cs),
(372,472,o),
(336,508,o),
(242,508,cs),
(96,508,o),
(30,432,o),
(30,256,cs),
(30,114,o),
(96,42,o),
(242,42,cs),
(336,42,o),
(372,78,o),
(396,108,cs),
(415,131,o),
(421,141,o),
(428,141,cs),
(438,141,o),
(439,130,o),
(438,113,cs),
(435,47,o),
(382,-19,o),
(235,-19,cs),
(158,-19,o),
(85,13,o),
(61,25,c),
(61,-181,l),
(101,-192,o),
(166,-205,o),
(240,-205,cs)
);
},
{
closed = 1;
nodes = (
(135,193,o),
(90,215,o),
(90,256,cs),
(90,297,o),
(135,319,o),
(265,319,cs),
(396,319,o),
(440,297,o),
(440,256,cs),
(440,215,o),
(396,193,o),
(265,193,cs)
);
}
);
width = 556;
},
{
anchors = (
{
name = bottom;
pos = (241,-207);
},
{
name = center;
pos = (463,242);
},
{
name = top;
pos = (265,480);
}
);
background = {
shapes = (
{
closed = 1;
nodes = (
(379,-16,o),
(421,87,o),
(441,87,cs),
(451,87,o),
(460,58,o),
(455,27,cs),
(428,-127,o),
(350,-181,o),
(226,-181,cs),
(184,-181,o),
(123,-175,o),
(62,-159,c),
(62,-194,l),
(113,-210,o),
(170,-217,o),
(215,-217,cs),
(380,-217,o),
(474,-124,o),
(474,47,cs),
(474,210,o),
(475,318,o),
(480,480,c),
(450,480,l),
(454,408,o),
(451,393,o),
(442,393,cs),
(419,393,o),
(379,496,o),
(245,496,cs),
(115,496,o),
(32,400,o),
(32,240,cs),
(32,80,o),
(115,-16,o),
(245,-16,cs)
);
},
{
closed = 1;
nodes = (
(121,21,o),
(55,106,o),
(55,240,cs),
(55,374,o),
(120,459,o),
(246,459,cs),
(368,459,o),
(453,380,o),
(453,242,cs),
(453,105,o),
(369,21,o),
(245,21,cs)
);
},
{
pos = (-20,0);
ref = a;
}
);
};
layerId = "60D037D9-62E9-4843-B070-F1594CB0B0D1";
shapes = (
{
closed = 1;
nodes = (
(391,-207,o),
(470,-117,o),
(470,47,cs),
(470,210,o),
(471,318,o),
(476,480,c),
(449,480,l),
(450,458,o),
(450,442,o),
(450,430,cs),
(450,400,o),
(449,393,o),
(442,393,cs),
(435,393,o),
(433,397,o),
(418,418,cs),
(397,447,o),
(354,496,o),
(263,496,cs),
(138,496,o),
(60,400,o),
(60,240,cs),
(60,80,o),
(138,-16,o),
(263,-16,cs),
(349,-16,o),
(397,33,o),
(418,62,cs),
(433,83,o),
(435,87,o),
(442,87,cs),
(449,87,o),
(449,80,o),
(449,53,cs),
(449,-75,o),
(393,-171,o),
(244,-171,cs),
(206,-171,o),
(155,-165,o),
(95,-146,c),
(95,-186,l),
(145,-202,o),
(193,-207,o),
(241,-207,cs)
);
},
{
closed = 1;
nodes = (
(144,21,o),
(81,104,o),
(81,240,cs),
(81,376,o),
(144,459,o),
(263,459,cs),
(385,459,o),
(453,386,o),
(453,242,cs),
(453,105,o),
(369,21,o),
(263,21,cs)
);
}
);
width = 570;
}
);
metricLeft = o;
metricRight = "=|n";
unicode = 103;
},
{
color = 0;
glyphname = "gamma-latin";
lastChange = "2024-01-05 18:23:52 +0000";
layers = (
{
layerId = "60D037D9-62E9-4843-B070-F1594CB0B0D1";
shapes = (
{
closed = 1;
nodes = (
(320,-225,o),
(378,-189,o),
(378,-121,cs),
(378,-78,o),
(331,-32,o),
(278,-7,c),
(306,1,l),
(188,1,l),
(216,-7,l),
(163,-32,o),
(116,-78,o),
(116,-121,cs),
(116,-189,o),
(174,-225,o),
(247,-225,cs)
);
},
{
closed = 1;
nodes = (
(189,-191,o),
(146,-167,o),
(146,-124,cs),
(146,-85,o),
(180,-47,o),
(247,-19,c),
(314,-47,o),
(348,-85,o),
(348,-124,cs),
(348,-167,o),
(305,-191,o),
(247,-191,cs)
);
},
{
ref = v;
}
);
width = 572;
},
{
layerId = m01;
shapes = (
{
closed = 1;
nodes = (
(332,-260,o),
(398,-225,o),
(398,-156,cs),
(398,-111,o),
(374,-70,o),
(316,-35,c),
(387,0,l),
(91,0,l),
(161,-36,l),
(104,-71,o),
(80,-112,o),
(80,-156,cs),
(80,-226,o),
(146,-260,o),
(239,-260,cs)
);
},
{
closed = 1;
nodes = (
(212,-196,o),
(186,-185,o),
(186,-158,cs),
(186,-126,o),
(201,-104,o),
(235,-80,c),
(268,-104,o),
(282,-126,o),
(282,-158,cs),
(282,-185,o),
(260,-196,o),
(239,-196,cs)
);
},
{
ref = v;
}
);
width = 508;
}
);
unicode = 611;
},
{
color = 0;
glyphname = glottalstop;
lastChange = "2024-01-09 15:35:13 +0000";
layers = (
{
layerId = "60D037D9-62E9-4843-B070-F1594CB0B0D1";
shapes = (
{
closed = 1;
nodes = (
(110,357,o),
(97,361,o),
(70,368,c),
(70,228,o),
(70,103,o),
(68,0,c),
(96,0,l),
(93,92,o),
(90,280,o),
(91,326,c),
(107,324,o),
(129,322,o),
(160,322,cs),
(293,322,o),
(347,421,o),
(346,513,cs),
(346,622,o),
(274,698,o),
(130,698,cs),
(96,698,o),
(54,689,o),
(20,681,c),
(20,638,l),
(62,654,o),
(110,665,o),
(147,665,cs),
(192,665,o),
(234,656,o),
(266,632,cs),
(303,605,o),
(324,566,o),
(324,510,cs),
(324,453,o),
(303,416,o),
(266,388,cs),
(234,364,o),
(188,357,o),
(147,357,cs)
);
}
);
width = 371;
},
{
layerId = m01;
shapes = (
{
closed = 1;
nodes = (
(244,398,o),
(172,403,o),
(138,410,c),
(142,348,o),
(142,237,o),
(140,0,c),
(202,0,l),
(200,138,o),
(200,258,o),
(199,278,c),
(229,276,o),
(262,273,o),
(291,273,cs),
(404,273,o),
(472,362,o),
(472,508,cs),
(472,646,o),
(389,729,o),
(210,729,cs),
(157,729,o),
(93,716,o),
(67,707,c),
(67,528,l),
(100,535,o),
(180,545,o),
(273,545,cs),
(325,545,o),
(367,537,o),
(391,519,cs),
(406,509,o),
(413,493,o),
(413,471,cs),
(413,450,o),
(406,434,o),
(391,424,cs),
(367,406,o),
(337,398,o),
(292,398,cs)
);
}
);
width = 532;
}
);
unicode = 660;
},
{
color = 0;
glyphname = glottalstopreversed;
lastChange = "2024-01-09 15:35:33 +0000";
layers = (
{
layerId = "60D037D9-62E9-4843-B070-F1594CB0B0D1";
shapes = (
{
closed = 1;
nodes = (
(178,357,o),
(132,364,o),
(100,388,cs),
(63,416,o),
(42,453,o),
(42,510,cs),
(42,566,o),
(63,605,o),
(100,632,cs),
(132,656,o),
(174,665,o),
(219,665,cs),
(256,665,o),
(304,654,o),
(346,638,c),
(346,681,l),
(312,689,o),
(270,698,o),
(236,698,cs),
(92,698,o),
(20,622,o),
(20,513,cs),
(19,421,o),
(73,322,o),
(206,322,cs),
(237,322,o),
(259,324,o),
(275,326,c),
(276,280,o),
(273,92,o),
(270,0,c),
(298,0,l),
(296,103,o),
(296,228,o),
(296,368,c),
(269,361,o),
(256,357,o),
(219,357,cs)
);
}
);
width = 371;
},
{
layerId = m01;
shapes = (
{
closed = 1;
nodes = (
(195,398,o),
(165,406,o),
(141,424,cs),
(126,434,o),
(119,450,o),
(119,471,cs),
(119,493,o),
(126,509,o),
(141,519,cs),
(165,537,o),
(207,545,o),
(259,545,cs),
(352,545,o),
(432,535,o),
(465,528,c),
(465,707,l),
(439,716,o),
(375,729,o),
(322,729,cs),
(143,729,o),
(60,646,o),
(60,508,cs),
(60,362,o),
(128,273,o),
(241,273,cs),
(270,273,o),
(303,276,o),
(333,278,c),
(332,258,o),
(332,138,o),
(330,0,c),
(392,0,l),
(390,237,o),
(390,348,o),
(394,410,c),
(360,403,o),
(288,398,o),
(240,398,cs)
);
}
);
width = 532;
}
);
unicode = 661;
},
{
color = 0;
glyphname = glottalstopsmall;
lastChange = "2024-01-09 15:34:26 +0000";
layers = (
{
layerId = "60D037D9-62E9-4843-B070-F1594CB0B0D1";
shapes = (
{
closed = 1;
nodes = (
(110,153,o),
(97,157,o),
(70,164,c),
(70,62,o),
(70,28,o),
(68,0,c),
(96,0,l),
(93,25,o),
(90,76,o),
(91,122,c),
(107,120,o),
(129,118,o),
(160,118,cs),
(293,118,o),
(347,217,o),
(346,309,cs),
(346,418,o),
(274,494,o),
(130,494,cs),
(96,494,o),
(54,485,o),
(20,477,c),
(20,434,l),
(62,450,o),
(110,461,o),
(147,461,cs),
(192,461,o),
(234,452,o),
(266,428,cs),
(303,401,o),
(324,362,o),
(324,306,cs),
(324,249,o),
(303,212,o),
(266,184,cs),
(234,160,o),
(188,153,o),
(147,153,cs)
);
}
);
width = 366;
},
{
layerId = m01;
shapes = (
{
closed = 1;
nodes = (
(200,177,o),
(128,182,o),
(94,189,c),
(98,127,o),
(98,16,o),
(96,-8,c),
(158,-8,l),
(156,6,o),
(156,37,o),
(155,57,c),
(185,55,o),
(218,52,o),
(247,52,cs),
(360,52,o),
(428,141,o),
(428,287,cs),
(428,425,o),
(345,508,o),
(166,508,cs),
(113,508,o),
(49,495,o),
(23,486,c),
(23,307,l),
(56,314,o),
(136,324,o),
(229,324,cs),
(281,324,o),
(323,316,o),
(347,298,cs),
(362,288,o),
(369,272,o),
(369,250,cs),
(369,229,o),
(362,213,o),
(347,203,cs),
(323,185,o),
(293,177,o),
(248,177,cs)
);
}
);
width = 451;
}
);
unicode = 578;
},
{
color = 4;
glyphname = h;
lastChange = "2024-01-09 15:37:01 +0000";
layers = (
{
anchors = (
{
name = bottom;
pos = (91,0);
},
{
name = center;
pos = (93,594);
},
{
name = top;
pos = (261,740);
}
);
layerId = m01;
shapes = (
{
closed = 1;
nodes = (
(122,0,l),
(120,46,o),
(118,139,o),
(118,179,cs),
(118,260,o),
(130,266,o),
(278,266,cs),
(426,266,o),
(438,260,o),
(438,179,cs),
(438,139,o),
(436,46,o),
(434,0,c),
(506,0,l),
(503,62,o),
(502,186,o),
(502,347,cs),
(502,465,o),
(414,508,o),
(319,508,cs),
(232,508,o),
(188,468,o),
(163,439,cs),
(142,414,o),
(135,400,o),
(128,400,cs),
(118,400,o),
(118,412,o),
(118,431,cs),
(118,448,o),
(120,714,o),
(122,739,c),
(50,739,l),
(56,542,o),
(53,187,o),
(50,0,c)
);
}
);
width = 542;
},
{
anchors = (
{
name = bottom;
pos = (288,0);
},
{
name = center;
pos = (148,587);
},
{
name = top;
pos = (288,740);
}
);
background = {
shapes = (
{
closed = 1;
nodes = (
(122,0,l),
(120,77,o),
(118,176,o),
(118,240,cs),
(118,295,o),
(123,319,o),
(130,338,cs),
(150,389,o),
(207,459,o),
(314,459,cs),
(388,459,o),
(468,435,o),
(467,311,cs),
(466,188,o),
(465,77,o),
(462,0,c),
(490,0,l),
(489,77,o),
(489,188,o),
(487,329,cs),
(486,429,o),
(435,496,o),
(323,496,cs),
(222,496,o),
(173,437,o),
(152,408,cs),
(137,387,o),
(135,383,o),
(128,383,cs),
(121,383,o),
(121,390,o),
(121,430,cs),
(121,442,o),
(121,717,o),
(122,739,c),
(94,739,l),
(98,626,o),
(98,347,o),
(94,0,c)
);
}
);
};
layerId = "60D037D9-62E9-4843-B070-F1594CB0B0D1";
shapes = (
{
closed = 1;
nodes = (
(122,0,l),
(120,77,o),
(119,176,o),
(119,249,cs),
(119,371,o),
(188,459,o),
(314,459,cs),
(388,459,o),
(467,429,o),
(466,305,cs),
(465,182,o),
(465,77,o),
(462,0,c),
(490,0,l),
(489,77,o),
(488,189,o),
(487,330,cs),
(486,425,o),
(435,496,o),
(323,496,cs),
(222,496,o),
(173,437,o),
(152,408,cs),
(137,387,o),
(135,383,o),
(128,383,cs),
(121,383,o),
(121,390,o),
(121,430,cs),
(121,507,o),
(119,655,o),
(122,739,c),
(94,739,l),
(98,392,o),
(98,347,o),
(94,0,c)
);
}
);
width = 576;
}
);
metricLeft = n;
metricRight = n;
unicode = 104;
},
{
color = 2;
glyphname = hcedilla;
lastChange = "2024-01-09 15:38:04 +0000";
layers = (
{
anchors = (
{
name = bottom;
pos = (352,-159);
}
);
layerId = "60D037D9-62E9-4843-B070-F1594CB0B0D1";
shapes = (
{
ref = h;
},
{
closed = 1;
nodes = (
(85,-174,l),
(205,-204,o),
(234,-142,o),
(234,-112,cs),
(234,-68,o),
(195,-42,o),
(123,-47,cs),
(103,-48,o),
(101,-47,o),
(122,0,c),
(94,0,l),
(66,-64,o),
(67,-70,o),
(107,-70,cs),
(183,-70,o),
(208,-82,o),
(208,-108,cs),
(208,-126,o),
(188,-154,o),
(85,-132,c)
);
}
);
width = 576;
},
{
anchors = (
{
name = bottom;
pos = (155,-212);
}
);
layerId = m01;
shapes = (
{
ref = h;
},
{
closed = 1;
nodes = (
(56,-203,l),
(199,-234,o),
(237,-162,o),
(237,-109,cs),
(237,-38,o),
(171,-28,o),
(127,-28,cs),
(104,-28,o),
(90,-31,o),
(122,0,c),
(50,0,l),
(24,-32,o),
(32,-66,o),
(81,-66,cs),
(129,-66,o),
(159,-66,o),
(159,-88,cs),
(159,-119,o),
(87,-114,o),
(56,-109,c)
);
}
);
width = 542;
}
);
unicode = 7721;
},
{
color = 0;
glyphname = heng;
lastChange = "2024-01-09 15:42:02 +0000";
layers = (
{
anchors = (
{
name = bottom;
pos = (288,0);
},
{
name = center;
pos = (148,587);
},
{
name = top;
pos = (288,740);
}
);
layerId = "60D037D9-62E9-4843-B070-F1594CB0B0D1";
shapes = (
{
closed = 1;
nodes = (
(122,0,l),
(120,77,o),
(119,176,o),
(119,249,cs),
(119,371,o),
(188,459,o),
(314,459,cs),
(388,459,o),
(467,429,o),
(466,305,cs),
(465,182,o),
(465,77,o),
(464,0,cs),
(463,-40,o),
(463,-48,o),
(453,-58,cs),
(442,-69,o),
(408,-71,o),
(375,-62,c),
(375,-90,l),
(408,-95,o),
(439,-99,o),
(459,-87,cs),
(483,-72,o),
(490,-63,o),
(490,0,cs),
(489,110,o),
(488,220,o),
(487,330,cs),
(486,425,o),
(435,496,o),
(323,496,cs),
(222,496,o),
(173,437,o),
(152,408,cs),
(137,387,o),
(135,383,o),
(128,383,cs),
(121,383,o),
(121,390,o),
(121,430,cs),
(121,507,o),
(119,655,o),
(122,739,c),
(94,739,l),
(98,392,o),
(98,347,o),
(94,0,c)
);
}
);
width = 576;
},
{
anchors = (
{
name = bottom;
pos = (92,0);
},
{
name = center;
pos = (93,594);
},
{
name = top;
pos = (261,740);
}
);
layerId = m01;
shapes = (
{
closed = 1;
nodes = (
(122,0,l),
(120,46,o),
(118,139,o),
(118,179,cs),
(118,260,o),
(130,266,o),
(278,266,cs),
(426,266,o),
(438,260,o),
(438,179,cs),
(438,139,o),
(440,46,o),
(438,0,cs),
(437,-16,o),
(429,-27,o),
(412,-31,cs),
(395,-36,o),
(368,-35,o),
(328,-26,c),
(328,-97,l),
(426,-117,o),
(462,-101,o),
(480,-82,cs),
(501,-61,o),
(505,-30,o),
(505,0,cs),
(506,62,o),
(502,186,o),
(502,347,cs),
(502,465,o),
(414,508,o),
(319,508,cs),
(232,508,o),
(188,468,o),
(163,439,cs),
(142,414,o),
(135,400,o),
(128,400,cs),
(118,400,o),
(118,412,o),
(118,431,cs),
(118,448,o),
(120,714,o),
(122,739,c),
(50,739,l),
(56,542,o),
(53,187,o),
(50,0,c)
);
}
);
width = 542;
}
);
unicode = 42791;
},
{
color = 0;
glyphname = hhook;
lastChange = "2024-01-09 15:44:48 +0000";
layers = (
{
anchors = (
{
name = bottom;
pos = (288,0);
},
{
name = center;
pos = (148,587);
},
{
name = top;
pos = (288,740);
}
);
layerId = "60D037D9-62E9-4843-B070-F1594CB0B0D1";
shapes = (
{
closed = 1;
nodes = (
(122,0,l),
(120,77,o),
(119,176,o),
(119,249,cs),
(119,371,o),
(188,459,o),
(314,459,cs),
(388,459,o),
(467,429,o),
(466,305,cs),
(465,182,o),
(465,77,o),
(462,0,c),
(490,0,l),
(489,110,o),
(488,220,o),
(487,330,cs),
(486,425,o),
(435,496,o),
(323,496,cs),
(222,496,o),
(173,437,o),
(152,408,cs),
(137,387,o),
(135,383,o),
(128,383,cs),
(121,383,o),
(121,390,o),
(121,430,cs),
(121,494,o),
(120,606,o),
(121,691,cs),
(122,731,o),
(125,739,o),
(135,749,cs),
(146,760,o),
(180,762,o),
(213,753,c),
(213,781,l),
(180,786,o),
(147,790,o),
(127,778,cs),
(105,764,o),
(97,755,o),
(96,691,cs),
(100,357,o),
(98,343,o),
(94,0,c)
);
}
);
width = 576;
},
{
anchors = (
{
name = bottom;
pos = (92,0);
},
{
name = center;
pos = (107,594);
},
{
name = top;
pos = (261,740);
}
);
layerId = m01;
shapes = (
{
closed = 1;
nodes = (
(122,0,l),
(120,46,o),
(118,139,o),
(118,179,cs),
(118,260,o),
(130,266,o),
(278,266,cs),
(426,266,o),
(438,260,o),
(438,179,cs),
(438,139,o),
(436,46,o),
(434,0,c),
(506,0,l),
(503,62,o),
(502,186,o),
(502,347,cs),
(502,465,o),
(414,508,o),
(319,508,cs),
(232,508,o),
(188,468,o),
(163,439,cs),
(142,414,o),
(135,400,o),
(128,400,cs),
(118,400,o),
(118,412,o),
(118,431,cs),
(119,495,o),
(119,560,o),
(120,624,c),
(122,640,o),
(128,651,o),
(139,657,cs),
(155,665,o),
(183,664,o),
(229,654,c),
(229,725,l),
(131,745,o),
(95,729,o),
(77,710,cs),
(48,680,o),
(53,626,o),
(53,590,cs),
(59,393,o),
(53,187,o),
(50,0,c)
);
}
);
width = 542;
}
);
unicode = 614;
},
{
color = 4;
glyphname = i;
lastChange = "2024-01-08 12:23:37 +0000";
layers = (
{
anchors = (
{
name = bottom;
pos = (201,0);
}
);
background = {
shapes = (
{
closed = 1;
nodes = (
(321,636,o),
(350,653,o),
(350,700,cs),
(350,749,o),
(321,766,o),
(238,766,cs),
(155,766,o),
(126,749,o),
(126,700,cs),
(126,653,o),
(155,636,o),
(238,636,cs)
);
},
{
closed = 1;
nodes = (
(70,0,l),
(355,0,l),
(355,129,l),
(329,129,o),
(296,128,o),
(278,129,cs),
(263,130,o),
(254,132,o),
(249,140,cs),
(242,150,o),
(241,170,o),
(241,210,cs),
(241,283,o),
(244,466,o),
(245,500,c),
(82,500,l),
(82,291,l),
(109,291,o),
(129,292,o),
(147,291,cs),
(180,289,o),
(184,283,o),
(184,210,cs),
(184,169,o),
(183,149,o),
(176,139,cs),
(170,132,o),
(162,130,o),
(147,129,c),
(129,128,o),
(96,129,o),
(70,129,c)
);
}
);
};
layerId = m01;
shapes = (
{
closed = 1;
nodes = (
(30,0,l),
(380,0,l),
(380,159,l),
(278,159,o),
(261,159,o),
(251,166,cs),
(237,175,o),
(239,204,o),
(239,283,cs),
(239,356,o),
(240,466,o),
(241,500,c),
(42,500,l),
(42,291,l),
(143,291,o),
(160,291,o),
(170,284,cs),
(184,275,o),
(184,246,o),
(184,225,cs),
(184,204,o),
(184,175,o),
(170,166,cs),
(160,159,o),
(143,159,o),
(30,159,c)
);
},
{
closed = 1;
nodes = (
(264,596,o),
(293,619,o),
(293,668,cs),
(293,717,o),
(264,740,o),
(200,740,cs),
(133,740,o),
(102,717,o),
(102,668,cs),
(102,619,o),
(133,596,o),
(200,596,cs)
);
}
);
width = 404;
},
{
anchors = (
{
name = bottom;
pos = (155,0);
}
);
guides = (
{
pos = (670,11);
}
);
layerId = "60D037D9-62E9-4843-B070-F1594CB0B0D1";
shapes = (
{
closed = 1;
nodes = (
(40,0,l),
(276,0,l),
(276,33,l),
(198,33,o),
(189,33,o),
(181,39,cs),
(171,47,o),
(168,62,o),
(168,240,cs),
(168,377,o),
(167,392,o),
(169,480,c),
(54,480,l),
(54,447,l),
(118,447,o),
(127,447,o),
(135,441,cs),
(145,434,o),
(147,418,o),
(147,240,cs),
(147,62,o),
(145,47,o),
(135,39,cs),
(127,33,o),
(118,33,o),
(40,33,c)
);
},
{
closed = 1;
nodes = (
(173,648,o),
(187,664,o),
(187,693,cs),
(187,723,o),
(173,739,o),
(150,739,cs),
(125,739,o),
(111,723,o),
(111,693,cs),
(111,664,o),
(125,648,o),
(150,648,cs)
);
}
);
width = 300;
}
);
unicode = 105;
},
{
color = 2;
glyphname = idotless;
lastChange = "2024-01-09 15:47:50 +0000";
layers = (
{
anchors = (
{
name = bottom;
pos = (139,0);
},
{
name = ogonek;
pos = (188,0);
},
{
name = top;
pos = (139,480);
}
);
background = {
shapes = (
{
closed = 1;
nodes = (
(169,645,o),
(184,658,o),
(184,685,cs),
(184,715,o),
(169,729,o),
(138,729,cs),
(106,729,o),
(91,715,o),
(91,685,cs),
(91,658,o),
(106,645,o),
(138,645,cs)
);
}
);
};
layerId = "60D037D9-62E9-4843-B070-F1594CB0B0D1";
shapes = (
{
closed = 1;
nodes = (
(40,0,l),
(276,0,l),
(276,33,l),
(198,33,o),
(189,33,o),
(181,39,cs),
(171,47,o),
(168,62,o),
(168,240,cs),
(168,377,o),
(167,392,o),
(169,480,c),
(54,480,l),
(54,447,l),
(118,447,o),
(127,447,o),
(135,441,cs),
(145,434,o),
(147,418,o),
(147,240,cs),
(147,62,o),
(145,47,o),
(135,39,cs),
(127,33,o),
(118,33,o),
(40,33,c)
);
}
);
width = 300;
},
{
anchors = (
{
name = bottom;
pos = (177,0);
},
{
name = ogonek;
pos = (276,0);
},
{
name = top;
pos = (157,500);
}
);
background = {
shapes = (
{
closed = 1;
nodes = (
(240,596,o),
(269,619,o),
(269,668,cs),
(269,717,o),
(240,740,o),
(176,740,cs),
(109,740,o),
(78,717,o),
(78,668,cs),
(78,619,o),
(109,596,o),
(176,596,cs)
);
}
);
};
layerId = m01;
shapes = (
{
closed = 1;
nodes = (
(30,0,l),
(380,0,l),
(380,159,l),
(278,159,o),
(261,159,o),
(251,166,cs),
(237,175,o),
(239,204,o),
(239,283,cs),
(239,356,o),
(240,466,o),
(241,500,c),
(42,500,l),
(42,291,l),
(143,291,o),
(160,291,o),
(170,284,cs),
(184,275,o),
(184,246,o),
(184,225,cs),
(184,204,o),
(184,175,o),
(170,166,cs),
(160,159,o),
(143,159,o),
(30,159,c)
);
}
);
width = 404;
}
);
metricLeft = i;
metricRight = i;
unicode = 305;
},
{
color = 2;
glyphname = ij;
lastChange = "2024-01-09 15:52:18 +0000";
layers = (
{
layerId = "60D037D9-62E9-4843-B070-F1594CB0B0D1";
shapes = (
{
closed = 1;
nodes = (
(40,0,l),
(276,0,l),
(276,33,l),
(198,33,o),
(189,33,o),
(181,39,cs),
(171,47,o),
(168,62,o),
(168,240,cs),
(168,377,o),
(167,392,o),
(169,480,c),
(54,480,l),
(54,447,l),
(118,447,o),
(127,447,o),
(135,441,cs),
(145,434,o),
(147,418,o),
(147,240,cs),
(147,62,o),
(145,47,o),
(135,39,cs),
(127,33,o),
(118,33,o),
(40,33,c)
);
},
{
closed = 1;
nodes = (
(173,648,o),
(187,664,o),
(187,693,cs),
(187,723,o),
(173,739,o),
(150,739,cs),
(125,739,o),
(111,723,o),
(111,693,cs),
(111,664,o),
(125,648,o),
(150,648,cs)
);
},
{
closed = 1;
nodes = (
(407,648,o),
(421,664,o),
(421,693,cs),
(421,723,o),
(407,739,o),
(384,739,cs),
(359,739,o),
(345,723,o),
(345,693,cs),
(345,664,o),
(359,648,o),
(384,648,cs)
);
},
{
closed = 1;
nodes = (
(200,-175,l),
(275,-206,o),
(401,-224,o),
(402,-62,cs),
(403,30,o),
(400,383,o),
(402,480,c),
(287,480,l),
(287,447,l),
(352,447,o),
(361,447,o),
(369,441,cs),
(379,433,o),
(381,427,o),
(381,-46,cs),
(381,-107,o),
(360,-138,o),
(332,-151,cs),
(289,-172,o),
(228,-149,o),
(200,-133,c)
);
}
);
width = 532;
},
{
layerId = m01;
shapes = (
{
closed = 1;
nodes = (
(83,0,l),
(433,0,l),
(433,159,l),
(331,159,o),
(314,159,o),
(304,166,cs),
(290,175,o),
(292,204,o),
(292,283,cs),
(292,356,o),
(293,466,o),
(294,500,c),
(95,500,l),
(95,291,l),
(196,291,o),
(213,291,o),
(223,284,cs),
(237,275,o),
(237,246,o),
(237,225,cs),
(237,204,o),
(237,175,o),
(223,166,cs),
(213,159,o),
(196,159,o),
(83,159,c)
);
},
{
closed = 1;
nodes = (
(317,596,o),
(346,619,o),
(346,668,cs),
(346,717,o),
(317,740,o),
(253,740,cs),
(186,740,o),
(155,717,o),
(155,668,cs),
(155,619,o),
(186,596,o),
(253,596,cs)
);
},
{
closed = 1;
nodes = (
(598,596,o),
(627,619,o),
(627,668,cs),
(627,717,o),
(598,740,o),
(534,740,cs),
(467,740,o),
(436,717,o),
(436,668,cs),
(436,619,o),
(467,596,o),
(534,596,cs)
);
},
{
closed = 1;
nodes = (
(352,-190,l),
(501,-209,o),
(583,-200,o),
(583,-22,cs),
(583,232,o),
(582,373,o),
(585,500,c),
(389,500,l),
(389,291,l),
(485,291,o),
(502,291,o),
(512,284,cs),
(526,275,o),
(526,246,o),
(526,166,cs),
(526,69,o),
(525,14,o),
(496,-8,cs),
(472,-26,o),
(429,-31,o),
(352,-15,c)
);
}
);
width = 652;
}
);
unicode = 307;
},
{
color = 0;
glyphname = "iota-latin";
lastChange = "2024-01-09 15:53:05 +0000";
layers = (
{
layerId = "60D037D9-62E9-4843-B070-F1594CB0B0D1";
shapes = (
{
closed = 1;
nodes = (
(155,480,l),
(40,480,l),
(40,447,l),
(105,447,o),
(113,447,o),
(121,441,cs),
(131,433,o),
(133,426,o),
(133,126,cs),
(133,61,o),
(156,26,o),
(185,9,cs),
(230,-18,o),
(289,-6,o),
(309,-2,c),
(309,37,l),
(285,30,o),
(244,23,o),
(209,34,cs),
(175,45,o),
(163,78,o),
(160,94,cs),
(154,121,o),
(154,162,o),
(155,274,c)
);
}
);
width = 333;
},
{
layerId = m01;
shapes = (
{
closed = 1;
nodes = (
(221,500,l),
(30,500,l),
(30,291,l),
(121,291,o),
(138,291,o),
(148,284,cs),
(162,274,o),
(162,245,o),
(162,217,cs),
(162,197,o),
(159,117,o),
(186,67,cs),
(223,-1,o),
(279,-15,o),
(391,-5,c),
(391,189,l),
(353,173,o),
(315,166,o),
(284,169,cs),
(258,172,o),
(240,183,o),
(232,199,cs),
(220,222,o),
(219,254,o),
(219,291,c)
);
}
);
width = 415;
}
);
metricLeft = i;
metricRight = i;
unicode = 617;
},
{
color = 4;
glyphname = j;
lastChange = "2024-01-09 15:53:30 +0000";
layers = (
{
anchors = (
{
name = center;
pos = (156,149);
}
);
background = {
shapes = (
{
pos = (-59,0);
ref = i.001;
}
);
};
layerId = m01;
shapes = (
{
closed = 1;
nodes = (
(200,596,o),
(229,619,o),
(229,668,cs),
(229,717,o),
(200,740,o),
(136,740,cs),
(69,740,o),
(38,717,o),
(38,668,cs),
(38,619,o),
(69,596,o),
(136,596,cs)
);
},
{
closed = 1;
nodes = (
(-46,-190,l),
(103,-209,o),
(185,-200,o),
(185,-22,cs),
(185,232,o),
(184,373,o),
(187,500,c),
(-9,500,l),
(-9,291,l),
(87,291,o),
(104,291,o),
(114,284,cs),
(128,275,o),
(128,246,o),
(128,166,cs),
(128,69,o),
(127,14,o),
(98,-8,cs),
(74,-26,o),
(31,-31,o),
(-46,-15,c)
);
}
);
width = 241;
},
{
anchors = (
{
name = center;
pos = (130,149);
}
);
background = {
shapes = (
{
pos = (241,-187);
ref = t.001;
scale = (-1,1);
}
);
};
layerId = "60D037D9-62E9-4843-B070-F1594CB0B0D1";
shapes = (
{
closed = 1;
nodes = (
(145,648,o),
(159,664,o),
(159,693,cs),
(159,723,o),
(145,739,o),
(122,739,cs),
(97,739,o),
(83,723,o),
(83,693,cs),
(83,664,o),
(97,648,o),
(122,648,cs)
);
},
{
closed = 1;
nodes = (
(-62,-175,l),
(13,-206,o),
(139,-224,o),
(140,-62,cs),
(141,30,o),
(138,383,o),
(140,480,c),
(25,480,l),
(25,447,l),
(90,447,o),
(99,447,o),
(107,441,cs),
(117,433,o),
(119,427,o),
(119,-46,cs),
(119,-107,o),
(98,-138,o),
(70,-151,cs),
(27,-172,o),
(-34,-149,o),
(-62,-133,c)
);
}
);
width = 232;
}
);
unicode = 106;
},
{
color = 4;
glyphname = jdotless;
lastChange = "2023-12-15 17:46:32 +0000";
layers = (
{
anchors = (
{
name = bottom;
pos = (165,-260);
},
{
name = top;
pos = (165,480);
}
);
background = {
shapes = (
{
closed = 1;
nodes = (
(244,656,o),
(255,665,o),
(255,697,cs),
(255,731,o),
(244,740,o),
(203,740,cs),
(164,740,o),
(153,731,o),
(153,697,cs),
(153,665,o),
(164,656,o),
(203,656,cs)
);
}
);
};
layerId = "60D037D9-62E9-4843-B070-F1594CB0B0D1";
shapes = (
{
closed = 1;
nodes = (
(170,-207,o),
(230,-138,o),
(230,16,cs),
(230,313,o),
(230,349,o),
(234,480,c),
(43,480,l),
(43,444,l),
(80,448,o),
(125,452,o),
(145,452,cs),
(209,452,o),
(209,452,o),
(209,233,cs),
(209,-92,o),
(179,-171,o),
(53,-171,cs),
(23,-171,o),
(-4,-165,o),
(-48,-148,c),
(-48,-190,l),
(0,-202,o),
(30,-207,o),
(62,-207,cs)
);
}
);
width = 330;
},
{
anchors = (
{
name = bottom;
pos = (141,-260);
},
{
name = top;
pos = (141,500);
}
);
background = {
shapes = (
{
closed = 1;
nodes = (
(248,612,o),
(282,634,o),
(282,682,cs),
(282,733,o),
(247,756,o),
(171,756,cs),
(96,756,o),
(61,734,o),
(61,685,cs),
(61,635,o),
(97,612,o),
(175,612,cs)
);
}
);
};
layerId = m01;
shapes = (
{
closed = 1;
nodes = (
(198,-242,o),
(223,-200,o),
(223,-22,cs),
(223,232,o),
(224,373,o),
(227,500,c),
(51,500,l),
(51,291,l),
(72,291,o),
(93,292,o),
(116,291,cs),
(149,289,o),
(153,281,o),
(153,124,cs),
(153,-16,o),
(151,-60,o),
(71,-60,cs),
(16,-60,o),
(-18,-51,o),
(-37,-43,c),
(-37,-230,l),
(1,-240,o),
(33,-242,o),
(55,-242,cs)
);
}
);
width = 282;
}
);
unicode = 567;
},
{
color = 4;
glyphname = k;
lastChange = "2024-01-04 19:33:13 +0000";
layers = (
{
anchors = (
{
name = bottom;
pos = (247,0);
},
{
name = top;
pos = (247,740);
}
);
background = {
shapes = (
{
angle = -90;
pos = (-23,717);
ref = m;
}
);
};
layerId = m01;
shapes = (
{
closed = 1;
nodes = (
(373,282,o),
(385,291,cs),
(444,336,o),
(456,371,o),
(471,500,c),
(393,500,l),
(388,427,o),
(384,402,o),
(375,393,cs),
(367,385,o),
(345,388,o),
(284,388,cs),
(159,388,o),
(136,388,o),
(128,393,cs),
(120,398,o),
(120,408,o),
(120,443,cs),
(120,497,o),
(121,521,o),
(122,732,c),
(50,732,l),
(53,397,o),
(53,84,o),
(50,0,c),
(122,0,l),
(120,77,o),
(119,100,o),
(119,117,cs),
(119,144,o),
(118,157,o),
(133,166,cs),
(141,171,o),
(167,172,o),
(214,172,cs),
(319,172,o),
(361,73,o),
(365,66,cs),
(397,13,o),
(444,-25,o),
(503,-1,c),
(501,208,l),
(482,208,o),
(444,204,o),
(385,249,cs),
(373,258,o),
(365,262,o),
(365,270,cs),
(365,278,o)
);
}
);
width = 484;
},
{
anchors = (
{
name = bottom;
pos = (245,0);
},
{
name = top;
pos = (245,740);
}
);
background = {
shapes = (
{
closed = 1;
nodes = (
(319,290,ls),
(373,290,o),
(382,286,o),
(389,311,cs),
(402,356,o),
(422,429,o),
(440,501,c),
(421,501,l),
(400,418,o),
(387,355,o),
(376,328,cs),
(372,318,o),
(363,309,o),
(318,306,cs),
(267,304,o),
(191,307,o),
(70,307,c),
(71,290,l)
);
},
{
closed = 1;
nodes = (
(74,0,l),
(72,252,l),
(72,328,l),
(78,801,l),
(53,801,l),
(60,534,o),
(60,267,o),
(57,0,c)
);
},
{
closed = 1;
nodes = (
(467,0,l),
(444,114,o),
(421,231,o),
(380,304,c),
(368,290,l),
(400,231,o),
(416,131,o),
(443,0,c)
);
}
);
};
layerId = "60D037D9-62E9-4843-B070-F1594CB0B0D1";
shapes = (
{
closed = 1;
nodes = (
(338,274,o),
(346,284,cs),
(359,300,o),
(389,358,o),
(430,480,c),
(401,480,l),
(343,311,o),
(337,306,o),
(331,300,cs),
(323,292,o),
(315,291,o),
(252,291,cs),
(141,291,o),
(134,291,o),
(127,296,cs),
(120,301,o),
(120,311,o),
(120,346,cs),
(120,400,o),
(121,489,o),
(122,740,c),
(94,740,l),
(97,405,o),
(97,84,o),
(94,0,c),
(122,0,l),
(120,77,o),
(119,180,o),
(119,197,cs),
(119,235,o),
(119,246,o),
(127,251,cs),
(132,255,o),
(155,256,o),
(225,256,cs),
(289,256,o),
(306,253,o),
(312,250,cs),
(332,239,o),
(337,233,o),
(411,0,c),
(444,0,l),
(380,190,o),
(364,223,o),
(346,248,cs),
(339,258,o),
(337,262,o),
(337,266,cs),
(337,270,o)
);
}
);
width = 504;
}
);
metricLeft = n;
unicode = 107;
},
{
color = 4;
glyphname = l;
lastChange = "2024-01-09 16:00:06 +0000";
layers = (
{
anchors = (
{
name = bottom;
pos = (212,0);
},
{
name = center;
pos = (224,346);
},
{
name = top;
pos = (212,741);
},
{
name = topright;
pos = (374,738);
}
);
background = {
shapes = (
{
pos = (20,0);
ref = i.001;
}
);
};
layerId = m01;
shapes = (
{
closed = 1;
nodes = (
(395,0,l),
(395,159,l),
(290,159,o),
(273,159,o),
(263,166,cs),
(249,175,o),
(249,204,o),
(249,324,cs),
(249,507,o),
(255,706,o),
(256,740,c),
(48,740,l),
(48,531,l),
(149,531,o),
(166,531,o),
(176,524,cs),
(190,515,o),
(190,486,o),
(190,345,cs),
(190,204,o),
(190,175,o),
(176,166,cs),
(166,159,o),
(149,159,o),
(36,159,c),
(36,0,l)
);
}
);
width = 425;
},
{
anchors = (
{
name = bottom;
pos = (161,0);
},
{
name = center;
pos = (176,368);
},
{
name = top;
pos = (161,739);
},
{
name = topright;
pos = (350,739);
}
);
layerId = "60D037D9-62E9-4843-B070-F1594CB0B0D1";
shapes = (
{
closed = 1;
nodes = (
(297,0,l),
(297,33,l),
(219,33,o),
(210,33,o),
(202,39,cs),
(192,47,o),
(189,62,o),
(189,371,cs),
(189,636,o),
(188,651,o),
(190,739,c),
(74,739,l),
(74,706,l),
(138,706,o),
(147,706,o),
(155,700,cs),
(165,692,o),
(167,677,o),
(167,371,cs),
(167,62,o),
(165,47,o),
(155,39,cs),
(147,33,o),
(138,33,o),
(60,33,c),
(60,0,l)
);
}
);
width = 333;
}
);
unicode = 108;
},
{
color = 0;
glyphname = lmiddletilde;
lastChange = "2024-01-09 16:06:22 +0000";
layers = (
{
layerId = "60D037D9-62E9-4843-B070-F1594CB0B0D1";
shapes = (
{
ref = l;
},
{
closed = 1;
nodes = (
(261,347,o),
(276,365,o),
(276,401,c),
(243,401,l),
(243,368,o),
(228,366,o),
(215,366,cs),
(191,366,o),
(175,402,o),
(134,402,cs),
(101,402,o),
(85,383,o),
(85,348,c),
(118,348,l),
(118,381,o),
(133,383,o),
(146,383,cs),
(171,383,o),
(186,347,o),
(227,347,cs)
);
}
);
width = 333;
},
{
layerId = m01;
shapes = (
{
ref = l;
},
{
closed = 1;
nodes = (
(338,296,o),
(380,320,o),
(388,403,c),
(285,403,l),
(285,376,o),
(283,357,o),
(249,357,cs),
(206,357,o),
(206,404,o),
(134,404,cs),
(89,404,o),
(48,380,o),
(40,298,c),
(143,298,l),
(143,325,o),
(145,344,o),
(178,344,cs),
(222,344,o),
(221,296,o),
(292,296,cs)
);
}
);
width = 425;
}
);
unicode = 619;
},
{
color = 4;
glyphname = m;
lastChange = "2023-12-27 17:18:35 +0000";
layers = (
{
anchors = (
{
name = bottom;
pos = (471,0);
},
{
name = top;
pos = (471,480);
}
);
background = {
shapes = (
{
closed = 1;
nodes = (
(122,0,l),
(120,77,o),
(120,176,o),
(120,240,cs),
(120,295,o),
(125,319,o),
(132,338,cs),
(152,389,o),
(212,459,o),
(307,459,cs),
(373,459,o),
(455,429,o),
(454,305,cs),
(453,176,o),
(453,77,o),
(451,0,c),
(479,0,l),
(477,77,o),
(477,176,o),
(477,240,cs),
(477,295,o),
(482,319,o),
(489,338,cs),
(509,389,o),
(571,459,o),
(663,459,cs),
(729,459,o),
(812,429,o),
(811,305,cs),
(810,182,o),
(811,77,o),
(808,0,c),
(836,0,l),
(835,77,o),
(834,228,o),
(833,330,cs),
(832,425,o),
(773,496,o),
(677,496,cs),
(590,496,o),
(532,444,o),
(502,398,cs),
(487,375,o),
(482,371,o),
(476,371,cs),
(468,371,o),
(469,373,o),
(459,402,cs),
(445,442,o),
(411,496,o),
(315,496,cs),
(230,496,o),
(173,437,o),
(152,408,cs),
(137,387,o),
(135,383,o),
(128,383,cs),
(121,383,o),
(121,390,o),
(121,430,cs),
(121,442,o),
(121,458,o),
(122,480,c),
(94,480,l),
(98,367,o),
(98,347,o),
(94,0,c)
);
}
);
};
layerId = "60D037D9-62E9-4843-B070-F1594CB0B0D1";
shapes = (
{
closed = 1;
nodes = (
(122,0,l),
(120,77,o),
(120,176,o),
(120,240,cs),
(120,376,o),
(191,459,o),
(307,459,cs),
(373,459,o),
(455,429,o),
(454,305,cs),
(453,176,o),
(453,77,o),
(451,0,c),
(479,0,l),
(477,77,o),
(477,176,o),
(477,240,cs),
(477,368,o),
(543,459,o),
(663,459,cs),
(729,459,o),
(812,429,o),
(811,305,cs),
(810,182,o),
(811,77,o),
(808,0,c),
(836,0,l),
(835,77,o),
(834,228,o),
(833,330,cs),
(832,425,o),
(773,496,o),
(677,496,cs),
(590,496,o),
(532,444,o),
(502,398,cs),
(487,375,o),
(482,371,o),
(476,371,cs),
(468,371,o),
(469,373,o),
(459,402,cs),
(445,442,o),
(411,496,o),
(315,496,cs),
(230,496,o),
(173,437,o),
(152,408,cs),
(137,387,o),
(135,383,o),
(128,383,cs),
(121,383,o),
(121,390,o),
(121,430,cs),
(121,442,o),
(121,458,o),
(122,480,c),
(94,480,l),
(98,367,o),
(98,347,o),
(94,0,c)
);
}
);
width = 922;
},
{
anchors = (
{
name = bottom;
pos = (441,0);
},
{
name = top;
pos = (441,500);
}
);
layerId = m01;
shapes = (
{
closed = 1;
nodes = (
(122,0,l),
(120,62,o),
(118,139,o),
(118,179,cs),
(118,260,o),
(130,266,o),
(261,266,cs),
(392,266,o),
(405,260,o),
(405,179,cs),
(405,139,o),
(402,46,o),
(400,0,c),
(472,0,l),
(470,62,o),
(468,139,o),
(468,179,cs),
(468,260,o),
(480,266,o),
(611,266,cs),
(742,266,o),
(754,260,o),
(754,179,cs),
(754,144,o),
(751,46,o),
(749,0,c),
(821,0,l),
(818,62,o),
(817,178,o),
(817,339,cs),
(817,457,o),
(742,508,o),
(651,508,cs),
(576,508,o),
(517,461,o),
(493,423,cs),
(474,393,o),
(470,387,o),
(463,387,cs),
(456,387,o),
(455,396,o),
(451,407,cs),
(429,468,o),
(384,508,o),
(306,508,cs),
(231,508,o),
(182,467,o),
(161,439,cs),
(142,414,o),
(135,400,o),
(128,400,cs),
(118,400,o),
(118,412,o),
(118,431,cs),
(118,448,o),
(120,475,o),
(122,500,c),
(50,500,l),
(53,313,o),
(53,187,o),
(50,0,c)
);
}
);
width = 857;
}
);
metricLeft = n;
metricRight = n;
unicode = 109;
},
{
color = 4;
glyphname = n;
lastChange = "2023-12-27 17:18:04 +0000";
layers = (
{
anchors = (
{
name = bottom;
pos = (272,0);
},
{
name = top;
pos = (272,500);
}
);
background = {
shapes = (
{
pos = (573,0);
ref = a;
scale = (-1,1);
}
);
};
guides = (
{
pos = (26,117);
}
);
layerId = m01;
shapes = (
{
closed = 1;
nodes = (
(122,0,l),
(120,46,o),
(118,139,o),
(118,179,cs),
(118,260,o),
(130,266,o),
(278,266,cs),
(426,266,o),
(438,260,o),
(438,179,cs),
(438,139,o),
(436,46,o),
(434,0,c),
(506,0,l),
(503,62,o),
(502,186,o),
(502,347,cs),
(502,465,o),
(414,508,o),
(319,508,cs),
(232,508,o),
(188,468,o),
(163,439,cs),
(142,414,o),
(135,400,o),
(128,400,cs),
(118,400,o),
(118,412,o),
(118,431,cs),
(118,448,o),
(120,475,o),
(122,500,c),
(50,500,l),
(53,313,o),
(53,187,o),
(50,0,c)
);
}
);
width = 542;
},
{
anchors = (
{
name = bottom;
pos = (293,0);
},
{
name = top;
pos = (293,480);
}
);
background = {
shapes = (
{
pos = (570,0);
ref = a;
scale = (-1,1);
},
{
closed = 1;
nodes = (
(122,0,l),
(120,77,o),
(119,176,o),
(119,240,cs),
(119,295,o),
(124,319,o),
(131,338,cs),
(151,389,o),
(207,459,o),
(314,459,cs),
(388,459,o),
(467,429,o),
(466,305,cs),
(465,182,o),
(465,77,o),
(462,0,c),
(490,0,l),
(489,77,o),
(488,189,o),
(487,330,cs),
(486,425,o),
(435,496,o),
(323,496,cs),
(222,496,o),
(173,437,o),
(152,408,cs),
(137,387,o),
(135,383,o),
(128,383,cs),
(121,383,o),
(121,390,o),
(121,430,cs),
(121,442,o),
(121,458,o),
(122,480,c),
(94,480,l),
(98,367,o),
(98,347,o),
(94,0,c)
);
}
);
};
layerId = "60D037D9-62E9-4843-B070-F1594CB0B0D1";
shapes = (
{
closed = 1;
nodes = (
(122,0,l),
(120,77,o),
(120,176,o),
(120,249,cs),
(120,371,o),
(188,459,o),
(314,459,cs),
(388,459,o),
(467,429,o),
(466,305,cs),
(465,182,o),
(465,77,o),
(462,0,c),
(490,0,l),
(489,77,o),
(488,189,o),
(487,330,cs),
(486,425,o),
(435,496,o),
(323,496,cs),
(222,496,o),
(173,437,o),
(152,408,cs),
(137,387,o),
(135,383,o),
(128,383,cs),
(121,383,o),
(121,390,o),
(121,430,cs),
(121,442,o),
(121,458,o),
(122,480,c),
(94,480,l),
(98,367,o),
(98,347,o),
(94,0,c)
);
}
);
width = 576;
}
);
unicode = 110;
},
{
color = 4;
glyphname = o;
lastChange = "2024-01-09 12:04:26 +0000";
layers = (
{
anchors = (
{
name = bottom;
pos = (272,0);
},
{
name = center;
pos = (273,249);
},
{
name = ogonek;
pos = (304,0);
},
{
name = top;
pos = (272,500);
},
{
name = topright;
pos = (395,466);
}
);
layerId = m01;
shapes = (
{
closed = 1;
nodes = (
(432,-8,o),
(514,64,o),
(514,250,cs),
(514,436,o),
(431,508,o),
(272,508,cs),
(113,508,o),
(30,436,o),
(30,250,cs),
(30,64,o),
(112,-8,o),
(272,-8,cs)
);
},
{
closed = 1;
nodes = (
(136,180,o),
(90,198,o),
(90,250,cs),
(90,302,o),
(136,320,o),
(272,320,cs),
(408,320,o),
(454,302,o),
(454,250,cs),
(454,198,o),
(408,180,o),
(272,180,cs)
);
}
);
width = 544;
},
{
anchors = (
{
name = bottom;
pos = (268,0);
},
{
name = center;
pos = (268,240);
},
{
name = ogonek;
pos = (303,0);
},
{
name = top;
pos = (268,480);
},
{
name = topright;
pos = (408,420);
}
);
guides = (
{
angle = 90;
pos = (268,239);
showMeasurement = 1;
}
);
layerId = "60D037D9-62E9-4843-B070-F1594CB0B0D1";
shapes = (
{
closed = 1;
nodes = (
(411,-16,o),
(480,92,o),
(480,240,cs),
(480,388,o),
(411,496,o),
(268,496,cs),
(125,496,o),
(60,388,o),
(60,240,cs),
(60,92,o),
(125,-16,o),
(268,-16,cs)
);
},
{
closed = 1;
nodes = (
(142,21,o),
(81,116,o),
(81,240,cs),
(81,364,o),
(142,459,o),
(268,459,cs),
(394,459,o),
(459,364,o),
(459,240,cs),
(459,116,o),
(394,21,o),
(268,21,cs)
);
}
);
width = 540;
}
);
unicode = 111;
},
{
color = 4;
glyphname = obarred;
lastChange = "2024-01-09 16:15:36 +0000";
layers = (
{
layerId = "60D037D9-62E9-4843-B070-F1594CB0B0D1";
shapes = (
{
ref = o;
},
{
closed = 1;
nodes = (
(203,227,o),
(334,227,o),
(465,227,c),
(465,252,l),
(334,252,o),
(203,252,o),
(72,252,c),
(72,227,l)
);
}
);
width = 584;
},
{
layerId = m01;
shapes = (
{
ref = o;
},
{
closed = 1;
nodes = (
(193,224,o),
(351,224,o),
(505,221,c),
(505,273,l),
(351,270,o),
(193,270,o),
(39,273,c),
(39,221,l)
);
}
);
width = 544;
}
);
unicode = 629;
},
{
color = 0;
glyphname = ou;
lastChange = "2024-01-09 16:23:38 +0000";
layers = (
{
anchors = (
{
name = bottom;
pos = (268,0);
},
{
name = center;
pos = (268,240);
},
{
name = ogonek;
pos = (303,0);
},
{
name = top;
pos = (268,480);
},
{
name = topright;
pos = (408,420);
}
);
layerId = "60D037D9-62E9-4843-B070-F1594CB0B0D1";
shapes = (
{
closed = 1;
nodes = (
(476,387,o),
(467,449,o),
(468,840,c),
(441,840,l),
(442,761,o),
(444,634,o),
(441,558,cs),
(437,485,o),
(431,422,o),
(268,422,cs),
(105,422,o),
(99,485,o),
(95,558,cs),
(92,634,o),
(94,761,o),
(95,840,c),
(68,840,l),
(69,449,o),
(60,387,o),
(268,387,c)
);
},
{
closed = 1;
nodes = (
(411,-16,o),
(480,76,o),
(480,201,cs),
(480,327,o),
(411,419,o),
(268,419,cs),
(125,419,o),
(60,327,o),
(60,201,cs),
(60,76,o),
(125,-16,o),
(268,-16,cs)
);
},
{
closed = 1;
nodes = (
(142,15,o),
(81,96,o),
(81,201,cs),
(81,307,o),
(142,387,o),
(268,387,cs),
(394,387,o),
(459,307,o),
(459,201,cs),
(459,96,o),
(394,15,o),
(268,15,cs)
);
}
);
width = 540;
},
{
anchors = (
{
name = bottom;
pos = (272,0);
},
{
name = center;
pos = (273,249);
},
{
name = ogonek;
pos = (304,0);
},
{
name = top;
pos = (272,500);
},
{
name = topright;
pos = (395,377);
}
);
layerId = m01;
shapes = (
{
closed = 1;
nodes = (
(442,322,o),
(496,414,o),
(499,760,c),
(419,760,l),
(421,706,o),
(422,639,o),
(419,558,cs),
(417,481,o),
(400,472,o),
(270,472,cs),
(143,472,o),
(126,481,o),
(124,558,cs),
(121,639,o),
(123,706,o),
(125,760,c),
(46,760,l),
(46,408,o),
(94,322,o),
(270,322,cs)
);
},
{
closed = 1;
nodes = (
(432,-8,o),
(514,60,o),
(514,232,cs),
(514,406,o),
(431,472,o),
(272,472,cs),
(113,472,o),
(30,406,o),
(30,232,cs),
(30,60,o),
(112,-8,o),
(272,-8,cs)
);
},
{
closed = 1;
nodes = (
(136,180,o),
(90,198,o),
(90,250,cs),
(90,302,o),
(136,320,o),
(272,320,cs),
(408,320,o),
(454,302,o),
(454,250,cs),
(454,198,o),
(408,180,o),
(272,180,cs)
);
}
);
width = 544;
}
);
metricLeft = o;
metricRight = o;
unicode = 547;
},
{
color = 2;
glyphname = oe;
lastChange = "2024-01-09 16:23:55 +0000";
layers = (
{
anchors = (
{
name = bottom;
pos = (98,0);
},
{
name = center;
pos = (98,240);
},
{
name = ogonek;
pos = (133,0);
},
{
name = top;
pos = (98,480);
},
{
name = topright;
pos = (238,420);
}
);
layerId = "60D037D9-62E9-4843-B070-F1594CB0B0D1";
shapes = (
{
closed = 1;
nodes = (
(412,-16,o),
(477,92,o),
(477,240,cs),
(477,388,o),
(412,496,o),
(268,496,cs),
(125,496,o),
(60,388,o),
(60,240,cs),
(60,92,o),
(125,-16,o),
(268,-16,cs)
);
},
{
closed = 1;
nodes = (
(140,21,o),
(81,116,o),
(81,240,cs),
(81,364,o),
(140,459,o),
(268,459,cs),
(396,459,o),
(456,364,o),
(456,240,cs),
(456,116,o),
(396,21,o),
(268,21,cs)
);
},
{
closed = 1;
nodes = (
(732,-16,o),
(774,-6,o),
(826,11,c),
(826,41,l),
(771,25,o),
(731,21,o),
(695,21,cs),
(560,21,o),
(495,75,o),
(478,201,c),
(851,201,l),
(851,372,o),
(808,496,o),
(654,496,cs),
(521,496,o),
(456,392,o),
(456,231,cs),
(456,83,o),
(538,-16,o),
(685,-16,cs)
);
},
{
closed = 1;
nodes = (
(478,228,l),
(478,391,o),
(539,459,o),
(654,459,cs),
(774,459,o),
(829,385,o),
(826,228,c)
);
}
);
width = 903;
},
{
anchors = (
{
name = bottom;
pos = (118,0);
},
{
name = center;
pos = (119,249);
},
{
name = ogonek;
pos = (150,0);
},
{
name = top;
pos = (118,500);
},
{
name = topright;
pos = (241,377);
}
);
layerId = m01;
shapes = (
{
closed = 1;
nodes = (
(396,-10,o),
(472,68,o),
(472,254,cs),
(472,440,o),
(395,508,o),
(250,508,cs),
(106,508,o),
(30,440,o),
(30,254,cs),
(30,68,o),
(105,-10,o),
(250,-10,cs)
);
},
{
closed = 1;
nodes = (
(127,179,o),
(85,197,o),
(85,249,cs),
(85,301,o),
(127,319,o),
(250,319,cs),
(374,319,o),
(416,301,o),
(416,249,cs),
(416,197,o),
(374,179,o),
(250,179,cs)
);
},
{
closed = 1;
nodes = (
(761,-8,o),
(796,-1,o),
(835,11,c),
(835,205,l),
(758,187,o),
(701,180,o),
(641,180,cs),
(544,180,o),
(488,193,o),
(472,232,c),
(847,232,l),
(847,440,o),
(790,510,o),
(631,510,cs),
(497,510,o),
(416,413,o),
(416,252,cs),
(416,74,o),
(494,-8,o),
(694,-8,cs)
);
},
{
closed = 1;
nodes = (
(473,287,l),
(475,319,o),
(538,345,o),
(625,345,cs),
(719,345,o),
(781,319,o),
(783,287,c)
);
}
);
width = 879;
}
);
metricLeft = o;
metricRight = e;
unicode = 339;
},
{
color = 4;
glyphname = p;
lastChange = "2024-01-02 17:32:10 +0000";
layers = (
{
anchors = (
{
name = bottom;
pos = (302,0);
},
{
name = top;
pos = (302,500);
}
);
layerId = m01;
shapes = (
{
closed = 1;
nodes = (
(122,-206,l),
(120,-181,o),
(118,49,o),
(118,64,cs),
(118,81,o),
(118,91,o),
(128,91,cs),
(135,91,o),
(141,81,o),
(160,58,cs),
(184,28,o),
(220,-8,o),
(316,-8,cs),
(462,-8,o),
(527,74,o),
(527,250,cs),
(527,426,o),
(462,508,o),
(316,508,cs),
(220,508,o),
(184,472,o),
(160,442,cs),
(141,419,o),
(135,409,o),
(128,409,cs),
(118,409,o),
(118,419,o),
(118,436,cs),
(118,451,o),
(120,475,o),
(122,500,c),
(50,500,l),
(53,305,o),
(53,-9,o),
(50,-206,c)
);
},
{
closed = 1;
nodes = (
(164,182,o),
(116,199,o),
(116,250,cs),
(116,301,o),
(164,318,o),
(291,317,cs),
(412,316,o),
(467,301,o),
(467,250,cs),
(467,199,o),
(412,180,o),
(291,181,cs)
);
}
);
width = 557;
},
{
anchors = (
{
name = bottom;
pos = (312,0);
},
{
name = top;
pos = (312,480);
}
);
layerId = "60D037D9-62E9-4843-B070-F1594CB0B0D1";
shapes = (
{
closed = 1;
nodes = (
(121,-207,l),
(118,-123,o),
(120,-24,o),
(120,53,cs),
(120,80,o),
(120,87,o),
(127,87,cs),
(134,87,o),
(136,83,o),
(151,62,cs),
(172,33,o),
(221,-16,o),
(307,-16,cs),
(432,-16,o),
(510,80,o),
(510,240,cs),
(510,400,o),
(432,496,o),
(307,496,cs),
(216,496,o),
(172,447,o),
(151,418,cs),
(136,397,o),
(134,393,o),
(127,393,cs),
(120,393,o),
(120,400,o),
(120,430,cs),
(120,442,o),
(120,458,o),
(121,480,c),
(94,480,l),
(98,133,o),
(98,87,o),
(94,-207,c)
);
},
{
closed = 1;
nodes = (
(187,21,o),
(117,96,o),
(117,240,cs),
(117,384,o),
(187,459,o),
(307,459,cs),
(426,459,o),
(489,376,o),
(489,240,cs),
(489,104,o),
(426,21,o),
(307,21,cs)
);
}
);
width = 570;
}
);
metricLeft = n;
metricRight = o;
unicode = 112;
},
{
color = 0;
glyphname = pstroke;
lastChange = "2024-01-09 16:20:18 +0000";
layers = (
{
layerId = "60D037D9-62E9-4843-B070-F1594CB0B0D1";
shapes = (
{
ref = p;
},
{
closed = 1;
nodes = (
(225,227,o),
(379,227,o),
(532,227,c),
(532,252,l),
(379,252,o),
(225,252,o),
(72,252,c),
(72,227,l)
);
}
);
width = 570;
},
{
layerId = m01;
shapes = (
{
ref = p;
},
{
closed = 1;
nodes = (
(201,224,o),
(378,224,o),
(551,221,c),
(551,273,l),
(378,270,o),
(201,270,o),
(29,273,c),
(29,221,l)
);
}
);
width = 557;
}
);
unicode = 7549;
},
{
color = 4;
glyphname = q;
lastChange = "2024-01-02 17:32:17 +0000";
layers = (
{
anchors = (
{
name = bottom;
pos = (213,0);
},
{
name = top;
pos = (213,500);
}
);
layerId = m01;
shapes = (
{
closed = 1;
nodes = (
(507,-206,l),
(504,-9,o),
(504,305,o),
(507,500,c),
(435,500,l),
(437,475,o),
(439,451,o),
(439,436,cs),
(439,419,o),
(439,409,o),
(429,409,cs),
(422,409,o),
(416,419,o),
(397,442,cs),
(373,472,o),
(337,508,o),
(241,508,cs),
(95,508,o),
(30,426,o),
(30,250,cs),
(30,74,o),
(95,-8,o),
(241,-8,cs),
(337,-8,o),
(373,28,o),
(397,58,cs),
(416,81,o),
(422,91,o),
(429,91,cs),
(439,91,o),
(439,81,o),
(439,64,cs),
(439,49,o),
(437,-181,o),
(435,-206,c)
);
},
{
closed = 1;
nodes = (
(145,180,o),
(90,199,o),
(90,250,cs),
(90,301,o),
(145,316,o),
(266,317,cs),
(393,318,o),
(441,301,o),
(441,250,cs),
(441,199,o),
(393,182,o),
(266,181,cs)
);
}
);
width = 557;
},
{
anchors = (
{
name = bottom;
pos = (290,0);
},
{
name = top;
pos = (290,480);
}
);
layerId = "60D037D9-62E9-4843-B070-F1594CB0B0D1";
shapes = (
{
closed = 1;
nodes = (
(476,-207,l),
(472,140,o),
(472,94,o),
(476,480,c),
(449,480,l),
(450,458,o),
(450,442,o),
(450,430,cs),
(450,400,o),
(450,393,o),
(443,393,cs),
(436,393,o),
(434,397,o),
(419,418,cs),
(398,447,o),
(354,496,o),
(263,496,cs),
(138,496,o),
(60,400,o),
(60,240,cs),
(60,80,o),
(138,-16,o),
(263,-16,cs),
(349,-16,o),
(398,33,o),
(419,62,cs),
(434,83,o),
(436,87,o),
(443,87,cs),
(450,87,o),
(450,80,o),
(450,53,cs),
(450,-24,o),
(452,-123,o),
(449,-207,c)
);
},
{
closed = 1;
nodes = (
(144,21,o),
(81,104,o),
(81,240,cs),
(81,376,o),
(144,459,o),
(263,459,cs),
(383,459,o),
(453,384,o),
(453,240,cs),
(453,96,o),
(383,21,o),
(263,21,cs)
);
}
);
width = 570;
}
);
metricLeft = o;
metricRight = "=|n";
unicode = 113;
},
{
color = 4;
glyphname = r;
lastChange = "2024-01-09 16:07:11 +0000";
layers = (
{
anchors = (
{
name = bottom;
pos = (222,0);
},
{
name = center;
pos = (89,148);
},
{
name = top;
pos = (245,500);
}
);
background = {
shapes = (
{
closed = 1;
nodes = (
(122,0,l),
(120,46,o),
(118,141,o),
(118,200,cs),
(118,212,o),
(118,222,o),
(122,231,cs),
(131,255,o),
(162,266,o),
(267,270,cs),
(322,272,o),
(365,264,o),
(389,258,c),
(389,498,l),
(364,505,o),
(338,508,o),
(312,508,cs),
(230,508,o),
(196,472,o),
(169,442,cs),
(142,412,o),
(135,398,o),
(128,398,cs),
(118,398,o),
(118,410,o),
(118,427,cs),
(118,444,o),
(120,471,o),
(122,500,c),
(50,500,l),
(53,313,o),
(53,187,o),
(50,0,c)
);
}
);
};
layerId = m01;
shapes = (
{
closed = 1;
nodes = (
(122,0,l),
(120,46,o),
(118,141,o),
(118,200,cs),
(118,257,o),
(161,268,o),
(225,268,cs),
(316,268,o),
(357,262,o),
(389,258,c),
(389,498,l),
(364,505,o),
(338,508,o),
(312,508,cs),
(230,508,o),
(196,472,o),
(169,442,cs),
(142,412,o),
(135,398,o),
(128,398,cs),
(118,398,o),
(118,410,o),
(118,427,cs),
(118,444,o),
(120,471,o),
(122,500,c),
(50,500,l),
(53,313,o),
(53,187,o),
(50,0,c)
);
}
);
width = 409;
},
{
anchors = (
{
name = bottom;
pos = (205,0);
},
{
name = center;
pos = (108,191);
},
{
name = top;
pos = (290,480);
}
);
background = {
shapes = (
{
closed = 1;
nodes = (
(122,0,l),
(120,77,o),
(119,176,o),
(119,240,cs),
(119,285,o),
(124,309,o),
(131,328,cs),
(151,379,o),
(201,455,o),
(310,455,cs),
(341,455,o),
(354,451,o),
(367,448,c),
(367,489,l),
(356,492,o),
(335,496,o),
(315,496,cs),
(218,496,o),
(171,426,o),
(151,400,cs),
(138,383,o),
(135,373,o),
(128,373,cs),
(121,373,o),
(121,380,o),
(121,420,cs),
(121,434,o),
(121,458,o),
(122,480,c),
(94,480,l),
(98,367,o),
(98,347,o),
(94,0,c)
);
}
);
};
layerId = "60D037D9-62E9-4843-B070-F1594CB0B0D1";
shapes = (
{
closed = 1;
nodes = (
(122,0,l),
(120,77,o),
(119,191,o),
(119,255,cs),
(119,350,o),
(184,455,o),
(310,455,cs),
(341,455,o),
(354,451,o),
(367,448,c),
(367,489,l),
(356,492,o),
(335,496,o),
(315,496,cs),
(218,496,o),
(171,426,o),
(151,400,cs),
(138,383,o),
(135,373,o),
(128,373,cs),
(121,373,o),
(121,380,o),
(121,420,cs),
(121,434,o),
(121,458,o),
(122,480,c),
(94,480,l),
(98,367,o),
(98,347,o),
(94,0,c)
);
}
);
width = 378;
}
);
metricLeft = n;
unicode = 114;
},
{
color = 4;
glyphname = s;
lastChange = "2024-01-09 16:07:45 +0000";
layers = (
{
anchors = (
{
name = bottom;
pos = (215,0);
},
{
name = center;
pos = (242,247);
},
{
name = top;
pos = (215,508);
}
);
layerId = m01;
shapes = (
{
closed = 1;
nodes = (
(345,-8,o),
(417,39,o),
(417,122,cs),
(417,183,o),
(383,223,o),
(257,256,cs),
(192,273,o),
(169,281,o),
(169,297,cs),
(169,310,o),
(187,315,o),
(234,315,cs),
(276,315,o),
(326,308,o),
(402,294,c),
(402,492,l),
(360,500,o),
(290,508,o),
(254,508,cs),
(108,508,o),
(32,465,o),
(32,369,cs),
(32,282,o),
(78,255,o),
(213,220,cs),
(292,200,o),
(305,189,o),
(305,174,cs),
(305,160,o),
(285,154,o),
(237,154,cs),
(189,154,o),
(127,162,o),
(45,186,c),
(42,10,l),
(87,-2,o),
(143,-8,o),
(222,-8,cs)
);
}
);
width = 441;
},
{
anchors = (
{
name = bottom;
pos = (177,0);
},
{
name = center;
pos = (216,251);
},
{
name = top;
pos = (177,480);
}
);
layerId = "60D037D9-62E9-4843-B070-F1594CB0B0D1";
shapes = (
{
closed = 1;
nodes = (
(305,-16,o),
(351,55,o),
(351,111,cs),
(351,169,o),
(335,226,o),
(189,271,cs),
(104,297,o),
(77,337,o),
(77,378,cs),
(77,418,o),
(102,461,o),
(195,461,cs),
(240,461,o),
(281,450,o),
(328,434,c),
(328,476,l),
(292,487,o),
(248,496,o),
(201,496,cs),
(89,496,o),
(54,432,o),
(54,385,cs),
(54,336,o),
(68,285,o),
(180,250,cs),
(303,212,o),
(327,158,o),
(327,115,cs),
(327,70,o),
(288,20,o),
(197,20,cs),
(130,20,o),
(91,33,o),
(48,52,c),
(48,10,l),
(91,-6,o),
(133,-16,o),
(186,-16,cs)
);
}
);
width = 398;
}
);
unicode = 115;
},
{
color = 0;
glyphname = saltillo;
lastChange = "2024-01-09 16:21:07 +0000";
layers = (
{
layerId = "60D037D9-62E9-4843-B070-F1594CB0B0D1";
shapes = (
{
closed = 1;
nodes = (
(75,620,l),
(81,551,l),
(98,551,l),
(104,620,l),
(104,700,l),
(75,700,l)
);
}
);
width = 179;
},
{
layerId = m01;
shapes = (
{
closed = 1;
nodes = (
(40,592,l),
(53,500,l),
(102,500,l),
(115,592,l),
(115,700,l),
(40,700,l)
);
}
);
width = 155;
}
);
metricLeft = period;
metricRight = period;
unicode = 42892;
},
{
color = 8;
glyphname = germandbls;
lastChange = "2024-01-09 13:51:29 +0000";
layers = (
{
layerId = "60D037D9-62E9-4843-B070-F1594CB0B0D1";
shapes = (
{
closed = 1;
nodes = (
(101,-7,l),
(99,371,o),
(101,475,o),
(101,494,cs),
(101,541,o),
(116,579,o),
(126,599,cs),
(170,687,o),
(245,714,o),
(334,698,cs),
(425,682,o),
(458,595,o),
(458,547,cs),
(458,454,o),
(406,391,o),
(346,383,cs),
(307,378,o),
(264,382,o),
(202,386,c),
(202,346,l),
(264,350,o),
(315,355,o),
(354,345,cs),
(415,329,o),
(465,245,o),
(465,180,cs),
(465,114,o),
(428,46,o),
(372,30,cs),
(326,17,o),
(217,20,o),
(139,64,c),
(139,14,l),
(206,-7,o),
(283,-7,o),
(317,-7,cs),
(447,-7,o),
(493,95,o),
(493,172,cs),
(493,235,o),
(474,268,o),
(453,297,cs),
(428,331,o),
(396,347,o),
(396,363,cs),
(396,384,o),
(422,393,o),
(445,425,cs),
(466,454,o),
(482,481,o),
(482,541,cs),
(482,683,o),
(375,734,o),
(296,734,cs),
(191,734,o),
(126,693,o),
(92,599,cs),
(74,548,o),
(75,420,o),
(75,395,cs),
(71,-8,l)
);
}
);
width = 515;
},
{
layerId = m01;
shapes = (
{
closed = 1;
nodes = (
(101,-8,l),
(99,370,o),
(105,388,o),
(109,407,cs),
(116,442,o),
(132,459,o),
(152,474,cs),
(199,510,o),
(304,515,o),
(350,505,cs),
(409,492,o),
(423,462,o),
(423,440,cs),
(423,416,o),
(410,389,o),
(350,380,cs),
(311,374,o),
(264,378,o),
(202,382,c),
(202,318,l),
(264,321,o),
(311,319,o),
(350,313,cs),
(410,304,o),
(424,277,o),
(424,251,cs),
(424,221,o),
(406,196,o),
(350,189,cs),
(304,183,o),
(221,188,o),
(139,222,c),
(139,14,l),
(217,-4,o),
(293,-7,o),
(327,-7,cs),
(449,-7,o),
(542,40,o),
(542,161,cs),
(542,224,o),
(519,259,o),
(496,286,cs),
(471,315,o),
(435,331,o),
(435,350,cs),
(435,371,o),
(460,384,o),
(486,415,cs),
(507,439,o),
(527,469,o),
(527,529,cs),
(527,656,o),
(438,719,o),
(310,719,cs),
(205,719,o),
(115,699,o),
(61,588,cs),
(35,535,o),
(38,420,o),
(38,395,cs),
(34,-8,l)
);
}
);
width = 502;
}
);
unicode = 223;
},
{
color = 4;
glyphname = t;
lastChange = "2024-01-09 16:26:10 +0000";
layers = (
{
anchors = (
{
name = bottom;
pos = (207,3);
},
{
name = center;
pos = (172,250);
},
{
name = top;
pos = (134,632);
},
{
name = topright;
pos = (330,632);
}
);
background = {
shapes = (
{
pos = (-28,735);
ref = f.001;
scale = (1,-1);
}
);
};
layerId = m01;
shapes = (
{
closed = 1;
nodes = (
(311,189,l),
(273,173,o),
(235,166,o),
(204,169,cs),
(178,172,o),
(162,183,o),
(154,199,cs),
(142,222,o),
(141,254,o),
(141,291,c),
(314,291,l),
(314,500,l),
(141,500,l),
(145,630,l),
(77,630,l),
(81,500,l),
(-6,500,l),
(-6,291,l),
(81,291,l),
(81,220,o),
(71,117,o),
(98,67,cs),
(135,-1,o),
(188,-15,o),
(311,-5,c)
);
}
);
width = 338;
},
{
anchors = (
{
name = bottom;
pos = (199,0);
},
{
name = center;
pos = (115,255);
},
{
name = top;
pos = (127,654);
},
{
name = topright;
pos = (194,661);
}
);
background = {
shapes = (
{
closed = 1;
nodes = (
(278,34,l),
(250,30,o),
(200,23,o),
(171,36,cs),
(143,49,o),
(123,80,o),
(123,141,cs),
(123,205,o),
(122,431,o),
(123,447,c),
(281,447,l),
(281,480,l),
(124,480,l),
(127,634,l),
(99,634,l),
(102,480,l),
(40,480,l),
(40,447,l),
(102,447,l),
(102,431,o),
(102,205,o),
(102,126,cs),
(102,-37,o),
(223,-9,o),
(278,-3,c)
);
}
);
};
layerId = "60D037D9-62E9-4843-B070-F1594CB0B0D1";
shapes = (
{
closed = 1;
nodes = (
(278,37,l),
(254,30,o),
(213,23,o),
(178,34,cs),
(144,45,o),
(132,78,o),
(129,94,cs),
(120,133,o),
(125,204,o),
(123,447,c),
(281,447,l),
(281,480,l),
(124,480,l),
(127,634,l),
(99,634,l),
(102,480,l),
(40,480,l),
(40,447,l),
(102,447,l),
(102,431,o),
(102,205,o),
(102,126,cs),
(102,-37,o),
(245,-9,o),
(278,-2,c)
);
}
);
width = 341;
}
);
unicode = 116;
},
{
color = 0;
glyphname = tbar;
lastChange = "2024-01-09 16:16:37 +0000";
layers = (
{
layerId = "60D037D9-62E9-4843-B070-F1594CB0B0D1";
shapes = (
{
ref = t;
},
{
closed = 1;
nodes = (
(121,526,o),
(202,526,o),
(282,526,c),
(282,555,l),
(202,555,o),
(121,555,o),
(41,555,c),
(41,526,l)
);
}
);
width = 341;
},
{
layerId = m01;
shapes = (
{
ref = t;
},
{
closed = 1;
nodes = (
(100,536,o),
(207,536,o),
(312,533,c),
(312,585,l),
(207,582,o),
(100,582,o),
(-5,585,c),
(-5,533,l)
);
}
);
width = 338;
}
);
unicode = 359;
},
{
color = 0;
glyphname = tretroflexhook;
lastChange = "2024-01-09 16:18:12 +0000";
layers = (
{
anchors = (
{
name = bottom;
pos = (199,0);
},
{
name = center;
pos = (115,255);
},
{
name = top;
pos = (240,480);
},
{
name = topright;
pos = (339,634);
}
);
layerId = "60D037D9-62E9-4843-B070-F1594CB0B0D1";
shapes = (
{
closed = 1;
nodes = (
(278,-124,l),
(254,-131,o),
(213,-138,o),
(178,-127,cs),
(144,-116,o),
(132,-83,o),
(129,-67,cs),
(120,-28,o),
(125,43,o),
(123,447,c),
(281,447,l),
(281,480,l),
(124,480,l),
(127,634,l),
(99,634,l),
(102,480,l),
(40,480,l),
(40,447,l),
(102,447,l),
(102,431,o),
(102,44,o),
(102,-35,cs),
(102,-198,o),
(245,-170,o),
(278,-163,c)
);
}
);
width = 341;
},
{
anchors = (
{
name = bottom;
pos = (236,0);
},
{
name = center;
pos = (172,250);
},
{
name = top;
pos = (134,632);
},
{
name = topright;
pos = (342,636);
}
);
layerId = m01;
shapes = (
{
closed = 1;
nodes = (
(311,-5,l),
(273,-21,o),
(235,-28,o),
(204,-25,cs),
(178,-22,o),
(162,-11,o),
(154,5,cs),
(142,28,o),
(141,254,o),
(141,291,c),
(314,291,l),
(314,500,l),
(141,500,l),
(145,630,l),
(77,630,l),
(81,500,l),
(-6,500,l),
(-6,291,l),
(81,291,l),
(81,26,o),
(71,-77,o),
(98,-127,cs),
(135,-195,o),
(188,-209,o),
(311,-199,c)
);
}
);
width = 338;
}
);
unicode = 648;
},
{
color = 4;
glyphname = u;
lastChange = "2024-01-09 13:18:06 +0000";
layers = (
{
anchors = (
{
name = bottom;
pos = (250,0);
},
{
name = ogonek;
pos = (462,0);
},
{
name = top;
pos = (250,500);
},
{
name = topright;
pos = (391,500);
}
);
background = {
shapes = (
{
angle = 180;
pos = (452,500);
ref = o;
}
);
};
layerId = m01;
shapes = (
{
closed = 1;
nodes = (
(293,-8,o),
(329,32,o),
(352,61,cs),
(372,86,o),
(378,100,o),
(385,100,cs),
(394,100,o),
(394,88,o),
(394,69,cs),
(394,52,o),
(392,25,o),
(391,0,c),
(463,0,l),
(460,187,o),
(460,313,o),
(463,500,c),
(391,500,l),
(392,454,o),
(394,364,o),
(394,324,cs),
(394,243,o),
(383,237,o),
(249,237,cs),
(116,237,o),
(105,243,o),
(105,324,cs),
(105,364,o),
(106,454,o),
(108,500,c),
(36,500,l),
(39,438,o),
(40,314,o),
(40,153,cs),
(40,35,o),
(122,-8,o),
(211,-8,cs)
);
}
);
width = 499;
},
{
anchors = (
{
name = bottom;
pos = (280,0);
},
{
name = ogonek;
pos = (504,10);
},
{
name = top;
pos = (280,480);
},
{
name = topright;
pos = (446,480);
}
);
layerId = "60D037D9-62E9-4843-B070-F1594CB0B0D1";
shapes = (
{
closed = 1;
nodes = (
(346,-16,o),
(395,43,o),
(416,72,cs),
(431,93,o),
(433,97,o),
(440,97,cs),
(447,97,o),
(447,90,o),
(447,50,cs),
(447,38,o),
(447,22,o),
(446,0,c),
(474,0,l),
(470,113,o),
(470,133,o),
(474,480,c),
(446,480,l),
(448,403,o),
(449,295,o),
(449,231,cs),
(449,109,o),
(385,21,o),
(254,21,cs),
(188,21,o),
(109,51,o),
(110,175,cs),
(111,298,o),
(111,403,o),
(114,480,c),
(86,480,l),
(87,403,o),
(88,291,o),
(89,150,cs),
(90,55,o),
(141,-16,o),
(245,-16,cs)
);
}
);
width = 560;
}
);
metricLeft = "=|n";
metricRight = n;
unicode = 117;
},
{
color = 0;
glyphname = ubar;
lastChange = "2024-01-09 16:17:04 +0000";
layers = (
{
layerId = "60D037D9-62E9-4843-B070-F1594CB0B0D1";
shapes = (
{
ref = u;
},
{
closed = 1;
nodes = (
(199,283,o),
(357,283,o),
(515,283,c),
(515,308,l),
(357,308,o),
(199,308,o),
(41,308,c),
(41,283,l)
);
}
);
width = 560;
},
{
layerId = m01;
shapes = (
{
ref = u;
},
{
closed = 1;
nodes = (
(163,335,o),
(340,335,o),
(513,332,c),
(513,384,l),
(340,381,o),
(163,381,o),
(-9,384,c),
(-9,332,l)
);
}
);
width = 499;
}
);
unicode = 649;
},
{
color = 4;
glyphname = v;
lastChange = "2023-12-27 16:23:18 +0000";
layers = (
{
anchors = (
{
name = bottom;
pos = (230,0);
},
{
name = top;
pos = (230,500);
}
);
background = {
shapes = (
{
pos = (-89,0);
ref = V;
},
{
pos = (-51,0);
ref = o;
}
);
};
layerId = m01;
shapes = (
{
closed = 1;
nodes = (
(387,0,l),
(401,131,o),
(426,271,o),
(478,500,c),
(393,500,l),
(381,380,o),
(372,325,o),
(360,259,cs),
(353,219,o),
(322,211,o),
(239,211,cs),
(156,211,o),
(125,219,o),
(118,259,cs),
(106,325,o),
(98,380,o),
(85,500,c),
(0,500,l),
(52,271,o),
(77,131,o),
(91,0,c)
);
}
);
width = 478;
},
{
anchors = (
{
name = bottom;
pos = (274,0);
},
{
name = top;
pos = (274,480);
}
);
background = {
shapes = (
{
closed = 1;
nodes = (
(312,0,ls),
(366,0,o),
(375,-4,o),
(382,21,cs),
(503,480,l),
(482,480,l),
(369,38,ls),
(362,10,o),
(356,17,o),
(271,17,cs),
(191,17,o),
(183,10,o),
(176,38,cs),
(65,480,l),
(44,480,l),
(162,23,ls),
(169,-3,o),
(185,0,o),
(235,0,cs)
);
},
{
pos = (-16,0);
ref = o;
}
);
};
layerId = "60D037D9-62E9-4843-B070-F1594CB0B0D1";
shapes = (
{
closed = 1;
nodes = (
(318,0,l),
(370,169,o),
(407,315,o),
(464,480,c),
(429,480,l),
(389,330,o),
(353,206,o),
(316,74,cs),
(307,42,o),
(303,41,o),
(250,41,cs),
(197,41,o),
(193,42,o),
(184,74,cs),
(147,206,o),
(111,330,o),
(71,480,c),
(36,480,l),
(93,315,o),
(130,169,o),
(182,0,c)
);
}
);
width = 500;
}
);
unicode = 118;
},
{
color = 4;
glyphname = w;
lastChange = "2023-12-27 16:23:26 +0000";
layers = (
{
anchors = (
{
name = bottom;
pos = (353,0);
},
{
name = top;
pos = (353,500);
}
);
background = {
shapes = (
{
pos = (-57,0);
ref = W;
}
);
};
layerId = m01;
shapes = (
{
closed = 1;
nodes = (
(281,0,l),
(300,223,o),
(307,248,o),
(337,248,cs),
(367,248,o),
(374,223,o),
(393,0,c),
(603,0,l),
(626,216,o),
(638,300,o),
(674,500,c),
(589,500,l),
(579,368,o),
(572,248,o),
(562,229,cs),
(552,211,o),
(526,208,o),
(489,208,cs),
(452,208,o),
(426,211,o),
(416,229,cs),
(406,248,o),
(394,380,o),
(382,500,c),
(292,500,l),
(280,380,o),
(268,248,o),
(258,229,cs),
(248,211,o),
(222,208,o),
(185,208,cs),
(148,208,o),
(122,211,o),
(112,229,cs),
(102,248,o),
(95,368,o),
(85,500,c),
(0,500,l),
(36,300,o),
(48,216,o),
(71,0,c)
);
}
);
width = 674;
},
{
anchors = (
{
name = bottom;
pos = (354,0);
},
{
name = top;
pos = (354,480);
}
);
background = {
shapes = (
{
pos = (325,0);
ref = v;
scale = (0.834,1);
},
{
pos = (-1,0);
ref = v;
scale = (0.834,1);
}
);
};
layerId = "60D037D9-62E9-4843-B070-F1594CB0B0D1";
shapes = (
{
closed = 1;
nodes = (
(255,0,l),
(328,440,o),
(327,450,o),
(356,450,cs),
(385,450,o),
(384,440,o),
(457,0,c),
(601,0,l),
(640,227,o),
(647,282,o),
(680,480,c),
(648,480,l),
(592,53,o),
(588,47,o),
(581,42,cs),
(574,37,o),
(567,36,o),
(528,36,cs),
(492,36,o),
(485,37,o),
(478,42,cs),
(471,47,o),
(470,53,o),
(399,480,c),
(313,480,l),
(242,53,o),
(241,47,o),
(234,42,cs),
(227,37,o),
(220,36,o),
(184,36,cs),
(145,36,o),
(138,37,o),
(131,42,cs),
(124,47,o),
(122,53,o),
(66,480,c),
(36,480,l),
(67,282,o),
(74,227,o),
(111,0,c)
);
}
);
width = 716;
}
);
metricLeft = v;
metricRight = v;
unicode = 119;
},
{
color = 4;
glyphname = x;
lastChange = "2023-12-27 16:22:34 +0000";
layers = (
{
anchors = (
{
name = bottom;
pos = (250,0);
},
{
name = top;
pos = (250,500);
}
);
background = {
shapes = (
{
closed = 1;
nodes = (
(194,0,l),
(224,90,o),
(233,110,o),
(250,127,cs),
(265,142,o),
(275,144,o),
(327,144,cs),
(371,144,o),
(387,142,o),
(400,129,cs),
(418,111,o),
(436,73,o),
(460,0,c),
(558,0,l),
(489,140,o),
(460,199,o),
(448,228,cs),
(441,245,o),
(439,250,o),
(439,259,cs),
(439,273,o),
(440,276,o),
(447,292,cs),
(458,318,o),
(484,370,o),
(550,500,c),
(343,500,l),
(318,413,o),
(305,383,o),
(289,369,cs),
(280,361,o),
(268,359,o),
(230,359,cs),
(200,359,o),
(183,363,o),
(175,373,cs),
(155,399,o),
(142,430,o),
(122,500,c),
(29,500,l),
(100,363,o),
(121,319,o),
(133,291,cs),
(139,277,o),
(141,269,o),
(141,259,cs),
(141,248,o),
(141,246,o),
(132,226,cs),
(108,174,o),
(60,78,o),
(21,0,c)
);
}
);
};
layerId = m01;
shapes = (
{
closed = 1;
nodes = (
(101,0,l),
(121,84,o),
(130,119,o),
(147,140,cs),
(163,160,o),
(190,160,o),
(253,160,cs),
(316,160,o),
(343,160,o),
(359,140,cs),
(376,119,o),
(385,84,o),
(405,0,c),
(488,0,l),
(417,224,o),
(406,237,o),
(406,258,cs),
(406,280,o),
(410,292,o),
(477,501,c),
(394,501,l),
(382,440,o),
(376,405,o),
(359,384,cs),
(343,364,o),
(316,364,o),
(253,364,cs),
(190,364,o),
(163,364,o),
(147,384,cs),
(130,405,o),
(124,440,o),
(112,501,c),
(29,501,l),
(97,292,o),
(100,280,o),
(100,258,cs),
(100,237,o),
(95,224,o),
(18,0,c)
);
}
);
width = 506;
},
{
anchors = (
{
name = bottom;
pos = (268,0);
},
{
name = top;
pos = (268,480);
}
);
background = {
shapes = (
{
pos = (11,0);
ref = v;
}
);
};
layerId = "60D037D9-62E9-4843-B070-F1594CB0B0D1";
shapes = (
{
closed = 1;
nodes = (
(92,0,l),
(138,113,o),
(182,220,o),
(191,230,cs),
(200,241,o),
(208,241,o),
(259,241,cs),
(310,241,o),
(318,241,o),
(327,230,cs),
(336,220,o),
(380,113,o),
(426,0,c),
(464,0,l),
(350,236,o),
(346,240,o),
(346,257,cs),
(346,272,o),
(350,276,o),
(457,480,c),
(419,480,l),
(382,390,o),
(336,292,o),
(327,282,cs),
(318,271,o),
(310,271,o),
(259,271,cs),
(208,271,o),
(200,271,o),
(191,282,cs),
(182,292,o),
(136,390,o),
(99,480,c),
(61,480,l),
(168,276,o),
(172,272,o),
(172,257,cs),
(172,240,o),
(168,236,o),
(54,0,c)
);
}
);
width = 518;
}
);
unicode = 120;
},
{
color = 4;
glyphname = y;
lastChange = "2023-12-27 16:24:43 +0000";
layers = (
{
anchors = (
{
name = bottom;
pos = (452,-30);
},
{
name = top;
pos = (253,500);
}
);
background = {
shapes = (
{
pos = (-15,0);
ref = v;
}
);
};
layerId = m01;
shapes = (
{
closed = 1;
nodes = (
(36,-226,l),
(69,-238,o),
(126,-245,o),
(172,-245,cs),
(311,-245,o),
(367,-138,o),
(389,0,cs),
(412,142,o),
(426,271,o),
(478,500,c),
(393,500,l),
(380,380,o),
(372,325,o),
(360,259,cs),
(353,219,o),
(322,211,o),
(239,211,cs),
(156,211,o),
(125,219,o),
(118,259,cs),
(106,325,o),
(98,380,o),
(85,500,c),
(0,500,l),
(52,271,o),
(78,131,o),
(92,0,c),
(333,0,l),
(324,-37,o),
(265,-66,o),
(191,-66,cs),
(131,-66,o),
(70,-52,o),
(36,-30,c)
);
}
);
width = 478;
},
{
anchors = (
{
name = bottom;
pos = (373,0);
},
{
name = top;
pos = (240,480);
}
);
guides = (
{
locked = 1;
pos = (-193,-207);
}
);
layerId = "60D037D9-62E9-4843-B070-F1594CB0B0D1";
shapes = (
{
closed = 1;
nodes = (
(83,-190,l),
(104,-196,o),
(123,-196,o),
(138,-196,cs),
(249,-196,o),
(289,-105,o),
(318,0,cs),
(319,4,o),
(409,320,o),
(464,480,c),
(429,480,l),
(389,330,o),
(353,206,o),
(316,74,cs),
(307,42,o),
(303,41,o),
(250,41,cs),
(197,41,o),
(193,42,o),
(184,74,cs),
(147,206,o),
(111,330,o),
(71,480,c),
(36,480,l),
(93,315,o),
(130,169,o),
(182,0,c),
(294,0,l),
(289,-21,o),
(264,-160,o),
(146,-160,cs),
(126,-160,o),
(101,-157,o),
(83,-151,c)
);
}
);
width = 500;
}
);
metricLeft = v;
metricRight = v;
unicode = 121;
},
{
color = 5;
glyphname = z;
lastChange = "2023-12-27 17:21:44 +0000";
layers = (
{
anchors = (
{
name = bottom;
pos = (265,0);
},
{
name = center;
pos = (265,250);
},
{
name = top;
pos = (265,500);
}
);
layerId = m01;
shapes = (
{
closed = 1;
nodes = (
(52,0,l),
(438,0,l),
(438,175,l),
(214,168,o),
(206,168,o),
(206,177,cs),
(206,188,o),
(206,188,o),
(438,317,c),
(438,500,l),
(52,500,l),
(52,325,l),
(294,326,o),
(299,326,o),
(299,316,cs),
(299,310,o),
(299,310,o),
(52,162,c)
);
}
);
width = 490;
},
{
anchors = (
{
name = bottom;
pos = (237,0);
},
{
name = center;
pos = (237,240);
},
{
name = top;
pos = (237,480);
}
);
layerId = "60D037D9-62E9-4843-B070-F1594CB0B0D1";
shapes = (
{
closed = 1;
nodes = (
(60,0,l),
(401,0,l),
(401,36,l),
(87,30,o),
(87,30,o),
(87,51,cs),
(87,71,o),
(87,71,o),
(401,411,c),
(401,480,l),
(60,480,l),
(60,446,l),
(376,452,o),
(377,453,o),
(377,435,cs),
(377,419,o),
(377,419,o),
(60,75,c)
);
}
);
width = 455;
}
);
unicode = 122;
},
